<svg  viewBox="0 0 24 24" fill="none" xmlns="http://www.w3.org/2000/svg">
<path fill-rule="evenodd" clip-rule="evenodd" d="M18.3027 3.75L5.70144 3.75005C4.91736 3.75005 4.46695 3.94561 4.20726 4.20535C3.94754 4.4651 3.75195 4.91567 3.75195 5.70006C3.75195 6.4845 3.94751 6.93507 4.20718 7.1948C4.4668 7.4545 4.91713 7.65006 5.7012 7.65006L18.3026 7.65001C19.0867 7.65001 19.5371 7.45445 19.7967 7.19474C20.0564 6.935 20.252 6.48443 20.252 5.7C20.252 4.91556 20.0564 4.46499 19.7967 4.20525C19.5371 3.94556 19.0868 3.75 18.3027 3.75ZM5.70143 2.25005L18.3027 2.25C19.3181 2.25 20.2174 2.50444 20.8576 3.14475C21.4976 3.78502 21.752 4.68445 21.752 5.7C21.752 6.71558 21.4976 7.61501 20.8575 8.25527C20.8126 8.30018 20.7664 8.34319 20.719 8.38435C20.7391 8.45207 20.7499 8.52379 20.7499 8.59803L20.75 18.3C20.75 19.2133 20.6489 20.1438 20.0584 20.8188C19.4462 21.5187 18.4902 21.7501 17.3008 21.7501H6.68134C5.49195 21.7501 4.53591 21.5187 3.92372 20.8188C3.33327 20.1438 3.23212 19.2133 3.23212 18.3V8.33739C3.20305 8.31077 3.17446 8.28341 3.14637 8.25532C2.50628 7.61505 2.25195 6.71562 2.25195 5.70006C2.25195 4.68445 2.50636 3.78501 3.14652 3.14476C3.7867 2.50449 4.68603 2.25005 5.70143 2.25005ZM4.73212 9.06084V18.3C4.73212 19.1868 4.85592 19.6063 5.05273 19.8313C5.22781 20.0314 5.62139 20.2501 6.68134 20.2501H17.3008C18.3607 20.2501 18.7543 20.0314 18.9294 19.8313C19.1262 19.6063 19.25 19.1868 19.25 18.3001L19.2499 9.06507C18.9497 9.1232 18.6323 9.15001 18.3026 9.15001L5.7012 9.15006C5.36359 9.15006 5.03881 9.12193 4.73212 9.06084ZM8.75 14C8.75 13.5858 9.08579 13.25 9.5 13.25H14.5C14.9142 13.25 15.25 13.5858 15.25 14C15.25 14.4142 14.9142 14.75 14.5 14.75H9.5C9.08579 14.75 8.75 14.4142 8.75 14Z" fill="currentColor"/>
</svg>
