<svg viewBox="0 0 24 24" fill="none" xmlns="http://www.w3.org/2000/svg">
<path fill-rule="evenodd" clip-rule="evenodd" d="M12 2.75C12.4142 2.75 12.75 3.08579 12.75 3.5V18.6891L17.5394 13.8997C17.8322 13.6068 18.3071 13.6068 18.6 13.8997C18.8929 14.1926 18.8929 14.6675 18.6 14.9604L12.53 21.0304C12.3894 21.171 12.1986 21.2501 11.9997 21.2501C11.8008 21.2501 11.61 21.171 11.4694 21.0304L5.39936 14.9604C5.10646 14.6675 5.10646 14.1926 5.39936 13.8997C5.69225 13.6068 6.16712 13.6068 6.46002 13.8997L11.25 18.6897V3.5C11.25 3.08579 11.5858 2.75 12 2.75Z" fill="currentColor"/>
</svg>
