<svg viewBox="0 0 24 24" fill="none" xmlns="http://www.w3.org/2000/svg">
<path fill-rule="evenodd" clip-rule="evenodd" d="M13.8995 5.39972C14.1924 5.10683 14.6673 5.10683 14.9602 5.39972L21.0302 11.4697C21.1708 11.6104 21.2498 11.8011 21.2498 12.0001C21.2498 12.199 21.1708 12.3897 21.0302 12.5304L14.9602 18.6004C14.6673 18.8933 14.1924 18.8933 13.8995 18.6004C13.6066 18.3075 13.6066 17.8326 13.8995 17.5397L18.6892 12.7501H3.5C3.08579 12.7501 2.75 12.4143 2.75 12.0001C2.75 11.5858 3.08579 11.2501 3.5 11.2501H18.6892L13.8995 6.46038C13.6066 6.16749 13.6066 5.69262 13.8995 5.39972Z" fill="currentColor"/>
</svg>
