<svg  viewBox="0 0 24 24" fill="none" xmlns="http://www.w3.org/2000/svg">
<path fill-rule="evenodd" clip-rule="evenodd" d="M6.27811 2.61552C6.55803 2.36141 6.89747 2.24976 7.22801 2.24976C7.55855 2.24976 7.898 2.36141 8.17791 2.61552C8.45069 2.86315 8.61843 3.20113 8.70531 3.57762C8.70803 3.58941 8.71047 3.60126 8.71261 3.61316L9.28847 6.80656C9.29008 6.81546 9.29152 6.82439 9.2928 6.83334L9.62934 9.18344C9.68806 9.59347 9.40326 9.97346 8.99323 10.0322C8.5832 10.0909 8.20321 9.8061 8.14449 9.39607L7.90013 7.68966H6.53731L6.2392 9.41729C6.16877 9.82547 5.78077 10.0993 5.37259 10.0288C4.96441 9.9584 4.69061 9.5704 4.76104 9.16222L5.16753 6.80656L5.74341 3.61316C5.74556 3.60126 5.74799 3.58941 5.75071 3.57762C5.83759 3.20113 6.00533 2.86315 6.27811 2.61552ZM6.80299 6.18966L7.21596 3.89955C7.21993 3.88344 7.22397 3.86869 7.22801 3.8552C7.23205 3.86869 7.2361 3.88344 7.24006 3.89955L7.65303 6.18966H6.80299ZM17.2794 2.25C17.6936 2.24999 18.0294 2.58577 18.0294 2.99999L18.0297 19.1894L20.4694 16.7497C20.7623 16.4568 21.2371 16.4568 21.53 16.7497C21.8229 17.0426 21.8229 17.5175 21.53 17.8104L17.8101 21.5303C17.5172 21.8232 17.0423 21.8232 16.7494 21.5303L13.0294 17.8104C12.7365 17.5175 12.7365 17.0426 13.0294 16.7497C13.3222 16.4568 13.7971 16.4568 14.09 16.7497L16.5297 19.1893L16.5294 3.00001C16.5294 2.5858 16.8652 2.25001 17.2794 2.25ZM4.75036 14.5002C4.75036 14.086 5.08615 13.7502 5.50036 13.7502H9.00036C9.26619 13.7502 9.51216 13.891 9.64689 14.1201C9.78163 14.3493 9.78498 14.6326 9.65572 14.8649L6.77578 20.0402H9.00036C9.41457 20.0402 9.75036 20.376 9.75036 20.7902C9.75036 21.2045 9.41457 21.5402 9.00036 21.5402H5.50012C5.23429 21.5402 4.98832 21.3995 4.85359 21.1704C4.71885 20.9412 4.7155 20.6578 4.84476 20.4256L7.7247 15.2502H5.50036C5.08615 15.2502 4.75036 14.9145 4.75036 14.5002Z" fill="currentColor"/>
</svg>
