<svg viewBox="0 0 24 24" fill="none" xmlns="http://www.w3.org/2000/svg">
<path fill-rule="evenodd" clip-rule="evenodd" d="M9.73681 3.069C10.16 2.52358 10.8056 2.25 11.595 2.25H12.405C13.1944 2.25 13.84 2.52358 14.2632 3.069C14.6596 3.57998 14.775 4.22148 14.775 4.8V20.25H15.75V14.7C15.75 14.1354 15.849 13.5085 16.1976 13.0029C16.5788 12.4502 17.1835 12.15 17.94 12.15H18.66C19.4165 12.15 20.0212 12.4502 20.4024 13.0029C20.751 13.5085 20.85 14.1354 20.85 14.7V20.25H21C21.4142 20.25 21.75 20.5858 21.75 21C21.75 21.4142 21.4142 21.75 21 21.75H3C2.58579 21.75 2.25 21.4142 2.25 21C2.25 20.5858 2.58579 20.25 3 20.25H3.15V10.2C3.15 9.6354 3.24897 9.00845 3.59759 8.50295C3.97881 7.95017 4.58345 7.65 5.34 7.65H6.06C6.81655 7.65 7.42119 7.95017 7.80241 8.50295C8.15103 9.00845 8.25 9.6354 8.25 10.2V20.25H9.225V4.8C9.225 4.22148 9.34036 3.57998 9.73681 3.069ZM10.725 20.25H13.275V4.8C13.275 4.38852 13.1879 4.13002 13.0781 3.9885C12.995 3.88142 12.8306 3.75 12.405 3.75H11.595C11.1694 3.75 11.005 3.88142 10.9219 3.9885C10.8121 4.13002 10.725 4.38852 10.725 4.8V20.25ZM6.75 20.25V10.2C6.75 9.7746 6.66897 9.50155 6.56759 9.35455C6.49881 9.25483 6.38345 9.15 6.06 9.15H5.34C5.01655 9.15 4.90119 9.25483 4.83241 9.35455C4.73103 9.50155 4.65 9.7746 4.65 10.2V20.25H6.75ZM19.35 20.25V14.7C19.35 14.2746 19.269 14.0015 19.1676 13.8545C19.0988 13.7548 18.9835 13.65 18.66 13.65H17.94C17.6165 13.65 17.5012 13.7548 17.4324 13.8545C17.331 14.0015 17.25 14.2746 17.25 14.7V20.25H19.35Z" fill="currentColor"/>
</svg>
