<svg viewBox="0 0 24 24" fill="none" xmlns="http://www.w3.org/2000/svg">
<path fill-rule="evenodd" clip-rule="evenodd" d="M3.93217 3.93217C5.15414 2.7102 6.97603 2.25 9.3 2.25H14.7C17.024 2.25 18.8459 2.7102 20.0678 3.93217C21.2898 5.15414 21.75 6.97603 21.75 9.3V14.7C21.75 17.024 21.2898 18.8459 20.0678 20.0678C18.8459 21.2898 17.024 21.75 14.7 21.75H9.3C6.97603 21.75 5.15414 21.2898 3.93217 20.0678C2.7102 18.8459 2.25 17.024 2.25 14.7V9.3C2.25 6.97603 2.7102 5.15414 3.93217 3.93217ZM4.99283 4.99283C4.1898 5.79586 3.75 7.12397 3.75 9.3V14.7C3.75 16.876 4.1898 18.2041 4.99283 19.0072C5.79586 19.8102 7.12397 20.25 9.3 20.25H14.7C16.876 20.25 18.2041 19.8102 19.0072 19.0072C19.8102 18.2041 20.25 16.876 20.25 14.7V9.3C20.25 7.12397 19.8102 5.79586 19.0072 4.99283C18.2041 4.1898 16.876 3.75 14.7 3.75H9.3C7.12397 3.75 5.79586 4.1898 4.99283 4.99283ZM12.6 7.95C12.6 6.54579 13.7458 5.4 15.15 5.4C16.5542 5.4 17.7 6.54579 17.7 7.95V16.05C17.7 17.4542 16.5542 18.6 15.15 18.6C13.7343 18.6 12.6 17.4518 12.6 16.05V7.95ZM15.15 6.9C14.5742 6.9 14.1 7.37421 14.1 7.95V16.05C14.1 16.6282 14.5677 17.1 15.15 17.1C15.7258 17.1 16.2 16.6258 16.2 16.05V7.95C16.2 7.37421 15.7258 6.9 15.15 6.9ZM6.3 12.9C6.3 11.4958 7.44579 10.35 8.85 10.35C10.2542 10.35 11.4 11.4958 11.4 12.9V16.05C11.4 17.4542 10.2542 18.6 8.85 18.6C7.43435 18.6 6.3 17.4518 6.3 16.05V12.9ZM8.85 11.85C8.27421 11.85 7.8 12.3242 7.8 12.9V16.05C7.8 16.6282 8.26765 17.1 8.85 17.1C9.42579 17.1 9.9 16.6258 9.9 16.05V12.9C9.9 12.3242 9.42579 11.85 8.85 11.85Z" fill="currentColor"/>
</svg>
