<svg viewBox="0 0 24 24" fill="none" xmlns="http://www.w3.org/2000/svg">
<path fill-rule="evenodd" clip-rule="evenodd" d="M4.88117 4.35015C4.25067 4.29716 3.75 4.75869 3.75 5.39377V16.2658C3.75 16.7574 4.17613 17.2432 4.65902 17.3036L4.66856 17.3048L4.92637 17.3404C4.92692 17.3405 4.92747 17.3406 4.92802 17.3406C6.75037 17.5845 9.41254 18.4202 11.25 19.2991V6.54885C11.2104 6.52941 11.1714 6.50802 11.1332 6.48456L10.9011 6.3453C9.39946 5.40891 6.65265 4.49356 4.88346 4.35034L4.88117 4.35015ZM12.75 6.54885V19.2884C14.5884 18.4105 17.2252 17.5815 19.0381 17.3404L19.0467 17.3392L19.341 17.3036C19.3414 17.3035 19.3417 17.3035 19.3421 17.3034C19.8245 17.2424 20.25 16.757 20.25 16.2658V5.40278C20.25 4.76594 19.7475 4.30557 19.1098 4.35916C19.0899 4.36083 19.07 4.3617 19.05 4.36178V8.3998C19.05 8.67624 18.8979 8.93027 18.6543 9.06085C18.4106 9.19143 18.1149 9.17739 17.8847 9.02431L16.5 8.10348L15.1153 9.02431C14.8851 9.17739 14.5894 9.19143 14.3457 9.06085C14.1021 8.93027 13.95 8.67624 13.95 8.3998V5.8787C13.6093 6.04452 13.2992 6.21293 13.031 6.37864L12.8726 6.48111C12.8326 6.50598 12.7916 6.52843 12.75 6.54885ZM15.45 5.24475V7.00034L16.0847 6.57827C16.3363 6.41095 16.6637 6.41095 16.9153 6.57827L17.55 7.00034V4.61572C16.8708 4.77379 16.1465 4.9907 15.45 5.24475ZM18.1716 2.96285C18.443 2.91295 18.7002 2.88359 18.9307 2.86438C18.9515 2.86265 18.9722 2.86179 18.993 2.86179H19.0181C20.5074 2.75518 21.75 3.89106 21.75 5.40278V16.2658C21.75 17.5022 20.7722 18.6363 19.527 18.792L19.5243 18.7923L19.2318 18.8278C17.3642 19.0771 14.4365 20.0441 12.7902 20.9517C12.5323 21.0983 12.242 21.149 11.9944 21.149C11.7486 21.149 11.466 21.0991 11.2123 20.963L11.1884 20.951C11.1799 20.9468 11.1715 20.9424 11.1631 20.9378C9.51564 20.0369 6.58896 19.0759 4.72768 18.8272L4.72446 18.8268L4.46772 18.7913C3.22511 18.6332 2.25 17.5004 2.25 16.2658V5.39377C2.25 3.88724 3.49465 2.72898 5.00564 2.85532C7.01422 3.0182 9.9862 4.00881 11.6892 5.0689L11.9126 5.20292C11.915 5.20379 11.9196 5.20536 11.9267 5.20714C11.945 5.21168 11.9705 5.21527 12 5.21527C12.0295 5.21527 12.055 5.21168 12.0733 5.20714C12.0794 5.20562 12.0836 5.20425 12.0862 5.20334L12.2226 5.1151L12.2352 5.10709C12.8487 4.72733 13.6097 4.35799 14.4201 4.03198L14.4233 4.03068C15.6414 3.54716 17.0045 3.1534 18.1716 2.96285Z" fill="currentColor"/>
</svg>
