<svg viewBox="0 0 24 24" fill="none" xmlns="http://www.w3.org/2000/svg">
<g id="calendar-light">
<g id="Vector">
<path fill-rule="evenodd" clip-rule="evenodd" d="M8 1.25C8.41421 1.25 8.75 1.58579 8.75 2V2.75H15.25V2C15.25 1.58579 15.5858 1.25 16 1.25C16.4142 1.25 16.75 1.58579 16.75 2V2.78025C18.2859 2.90808 19.5038 3.44034 20.3621 4.36466C21.3464 5.42465 21.75 6.88503 21.75 8.5V17C21.75 18.615 21.3464 20.0754 20.3621 21.1353C19.3685 22.2054 17.893 22.75 16 22.75H8C6.10705 22.75 4.63152 22.2054 3.6379 21.1353C2.65363 20.0754 2.25 18.615 2.25 17V8.5C2.25 6.88503 2.65363 5.42465 3.6379 4.36466C4.4962 3.44034 5.71409 2.90808 7.25 2.78025V2C7.25 1.58579 7.58579 1.25 8 1.25ZM7.25 4.28628C6.06502 4.40668 5.26412 4.81778 4.7371 5.38534C4.21776 5.94462 3.89181 6.73359 3.78695 7.75H20.2131C20.1082 6.73359 19.7822 5.94462 19.2629 5.38534C18.7359 4.81778 17.935 4.40668 16.75 4.28628V5C16.75 5.41421 16.4142 5.75 16 5.75C15.5858 5.75 15.25 5.41421 15.25 5V4.25H8.75V5C8.75 5.41421 8.41421 5.75 8 5.75C7.58579 5.75 7.25 5.41421 7.25 5V4.28628ZM20.25 9.25H3.75V17C3.75 18.385 4.09637 19.4246 4.7371 20.1147C5.36848 20.7946 6.39295 21.25 8 21.25H16C17.607 21.25 18.6315 20.7946 19.2629 20.1147C19.9036 19.4246 20.25 18.385 20.25 17V9.25Z" fill="currentColor"/>
<path d="M9 13C9 13.5523 8.55228 14 8 14C7.44772 14 7 13.5523 7 13C7 12.4477 7.44772 12 8 12C8.55228 12 9 12.4477 9 13Z" fill="currentColor"/>
<path d="M9 17C9 17.5523 8.55228 18 8 18C7.44772 18 7 17.5523 7 17C7 16.4477 7.44772 16 8 16C8.55228 16 9 16.4477 9 17Z" fill="currentColor"/>
<path d="M13 13C13 13.5523 12.5523 14 12 14C11.4477 14 11 13.5523 11 13C11 12.4477 11.4477 12 12 12C12.5523 12 13 12.4477 13 13Z" fill="currentColor"/>
<path d="M13 17C13 17.5523 12.5523 18 12 18C11.4477 18 11 17.5523 11 17C11 16.4477 11.4477 16 12 16C12.5523 16 13 16.4477 13 17Z" fill="currentColor"/>
<path d="M17 13C17 13.5523 16.5523 14 16 14C15.4477 14 15 13.5523 15 13C15 12.4477 15.4477 12 16 12C16.5523 12 17 12.4477 17 13Z" fill="currentColor"/>
<path d="M17 17C17 17.5523 16.5523 18 16 18C15.4477 18 15 17.5523 15 17C15 16.4477 15.4477 16 16 16C16.5523 16 17 16.4477 17 17Z" fill="currentColor"/>
</g>
</g>
</svg>
