<svg viewBox="0 0 24 24" fill="none" xmlns="http://www.w3.org/2000/svg">
<path d="M7.30324 2.70424L8.43567 2.36363C9.05602 2.17657 9.72324 2.2216 10.3128 2.49033C10.9024 2.75905 11.3741 3.23312 11.6399 3.82405L12.5151 5.77063C12.7436 6.27892 12.8073 6.84598 12.6971 7.39227C12.5869 7.93855 12.3085 8.43664 11.9009 8.81665L10.4502 10.1684C10.4078 10.2079 10.3809 10.2612 10.3745 10.3188C10.3318 10.704 10.5928 11.4541 11.1954 12.4973C11.6321 13.2552 12.029 13.7879 12.3657 14.0858C12.6015 14.2944 12.7306 14.3391 12.7859 14.3235L14.7363 13.7268C15.269 13.5638 15.8393 13.5717 16.3672 13.7492C16.8952 13.9267 17.3544 14.2649 17.6805 14.7165L18.9225 16.4399C19.3007 16.9639 19.4758 17.6073 19.4155 18.2506C19.3552 18.894 19.0635 19.4936 18.5946 19.9382L17.7338 20.7533C17.2775 21.1854 16.7171 21.492 16.1071 21.6431C15.4971 21.7943 14.8584 21.7849 14.2531 21.6159C11.5807 20.8697 9.1848 18.6146 7.03832 14.897C4.88991 11.1747 4.13495 7.96854 4.83168 5.27768C4.98809 4.67249 5.29774 4.11779 5.73081 3.66704C6.16388 3.2163 6.70478 2.88471 7.30324 2.70424ZM7.72341 4.09867C7.36426 4.20668 7.03899 4.40538 6.77895 4.67562C6.5189 4.94587 6.33285 5.27854 6.23873 5.64157C5.65456 7.90449 6.32315 10.7467 8.29884 14.1693C10.2726 17.5869 12.3968 19.5859 14.6451 20.2147C15.0083 20.316 15.3915 20.3215 15.7575 20.2307C16.1235 20.1399 16.4597 19.9559 16.7334 19.6965L17.5931 18.8814C17.8064 18.6794 17.9391 18.4068 17.9666 18.1143C17.9941 17.8217 17.9145 17.5292 17.7426 17.291L16.5005 15.5685C16.3523 15.363 16.1434 15.2091 15.9032 15.1283C15.6631 15.0476 15.4036 15.0441 15.1614 15.1183L13.206 15.717C12.0707 16.0547 11.0411 15.1416 9.9349 13.2251C9.18868 11.9345 8.84129 10.935 8.92862 10.1577C8.97326 9.75403 9.16151 9.38141 9.45748 9.10388L10.9082 7.75214C11.0934 7.57932 11.2198 7.35284 11.2698 7.1045C11.3197 6.85615 11.2907 6.5984 11.1867 6.36741L10.3124 4.42084C10.1916 4.15222 9.97715 3.93675 9.70913 3.81461C9.44112 3.69248 9.13782 3.67204 8.85584 3.7571L7.72341 4.09867Z" fill="currentColor"/>
</svg>
