<svg viewBox="0 0 24 24" fill="none" xmlns="http://www.w3.org/2000/svg">
<path fill-rule="evenodd" clip-rule="evenodd" d="M2.25 12C2.25 6.63579 6.63579 2.25 12 2.25C17.3642 2.25 21.75 6.63579 21.75 12C21.75 17.3642 17.3642 21.75 12 21.75C6.63579 21.75 2.25 17.3642 2.25 12ZM12 3.75C7.46421 3.75 3.75 7.46421 3.75 12C3.75 16.5358 7.46421 20.25 12 20.25C16.5358 20.25 20.25 16.5358 20.25 12C20.25 7.46421 16.5358 3.75 12 3.75ZM11.2451 8.40004C11.2451 7.98582 11.5809 7.65004 11.9951 7.65004H12.0032C12.4174 7.65004 12.7532 7.98582 12.7532 8.40004C12.7532 8.81425 12.4174 9.15004 12.0032 9.15004H11.9951C11.5809 9.15004 11.2451 8.81425 11.2451 8.40004ZM12.0004 10.35C12.4146 10.35 12.7504 10.6858 12.7504 11.1V15.6C12.7504 16.0142 12.4146 16.35 12.0004 16.35C11.5862 16.35 11.2504 16.0142 11.2504 15.6V11.1C11.2504 10.6858 11.5862 10.35 12.0004 10.35Z" fill="currentColor"/>
</svg>
