<svg viewBox="0 0 24 24" fill="none" xmlns="http://www.w3.org/2000/svg">
<path fill-rule="evenodd" clip-rule="evenodd" d="M12.002 3.75006C7.4456 3.75006 3.75195 7.44371 3.75195 12.0001C3.75195 16.5564 7.4456 20.2501 12.002 20.2501C16.5583 20.2501 20.252 16.5564 20.252 12.0001C20.252 7.44371 16.5583 3.75006 12.002 3.75006ZM2.25195 12.0001C2.25195 6.61528 6.61718 2.25006 12.002 2.25006C17.3867 2.25006 21.752 6.61528 21.752 12.0001C21.752 17.3848 17.3867 21.7501 12.002 21.7501C6.61718 21.7501 2.25195 17.3848 2.25195 12.0001ZM12.0823 8.76973C12.3752 9.06263 12.3752 9.5375 12.0823 9.83039L10.6626 11.2501H15.152C15.5662 11.2501 15.902 11.5858 15.902 12.0001C15.902 12.4143 15.5662 12.7501 15.152 12.7501H10.6626L12.0823 14.1697C12.3752 14.4626 12.3752 14.9375 12.0823 15.2304C11.7894 15.5233 11.3145 15.5233 11.0216 15.2304L8.32162 12.5304C8.02873 12.2375 8.02873 11.7626 8.32162 11.4697L11.0216 8.76973C11.3145 8.47684 11.7894 8.47684 12.0823 8.76973Z" fill="currentColor"/>
</svg>
