<svg viewBox="0 0 24 24" fill="none" xmlns="http://www.w3.org/2000/svg">
<path fill-rule="evenodd" clip-rule="evenodd" d="M2.25 12C2.25 6.61522 6.61522 2.25 12 2.25C17.3848 2.25 21.75 6.61522 21.75 12C21.75 17.3848 17.3848 21.75 12 21.75C6.61522 21.75 2.25 17.3848 2.25 12ZM12 3.75C7.44365 3.75 3.75 7.44365 3.75 12C3.75 16.5563 7.44365 20.25 12 20.25C16.5563 20.25 20.25 16.5563 20.25 12C20.25 7.44365 16.5563 3.75 12 3.75ZM15.5363 9.47566C15.8258 9.77183 15.8205 10.2467 15.5243 10.5363L11.4334 14.5363C11.142 14.8212 10.6762 14.8212 10.3848 14.5363L8.47566 12.6696C8.1795 12.38 8.17416 11.9052 8.46375 11.609C8.75333 11.3128 9.22817 11.3075 9.52434 11.5971L10.9091 12.9511L14.4757 9.46375C14.7718 9.17416 15.2467 9.1795 15.5363 9.47566Z" fill="currentColor"/>
</svg>
