<svg viewBox="0 0 24 24" fill="none" xmlns="http://www.w3.org/2000/svg">
<path fill-rule="evenodd" clip-rule="evenodd" d="M5.10571 5.10571C8.91332 1.2981 15.0867 1.2981 18.8943 5.10571C22.7019 8.91332 22.7019 15.0867 18.8943 18.8943C15.0867 22.7019 8.91332 22.7019 5.10571 18.8943C1.2981 15.0867 1.2981 8.91332 5.10571 5.10571ZM17.8336 6.16637C14.6118 2.94454 9.3882 2.94454 6.16637 6.16637C2.94454 9.38819 2.94454 14.6118 6.16637 17.8336C9.3882 21.0555 14.6118 21.0555 17.8336 17.8336C21.0555 14.6118 21.0555 9.3882 17.8336 6.16637Z" fill="currentColor"/>
<path fill-rule="evenodd" clip-rule="evenodd" d="M9 10.0833C9 8.37912 10.3791 7 12.0833 7C13.7875 7 15.1667 8.37912 15.1667 10.0833C15.1667 11.5289 14.1744 12.7405 12.8331 13.075L12.833 13.5835C12.8329 13.9977 12.497 14.3334 12.0828 14.3333C11.6686 14.3332 11.3329 13.9973 11.333 13.5831L11.3333 12.4165C11.3334 12.0023 11.6692 11.6667 12.0833 11.6667C12.9591 11.6667 13.6667 10.9591 13.6667 10.0833C13.6667 9.20755 12.9591 8.5 12.0833 8.5C11.2075 8.5 10.5 9.20755 10.5 10.0833C10.5 10.4975 10.1642 10.8333 9.75 10.8333C9.33579 10.8333 9 10.4975 9 10.0833ZM12.0833 15.2222C12.4975 15.2222 12.8333 15.558 12.8333 15.9722V15.9811C12.8333 16.3953 12.4975 16.7311 12.0833 16.7311C11.6691 16.7311 11.3333 16.3953 11.3333 15.9811V15.9722C11.3333 15.558 11.6691 15.2222 12.0833 15.2222Z" fill="currentColor"/>
</svg>
