<svg viewBox="0 0 24 24" fill="none" xmlns="http://www.w3.org/2000/svg">
<path fill-rule="evenodd" clip-rule="evenodd" d="M2.25 12C2.25 6.63579 6.63579 2.25 12 2.25C17.3642 2.25 21.75 6.63579 21.75 12C21.75 17.3642 17.3642 21.75 12 21.75C6.63579 21.75 2.25 17.3642 2.25 12ZM12 3.75C7.46421 3.75 3.75 7.46421 3.75 12C3.75 16.5358 7.46421 20.25 12 20.25C16.5358 20.25 20.25 16.5358 20.25 12C20.25 7.46421 16.5358 3.75 12 3.75ZM8.9226 8.92265C9.21549 8.62976 9.69037 8.62976 9.98326 8.92265L11.9999 10.9393L14.0166 8.92265C14.3095 8.62976 14.7844 8.62976 15.0773 8.92265C15.3702 9.21555 15.3702 9.69042 15.0773 9.98331L13.0606 12L15.0773 14.0167C15.3702 14.3095 15.3702 14.7844 15.0773 15.0773C14.7844 15.3702 14.3095 15.3702 14.0166 15.0773L11.9999 13.0606L9.98326 15.0773C9.69037 15.3702 9.21549 15.3702 8.9226 15.0773C8.62971 14.7844 8.62971 14.3095 8.9226 14.0167L10.9393 12L8.9226 9.98331C8.62971 9.69042 8.62971 9.21555 8.9226 8.92265Z" fill="currentColor"/>
</svg>
