<svg viewBox="0 0 24 24" fill="none" xmlns="http://www.w3.org/2000/svg">
<path fill-rule="evenodd" clip-rule="evenodd" d="M12 3.75018C7.44365 3.75018 3.75 7.44383 3.75 12.0002C3.75 16.5565 7.44365 20.2502 12 20.2502C16.5563 20.2502 20.25 16.5565 20.25 12.0002C20.25 7.44383 16.5563 3.75018 12 3.75018ZM2.25 12.0002C2.25 6.61541 6.61522 2.25018 12 2.25018C17.3848 2.25018 21.75 6.61541 21.75 12.0002C21.75 17.385 17.3848 21.7502 12 21.7502C6.61522 21.7502 2.25 17.385 2.25 12.0002ZM11.9197 8.76985C12.2126 8.47696 12.6874 8.47696 12.9803 8.76985L15.6803 11.4699C15.9732 11.7627 15.9732 12.2376 15.6803 12.5305L12.9803 15.2305C12.6874 15.5234 12.2126 15.5234 11.9197 15.2305C11.6268 14.9376 11.6268 14.4627 11.9197 14.1699L13.3393 12.7502H8.85C8.43579 12.7502 8.1 12.4144 8.1 12.0002C8.1 11.586 8.43579 11.2502 8.85 11.2502H13.3393L11.9197 9.83051C11.6268 9.53762 11.6268 9.06275 11.9197 8.76985Z" fill="currentColor"/>
</svg>
