<svg viewBox="0 0 24 24" fill="none" xmlns="http://www.w3.org/2000/svg">
<path fill-rule="evenodd" clip-rule="evenodd" d="M12 3.75C7.44365 3.75 3.75 7.44365 3.75 12C3.75 13.9885 4.4535 15.8126 5.62519 17.2372C5.95975 16.6525 6.46708 16.1291 7.10808 15.6978L7.11181 15.6952L7.11182 15.6953C8.49338 14.7776 10.2707 14.3415 12.0065 14.3415C13.7422 14.3415 15.5162 14.7775 16.8899 15.6967L16.8915 15.6978C17.5326 16.1292 18.04 16.6527 18.3746 17.2375C19.5464 15.8129 20.25 13.9886 20.25 12C20.25 7.44365 16.5563 3.75 12 3.75ZM13.4848 21.6377C18.1649 20.9226 21.75 16.88 21.75 12C21.75 6.61522 17.3848 2.25 12 2.25C6.61522 2.25 2.25 6.61522 2.25 12C2.25 17.3848 6.61522 21.75 12 21.75C12.5048 21.75 13.0007 21.7116 13.4848 21.6377ZM17.2427 18.3645C17.0879 17.8901 16.7157 17.3877 16.0549 16.9428C14.9807 16.2243 13.515 15.8415 12.0065 15.8415C10.4988 15.8415 9.0279 16.224 7.94364 16.9435C7.28346 17.3882 6.91161 17.8903 6.75688 18.3645C7.60302 19.0644 8.58798 19.5972 9.66543 19.915C10.4057 20.133 11.1892 20.25 12 20.25C12.7806 20.25 13.5359 20.1416 14.2516 19.939C15.3613 19.6244 16.3749 19.0823 17.2427 18.3645ZM11.9998 7.55698C10.7775 7.55698 9.79775 8.54271 9.79775 9.75898C9.79775 10.9311 10.712 11.8871 11.8716 11.9504C11.9549 11.9438 12.0436 11.9432 12.1304 11.9503C13.2843 11.8859 14.194 10.9342 14.2018 9.75693C14.2006 8.54308 13.2139 7.55698 11.9998 7.55698ZM8.29775 9.75898C8.29775 7.71726 9.94605 6.05698 11.9998 6.05698C14.043 6.05698 15.7018 7.71577 15.7018 9.75898V9.76322H15.7017C15.6905 11.7546 14.1239 13.3837 12.1333 13.4515C12.0915 13.453 12.0497 13.4509 12.0083 13.4454L12.0031 13.4452C11.9996 13.4452 11.9957 13.4453 11.9921 13.4456L11.9848 13.4462C11.9455 13.4511 11.9058 13.4529 11.8662 13.4515C9.87936 13.3838 8.29775 11.7574 8.29775 9.75898Z" fill="currentColor"/>
</svg>
