<svg viewBox="0 0 24 24" fill="none" xmlns="http://www.w3.org/2000/svg">
<path fill-rule="evenodd" clip-rule="evenodd" d="M2.25 12C2.25 6.63579 6.63579 2.25 12 2.25C17.3642 2.25 21.75 6.63579 21.75 12C21.75 17.3642 17.3642 21.75 12 21.75C6.63579 21.75 2.25 17.3642 2.25 12ZM12 3.75C7.46421 3.75 3.75 7.46421 3.75 12C3.75 16.5358 7.46421 20.25 12 20.25C16.5358 20.25 20.25 16.5358 20.25 12C20.25 7.46421 16.5358 3.75 12 3.75ZM12 7.65C12.4142 7.65 12.75 7.98579 12.75 8.4V12.9C12.75 13.3142 12.4142 13.65 12 13.65C11.5858 13.65 11.25 13.3142 11.25 12.9V8.4C11.25 7.98579 11.5858 7.65 12 7.65ZM11.2447 15.6C11.2447 15.1858 11.5805 14.85 11.9947 14.85H12.0028C12.417 14.85 12.7528 15.1858 12.7528 15.6C12.7528 16.0142 12.417 16.35 12.0028 16.35H11.9947C11.5805 16.35 11.2447 16.0142 11.2447 15.6Z" fill="currentColor"/>
</svg>
