<svg viewBox="0 0 24 24" fill="none" xmlns="http://www.w3.org/2000/svg">
<path fill-rule="evenodd" clip-rule="evenodd" d="M9.92882 1.24988C9.95338 1.24995 9.97713 1.25001 10 1.25001H14C14.0229 1.25001 14.0466 1.24995 14.0712 1.24988C14.5142 1.24862 15.222 1.24661 15.791 1.62598C16.3265 1.98295 16.6111 2.56192 16.7096 3.32346C18.1504 3.47475 19.3992 3.88155 20.2993 4.85447C21.3278 5.96624 21.75 7.65475 21.75 10V16C21.75 18.0133 21.5113 19.7689 20.4394 20.9939C19.3459 22.2437 17.5647 22.75 15 22.75H9C6.43533 22.75 4.65413 22.2437 3.56057 20.9939C2.48868 19.7689 2.25 18.0133 2.25 16V10C2.25 7.65924 2.6724 5.97131 3.70035 4.8586C4.60012 3.88464 5.84867 3.47549 7.29036 3.32358C7.38884 2.56199 7.67348 1.98297 8.20897 1.62598C8.77803 1.24661 9.48584 1.24862 9.92882 1.24988ZM7.31325 4.83047C6.12269 4.97293 5.33208 5.30284 4.80215 5.87647C4.1626 6.56875 3.75 7.78082 3.75 10V16C3.75 17.9868 4.01132 19.2312 4.68943 20.0062C5.34587 20.7564 6.56467 21.25 9 21.25H15C17.4353 21.25 18.6541 20.7564 19.3106 20.0062C19.9887 19.2312 20.25 17.9868 20.25 16V10C20.25 7.77532 19.8372 6.56383 19.1982 5.8731C18.6723 5.30466 17.8895 4.97697 16.7122 4.83336C16.6683 5.15168 16.5743 5.49069 16.374 5.79104C15.9178 6.47535 15.099 6.75001 14 6.75001H10C9.97713 6.75001 9.95338 6.75008 9.92882 6.75015C9.48584 6.75141 8.77803 6.75342 8.20897 6.37405C7.71019 6.04153 7.42904 5.51638 7.31325 4.83047ZM15.25 4.01621C15.25 4.01867 15.25 4.02112 15.25 4.02357C15.2493 4.57162 15.2242 4.81169 15.126 4.95899C15.0822 5.02468 14.901 5.25001 14 5.25001H10C9.43524 5.25001 9.19042 5.22557 9.04103 5.12598C8.97533 5.08218 8.75 4.90097 8.75 4.00001C8.75 3.09906 8.97533 2.91785 9.04103 2.87405C9.19042 2.77446 9.43524 2.75001 10 2.75001H14C14.5648 2.75001 14.8096 2.77446 14.959 2.87405C15.0247 2.91785 15.25 3.09906 15.25 4.00001C15.25 4.00544 15.25 4.01084 15.25 4.01621ZM7.25 12.2C7.25 11.7858 7.58579 11.45 8 11.45H15C15.4142 11.45 15.75 11.7858 15.75 12.2C15.75 12.6142 15.4142 12.95 15 12.95H8C7.58579 12.95 7.25 12.6142 7.25 12.2ZM7.25 16.2C7.25 15.7858 7.58579 15.45 8 15.45H12.38C12.7942 15.45 13.13 15.7858 13.13 16.2C13.13 16.6142 12.7942 16.95 12.38 16.95H8C7.58579 16.95 7.25 16.6142 7.25 16.2Z" fill="currentColor"/>
</svg>
