<svg viewBox="0 0 24 24" fill="none" xmlns="http://www.w3.org/2000/svg">
<path fill-rule="evenodd" clip-rule="evenodd" d="M12.002 3.75006C7.4456 3.75006 3.75195 7.44371 3.75195 12.0001C3.75195 16.5564 7.4456 20.2501 12.002 20.2501C16.5583 20.2501 20.252 16.5564 20.252 12.0001C20.252 7.44371 16.5583 3.75006 12.002 3.75006ZM2.25195 12.0001C2.25195 6.61528 6.61718 2.25006 12.002 2.25006C17.3867 2.25006 21.752 6.61528 21.752 12.0001C21.752 17.3848 17.3867 21.7501 12.002 21.7501C6.61718 21.7501 2.25195 17.3848 2.25195 12.0001ZM12 8.25C12.4142 8.25 12.75 8.58578 12.75 9V11.8158L14.9382 13.3913C15.2744 13.6334 15.3507 14.1021 15.1087 14.4382C14.8666 14.7744 14.3979 14.8507 14.0618 14.6087L11.5618 12.8087C11.366 12.6677 11.25 12.4412 11.25 12.2V9C11.25 8.58578 11.5858 8.25 12 8.25Z" fill="currentColor"/>
</svg>
