<svg viewBox="0 0 24 24" fill="none" xmlns="http://www.w3.org/2000/svg">
<path fill-rule="evenodd" clip-rule="evenodd" d="M16.0865 8.32993C15.7695 8.40648 15.4619 8.5194 15.1671 8.66675C14.7965 8.85192 14.6463 9.3024 14.8315 9.67292C15.0166 10.0434 15.4671 10.1937 15.8376 10.0085C16.2068 9.82399 16.5996 9.72407 17.0056 9.71242C20.2332 10.2116 21.5367 14.5947 19.0526 16.7663L19.0418 16.7759C18.2716 17.4758 17.27 17.8629 16.2319 17.8552C15.8177 17.8521 15.4794 18.1854 15.4763 18.5996C15.4732 19.0138 15.8065 19.352 16.2207 19.3551C17.6381 19.3657 19.0004 18.8379 20.0453 17.8908C23.3823 14.9659 21.816 9.26963 17.6252 8.3048C17.1629 6.25239 16.073 4.8194 14.6672 3.99112C13.162 3.10427 11.3672 2.95324 9.75069 3.37684C8.13413 3.80044 6.64253 4.81258 5.76077 6.32244C4.9848 7.65117 4.71323 9.31075 5.18112 11.1839C0.856872 12.2845 1.17212 19.0165 6.04913 19.3625C6.4623 19.3918 6.82101 19.0806 6.85032 18.6674C6.87962 18.2542 6.56844 17.8955 6.15526 17.8662C2.81596 17.6293 2.82179 12.7983 6.13469 12.544C6.5432 12.5404 6.95611 12.6389 7.3301 12.8293C7.69922 13.0173 8.15081 12.8704 8.33877 12.5013C8.52672 12.1322 8.37986 11.6806 8.01074 11.4927C7.60237 11.2847 7.16075 11.145 6.70709 11.0821C6.2283 9.43728 6.4637 8.09324 7.05607 7.07889C7.71188 5.95591 8.84832 5.16394 10.1309 4.82785C11.4135 4.49176 12.789 4.62547 13.9058 5.28349C14.8571 5.844 15.6755 6.8169 16.0865 8.32993ZM11.069 15.92C10.1059 15.92 9.3252 16.7007 9.3252 17.6638C9.3252 18.6268 10.1059 19.4075 11.069 19.4075C12.032 19.4075 12.8127 18.6268 12.8127 17.6638C12.8127 16.7007 12.032 15.92 11.069 15.92ZM7.8252 17.6638C7.8252 15.8723 9.27748 14.42 11.069 14.42C12.8604 14.42 14.3127 15.8723 14.3127 17.6638C14.3127 18.2878 14.1365 18.8706 13.8311 19.3653L14.3555 19.8897C14.6484 20.1826 14.6484 20.6574 14.3555 20.9503C14.0626 21.2432 13.5878 21.2432 13.2949 20.9503L12.7705 20.4259C12.2758 20.7313 11.693 20.9075 11.069 20.9075C9.27748 20.9075 7.8252 19.4552 7.8252 17.6638Z" fill="currentColor"/>
</svg>
