<svg viewBox="0 0 24 24" fill="none" xmlns="http://www.w3.org/2000/svg">
<path fill-rule="evenodd" clip-rule="evenodd" d="M7.29658 4.57985C9.21941 3.08506 11.9991 2.67418 14.2516 3.76823C15.8504 4.54475 17.1169 6.048 17.6253 8.30506C18.5563 8.52033 19.3612 8.97151 20.0097 9.57334C22.2362 11.6397 22.6699 15.5903 20.0453 17.8908C19.0012 18.8372 17.6402 19.3649 16.224 19.3551L6.10288 19.3643C6.08494 19.3643 6.06702 19.3637 6.04913 19.3624C1.17212 19.0165 0.856873 12.2845 5.18111 11.1838C4.46319 8.30996 5.49658 5.97915 7.29658 4.57985ZM6.13469 12.5439C6.5432 12.5403 6.95611 12.6389 7.3301 12.8293C7.69922 13.0173 8.15081 12.8704 8.33877 12.5013C8.52672 12.1322 8.37986 11.6806 8.01074 11.4926C7.60237 11.2847 7.16074 11.145 6.70709 11.082C5.99832 8.64726 6.84284 6.83252 8.2172 5.7641C9.72735 4.59012 11.8999 4.29359 13.5963 5.11751C14.6836 5.64562 15.6333 6.66119 16.0865 8.3299C15.7695 8.40644 15.4619 8.51936 15.1671 8.66672C14.7965 8.85189 14.6463 9.30237 14.8315 9.67288C15.0166 10.0434 15.4671 10.1937 15.8376 10.0085C16.2069 9.82394 16.5997 9.72401 17.0058 9.71238C17.7927 9.83376 18.4602 10.1818 18.9893 10.6728C20.6772 12.2393 20.9028 15.1488 19.0526 16.7663L19.0418 16.7759C18.2716 17.4758 17.27 17.8629 16.2319 17.8551L6.12973 17.8643C2.81601 17.6047 2.83025 12.7976 6.13469 12.5439Z" fill="currentColor"/>
</svg>
