<svg viewBox="0 0 24 24" fill="none" xmlns="http://www.w3.org/2000/svg">
<path fill-rule="evenodd" clip-rule="evenodd" d="M16.0864 8.32993C15.7695 8.40648 15.4619 8.5194 15.167 8.66675C14.7965 8.85192 14.6462 9.3024 14.8314 9.67292C15.0166 10.0434 15.4671 10.1937 15.8376 10.0085C16.2068 9.82399 16.5995 9.72407 17.0056 9.71242C20.2331 10.2116 21.5367 14.5947 19.0525 16.7663L19.0418 16.7759C18.3289 17.4237 17.4178 17.8035 16.4632 17.8504C16.0495 17.8707 15.7306 18.2225 15.7509 18.6362C15.7712 19.0499 16.123 19.3689 16.5367 19.3486C17.8396 19.2846 19.0783 18.7673 20.0453 17.8908C23.3822 14.9659 21.8159 9.26963 17.6252 8.3048C17.1629 6.25239 16.073 4.8194 14.6672 3.99112C13.162 3.10427 11.3672 2.95324 9.75065 3.37684C8.13408 3.80044 6.64248 4.81258 5.76073 6.32244C4.98451 7.65161 4.713 9.31184 5.18154 11.1857C3.21687 11.6943 2.1991 13.3918 2.1521 15.0768C2.09896 16.9815 3.28665 18.9972 5.72795 19.3294C6.13838 19.3852 6.51637 19.0977 6.57221 18.6873C6.62805 18.2769 6.34059 17.8989 5.93016 17.8431C4.38172 17.6324 3.61576 16.4002 3.65151 15.1186C3.68676 13.8552 4.50077 12.669 6.13461 12.544C6.54313 12.5403 6.95605 12.6389 7.33006 12.8293C7.69918 13.0173 8.15077 12.8704 8.33872 12.5013C8.52668 12.1322 8.37981 11.6806 8.0107 11.4927C7.60232 11.2847 7.1607 11.145 6.70704 11.0821C6.22825 9.43728 6.46365 8.09324 7.05603 7.07889C7.71184 5.95591 8.84828 5.16394 10.1309 4.82785C11.4135 4.49176 12.7889 4.62547 13.9058 5.28349C14.8571 5.844 15.6754 6.8169 16.0864 8.32993ZM11.1 15.7501C10.0397 15.7501 9.16179 16.4719 8.91764 17.4472C8.81705 17.849 8.40978 18.0932 8.00796 17.9926C7.60615 17.892 7.36195 17.4848 7.46254 17.0829C7.86975 15.4562 9.33506 14.2501 11.1 14.2501C12.0515 14.2501 12.816 14.5606 13.3881 14.9315C13.4871 14.6333 13.7684 14.4181 14.1 14.4181C14.5142 14.4181 14.85 14.7539 14.85 15.1681V16.6681C14.85 17.0824 14.5142 17.4181 14.1 17.4181H12.768C12.3538 17.4181 12.018 17.0824 12.018 16.6681C12.018 16.4137 12.1446 16.1889 12.3383 16.0533C11.9988 15.876 11.587 15.7501 11.1 15.7501ZM14.1925 17.987C14.5948 18.0856 14.841 18.4916 14.7425 18.8939C14.3412 20.5324 12.8632 21.7501 11.1 21.7501C10.3015 21.7501 9.63711 21.4557 9.1303 21.1088C9.0202 21.3861 8.74948 21.5821 8.43297 21.5821C8.01876 21.5821 7.68297 21.2464 7.68297 20.8321V19.3321C7.68297 18.9179 8.01876 18.5821 8.43297 18.5821H9.78897C10.2032 18.5821 10.539 18.9179 10.539 19.3321C10.539 19.6119 10.3858 19.8559 10.1587 19.9848C10.441 20.1455 10.7571 20.2501 11.1 20.2501C12.1558 20.2501 13.0447 19.5205 13.2856 18.5371C13.3841 18.1347 13.7901 17.8885 14.1925 17.987Z" fill="currentColor"/>
</svg>
