<svg viewBox="0 0 24 24" fill="none" xmlns="http://www.w3.org/2000/svg">
<path fill-rule="evenodd" clip-rule="evenodd" d="M16.0865 8.32993C15.7695 8.40648 15.4619 8.5194 15.1671 8.66675C14.7965 8.85192 14.6463 9.3024 14.8315 9.67292C15.0166 10.0434 15.4671 10.1937 15.8376 10.0085C16.2068 9.82399 16.5996 9.72407 17.0056 9.71242C20.2332 10.2116 21.5367 14.5947 19.0526 16.7663L19.0418 16.7759C18.2716 17.4758 17.27 17.8629 16.2319 17.8552C15.8177 17.8521 15.4794 18.1854 15.4763 18.5996C15.4732 19.0138 15.8065 19.352 16.2207 19.3551C17.6381 19.3657 19.0004 18.8379 20.0453 17.8908C23.3823 14.9659 21.816 9.26963 17.6252 8.3048C17.1629 6.25239 16.073 4.8194 14.6672 3.99112C13.162 3.10427 11.3672 2.95324 9.75069 3.37684C8.13413 3.80044 6.64253 4.81258 5.76077 6.32244C4.9848 7.65117 4.71323 9.31075 5.18112 11.1839C0.856872 12.2845 1.17212 19.0165 6.04913 19.3625C6.4623 19.3918 6.82101 19.0806 6.85032 18.6674C6.87962 18.2542 6.56844 17.8955 6.15526 17.8662C2.81596 17.6293 2.82179 12.7983 6.13469 12.544C6.5432 12.5404 6.95611 12.6389 7.3301 12.8293C7.69922 13.0173 8.15081 12.8704 8.33877 12.5013C8.52672 12.1322 8.37986 11.6806 8.01074 11.4927C7.60237 11.2847 7.16075 11.145 6.70709 11.0821C6.2283 9.43728 6.4637 8.09324 7.05607 7.07889C7.71188 5.95591 8.84832 5.16394 10.1309 4.82785C11.4135 4.49176 12.789 4.62547 13.9058 5.28349C14.8571 5.844 15.6755 6.8169 16.0865 8.32993ZM10.6289 14.6027C10.9218 14.31 11.3965 14.31 11.6894 14.6027L13.1423 16.055C13.4352 16.3479 13.4353 16.8227 13.1425 17.1157C12.8496 17.4086 12.3748 17.4087 12.0818 17.1159L11.9091 16.9433V20.0667C11.9091 20.4809 11.5733 20.8167 11.1591 20.8167C10.7449 20.8167 10.4091 20.4809 10.4091 20.0667V16.9431L10.2363 17.1159C9.94328 17.4087 9.46841 17.4086 9.17559 17.1156C8.88278 16.8227 8.8829 16.3478 9.17587 16.055L10.6289 14.6027Z" fill="currentColor"/>
</svg>
