<svg xmlns="http://www.w3.org/2000/svg" fill="none" viewBox="0 0 24 24">
  <path fill="currentColor" fill-rule="evenodd"
    d="M13.49 5.17c-.38-1.56-2.6-1.56-2.98 0a1.534 1.534 0 0 1-2.286.948c-1.372-.836-2.942.734-2.106 2.106.54.886.06 2.042-.947 2.287-1.561.379-1.561 2.6 0 2.978a1.532 1.532 0 0 1 .947 2.287c-.836 1.372.734 2.942 2.106 2.106a1.533 1.533 0 0 1 2.287.947c.379 1.561 2.6 1.561 2.978 0a1.53 1.53 0 0 1 1.608-1.166c.24.018.473.093.679.219 1.372.836 2.942-.734 2.106-2.106a1.533 1.533 0 0 1 .947-2.287c1.56-.379 1.56-2.6 0-2.978a1.532 1.532 0 0 1-.947-2.287c.836-1.372-.734-2.942-2.106-2.106a1.532 1.532 0 0 1-2.287-.947V5.17ZM12 15a3 3 0 1 0 0-6 3 3 0 0 0 0 6Z"
    clip-rule="evenodd" />
</svg>
