<svg viewBox="0 0 24 24" fill="none" xmlns="http://www.w3.org/2000/svg">
<path fill-rule="evenodd" clip-rule="evenodd" d="M13.5029 4.75C11.5801 4.75 9.88804 5.17975 8.69211 5.84405L8.69176 5.84424C7.47862 6.51727 6.94043 7.32636 6.94043 8.04489C6.94043 8.4645 7.11775 8.88769 7.50764 9.29369L7.50898 9.29509C8.50705 10.3398 10.7338 11.125 13.5029 11.125C16.2721 11.125 18.4988 10.3398 19.4969 9.29509L19.4982 9.29369C19.8881 8.88769 20.0654 8.4645 20.0654 8.04489C20.0654 7.3266 19.5278 6.51774 18.3139 5.83699C17.1166 5.17908 15.4242 4.75 13.5029 4.75ZM20.0654 10.7977C18.5651 11.9781 16.122 12.625 13.5029 12.625C10.8839 12.625 8.44072 11.9781 6.94043 10.7977V11.4199C6.94043 11.8395 7.11775 12.2627 7.50764 12.6687L7.50898 12.6701C8.50705 13.7148 10.7338 14.5 13.5029 14.5C13.9034 14.5 14.2953 14.4834 14.6758 14.4515C15.7544 14.3609 16.7335 14.1474 17.5544 13.8426C18.4177 13.5221 19.0739 13.1128 19.4969 12.6701L19.4982 12.6687C19.8881 12.2627 20.0654 11.8395 20.0654 11.4199V10.7977ZM5.44043 8.28829V8.04489C5.44043 6.52978 6.54472 5.32 7.96408 4.53257C9.42311 3.72222 11.3759 3.25 13.5029 3.25C15.6303 3.25 17.5819 3.72236 19.0394 4.52411L19.0445 4.52691L19.0445 4.52693C20.4613 5.32066 21.5654 6.53004 21.5654 8.04489V11.4199C21.5654 12.3029 21.1805 13.0822 20.5808 13.707C20.0589 14.253 19.3638 14.7015 18.5654 15.0514V15.4199C18.5654 16.3029 18.1805 17.0822 17.5808 17.707C16.1712 19.1818 13.4483 20 10.5029 20C7.55753 20 4.83461 19.1818 3.425 17.7069C2.82531 17.0821 2.44043 16.3029 2.44043 15.4199V12.0449C2.44043 10.5298 3.54472 9.32 4.96408 8.53257C5.11779 8.44721 5.27671 8.36574 5.44043 8.28829ZM3.94043 14.7977V15.4199C3.94043 15.8395 4.11775 16.2627 4.50764 16.6687L4.50898 16.6701C5.50705 17.7148 7.73376 18.5 10.5029 18.5C13.2721 18.5 15.4988 17.7148 16.4969 16.6701L16.4982 16.6687C16.8422 16.3105 17.0207 15.9389 17.058 15.5681C16.3835 15.7442 15.6578 15.8689 14.8993 15.9377C13.6294 16.3817 12.1147 16.625 10.5029 16.625C7.88387 16.625 5.44072 15.9781 3.94043 14.7977ZM8.16593 14.9255C6.50325 14.6282 5.20627 14.025 4.50898 13.2951L4.50764 13.2937C4.11775 12.8877 3.94043 12.4645 3.94043 12.0449C3.94043 11.378 4.40399 10.6332 5.44043 9.99149V11.4199C5.44043 12.3029 5.82531 13.0821 6.42501 13.7069C6.88047 14.1835 7.47304 14.5915 8.16593 14.9255Z" fill="currentColor"/>
</svg>
