<svg viewBox="0 0 24 24" fill="none" xmlns="http://www.w3.org/2000/svg">
<path fill-rule="evenodd" clip-rule="evenodd" d="M2.25 12C2.25 6.63579 6.63579 2.25 12 2.25C17.3642 2.25 21.75 6.63579 21.75 12C21.75 17.3642 17.3642 21.75 12 21.75C6.63579 21.75 2.25 17.3642 2.25 12ZM12 3.75C7.46421 3.75 3.75 7.46421 3.75 12C3.75 16.5358 7.46421 20.25 12 20.25C16.5358 20.25 20.25 16.5358 20.25 12C20.25 7.46421 16.5358 3.75 12 3.75ZM14.6499 9.39356L12.001 10.582C11.4189 10.9032 10.9204 11.4025 10.5998 11.9856L9.32941 14.7505L12.051 13.4476C12.6357 13.1269 13.1366 12.6268 13.4586 12.0422L14.6499 9.39356ZM16.2395 9.51596C16.366 9.27723 16.4641 9.02133 16.4938 8.76421C16.524 8.50206 16.4904 8.12932 16.201 7.84063C15.9118 7.55209 15.5392 7.51922 15.2774 7.54982C15.0209 7.57981 14.7657 7.67789 14.5277 7.80429L11.3602 9.22542C11.3432 9.23306 11.3264 9.24133 11.31 9.25022C10.4548 9.71342 9.73217 10.4366 9.26933 11.2923C9.26159 11.3066 9.25431 11.3212 9.24752 11.336L7.76226 14.5685C7.6311 14.8158 7.5336 15.0824 7.51079 15.3521C7.48715 15.6317 7.54243 15.9899 7.81961 16.267C8.0968 16.5441 8.45502 16.5992 8.73462 16.5754C9.00625 16.5523 9.27472 16.4534 9.52331 16.3207L12.7165 14.792C12.7277 14.7866 12.7388 14.781 12.7498 14.775C13.6051 14.3118 14.3276 13.5887 14.7905 12.7329C14.7992 12.7168 14.8073 12.7004 14.8148 12.6838L16.2395 9.51596Z" fill="currentColor"/>
</svg>
