<svg viewBox="0 0 24 24" fill="none" xmlns="http://www.w3.org/2000/svg">
<path fill-rule="evenodd" clip-rule="evenodd" d="M4.3302 4.3302C3.96895 4.69146 3.75 5.39357 3.75 6.996V12.15H20.25V6.996C20.25 5.3935 20.031 4.69186 19.6692 4.3307C19.3068 3.96904 18.6023 3.75 16.995 3.75H6.996C5.39357 3.75 4.69146 3.96895 4.3302 4.3302ZM21.7493 12.8663C21.7498 12.8089 21.75 12.7512 21.75 12.693V6.996C21.75 5.4035 21.5685 4.10714 20.7288 3.26905C19.8897 2.43146 18.5917 2.25 16.995 2.25H6.996C5.40343 2.25 4.10754 2.43155 3.26954 3.26954C2.43155 4.10754 2.25 5.40343 2.25 6.996V12.702C2.25 12.7576 2.25022 12.8128 2.25068 12.8677C2.25023 12.8784 2.25 12.8892 2.25 12.9C2.25 12.9163 2.25052 12.9325 2.25155 12.9485C2.2707 14.4281 2.47512 15.6344 3.27004 16.4278C4.10872 17.2649 5.40509 17.4434 6.99709 17.439H11.25V20.25H7.95C7.53579 20.25 7.2 20.5858 7.2 21C7.2 21.4142 7.53579 21.75 7.95 21.75H11.9983C11.9989 21.75 11.9994 21.75 12 21.75C12.0006 21.75 12.0011 21.75 12.0017 21.75H16.05C16.4642 21.75 16.8 21.4142 16.8 21C16.8 20.5858 16.4642 20.25 16.05 20.25H12.75V17.439H17.004C18.5951 17.439 19.8916 17.2601 20.73 16.4233C21.5231 15.6317 21.7283 14.429 21.7483 12.9507C21.7494 12.9339 21.75 12.917 21.75 12.9C21.75 12.8887 21.7497 12.8775 21.7493 12.8663ZM20.2174 13.65H3.78213C3.8553 14.602 4.0499 15.0869 4.32971 15.3662C4.6901 15.7259 5.39135 15.9435 6.99389 15.939L6.996 15.939L17.004 15.939C18.6079 15.939 19.3094 15.7219 19.6703 15.3617C19.9494 15.0831 20.1438 14.5999 20.2174 13.65Z" fill="currentColor"/>
</svg>
