<svg  viewBox="0 0 24 24" fill="none" xmlns="http://www.w3.org/2000/svg">
<path fill-rule="evenodd" clip-rule="evenodd" d="M3.49342 3.49342C4.41164 2.5752 5.76103 2.25 7.41 2.25H11.19C12.839 2.25 14.1884 2.5752 15.1066 3.49342C16.0248 4.41164 16.35 5.76103 16.35 7.41V7.65H16.59C18.239 7.65 19.5884 7.9752 20.5066 8.89342C21.4248 9.81164 21.75 11.161 21.75 12.81V16.59C21.75 18.239 21.4248 19.5884 20.5066 20.5066C19.5884 21.4248 18.239 21.75 16.59 21.75H12.81C11.161 21.75 9.81164 21.4248 8.89342 20.5066C7.9752 19.5884 7.65 18.239 7.65 16.59V16.35H7.41C5.76103 16.35 4.41164 16.0248 3.49342 15.1066C2.5752 14.1884 2.25 12.839 2.25 11.19V7.41C2.25 5.76103 2.5752 4.41164 3.49342 3.49342ZM11.19 14.85C12.691 14.85 13.5466 14.5452 14.0459 14.0459C14.5452 13.5466 14.85 12.691 14.85 11.19V7.41C14.85 5.90897 14.5452 5.05336 14.0459 4.55408C13.5466 4.0548 12.691 3.75 11.19 3.75H7.41C5.90897 3.75 5.05336 4.0548 4.55408 4.55408C4.0548 5.05336 3.75 5.90897 3.75 7.41V11.19C3.75 12.691 4.0548 13.5466 4.55408 14.0459C5.05336 14.5452 5.90897 14.85 7.41 14.85H11.19ZM11.19 16.35H9.15V16.59C9.15 18.091 9.4548 18.9466 9.95408 19.4459C10.4534 19.9452 11.309 20.25 12.81 20.25H16.59C18.091 20.25 18.9466 19.9452 19.4459 19.4459C19.9452 18.9466 20.25 18.091 20.25 16.59V12.81C20.25 11.309 19.9452 10.4534 19.4459 9.95408C18.9466 9.4548 18.091 9.15 16.59 9.15H16.35V11.19C16.35 12.839 16.0248 14.1884 15.1066 15.1066C14.1884 16.0248 12.839 16.35 11.19 16.35Z" fill="currentColor"/>
</svg>
