<svg  viewBox="0 0 24 24" fill="none" xmlns="http://www.w3.org/2000/svg">
<path fill-rule="evenodd" clip-rule="evenodd" d="M8.40879 2.25C8.823 2.25 9.15879 2.58579 9.15879 3V4.06768C9.38004 4.05571 9.60719 4.05 9.84 4.05H11.25V3C11.25 2.58579 11.5858 2.25 12 2.25C12.4142 2.25 12.75 2.58579 12.75 3V4.05H14.16C14.3959 4.05 14.626 4.05587 14.85 4.06816V3C14.85 2.58579 15.1858 2.25 15.6 2.25C16.0142 2.25 16.35 2.58579 16.35 3V4.27413C17.2318 4.48442 17.9761 4.85543 18.5603 5.43967C19.1446 6.02391 19.5156 6.76824 19.7259 7.65H21C21.4142 7.65 21.75 7.98579 21.75 8.4C21.75 8.81421 21.4142 9.15 21 9.15H19.9318C19.9441 9.37402 19.95 9.6041 19.95 9.84V11.25H21C21.4142 11.25 21.75 11.5858 21.75 12C21.75 12.4142 21.4142 12.75 21 12.75H19.95V14.16C19.95 14.3959 19.9441 14.626 19.9318 14.85H21C21.4142 14.85 21.75 15.1858 21.75 15.6C21.75 16.0142 21.4142 16.35 21 16.35H19.7259C19.5156 17.2318 19.1446 17.9761 18.5603 18.5603C17.9761 19.1446 17.2318 19.5156 16.35 19.7259V21C16.35 21.4142 16.0142 21.75 15.6 21.75C15.1858 21.75 14.85 21.4142 14.85 21V19.9318C14.626 19.9441 14.3959 19.95 14.16 19.95H12.7588V21C12.7588 21.4142 12.423 21.75 12.0088 21.75C11.5946 21.75 11.2588 21.4142 11.2588 21V19.95H9.84C9.60719 19.95 9.38004 19.9443 9.15879 19.9323V21C9.15879 21.4142 8.823 21.75 8.40879 21.75C7.99458 21.75 7.65879 21.4142 7.65879 21V19.728C6.77319 19.518 6.02585 19.1465 5.43967 18.5603C4.85543 17.9761 4.48442 17.2318 4.27413 16.35H3C2.58579 16.35 2.25 16.0142 2.25 15.6C2.25 15.1858 2.58579 14.85 3 14.85H4.06816C4.05587 14.626 4.05 14.3959 4.05 14.16V12.75H3C2.58579 12.75 2.25 12.4142 2.25 12C2.25 11.5858 2.58579 11.25 3 11.25H4.05V9.84C4.05 9.6041 4.05587 9.37402 4.06816 9.15H3C2.58579 9.15 2.25 8.81421 2.25 8.4C2.25 7.98579 2.58579 7.65 3 7.65H4.27413C4.48442 6.76824 4.85543 6.02391 5.43967 5.43967C6.02585 4.85349 6.77319 4.48196 7.65879 4.27204V3C7.65879 2.58579 7.99458 2.25 8.40879 2.25ZM5.55 14.16C5.55 15.886 5.8998 16.8991 6.50033 17.4997C7.10086 18.1002 8.11397 18.45 9.84 18.45H14.16C15.886 18.45 16.8991 18.1002 17.4997 17.4997C18.1002 16.8991 18.45 15.886 18.45 14.16V9.84C18.45 8.11397 18.1002 7.10086 17.4997 6.50033C16.8991 5.8998 15.886 5.55 14.16 5.55H9.84C8.11397 5.55 7.10086 5.8998 6.50033 6.50033C5.8998 7.10086 5.55 8.11397 5.55 9.84V14.16ZM7.70092 7.70092C8.41664 6.9852 9.45103 6.75 10.65 6.75H13.35C14.549 6.75 15.5834 6.9852 16.2991 7.70092C17.0148 8.41664 17.25 9.45103 17.25 10.65V13.35C17.25 14.549 17.0148 15.5834 16.2991 16.2991C15.5834 17.0148 14.549 17.25 13.35 17.25H10.65C9.45103 17.25 8.41664 17.0148 7.70092 16.2991C6.9852 15.5834 6.75 14.549 6.75 13.35V10.65C6.75 9.45103 6.9852 8.41664 7.70092 7.70092ZM8.76158 8.76158C8.4648 9.05836 8.25 9.59897 8.25 10.65V13.35C8.25 14.401 8.4648 14.9416 8.76158 15.2384C9.05836 15.5352 9.59897 15.75 10.65 15.75H13.35C14.401 15.75 14.9416 15.5352 15.2384 15.2384C15.5352 14.9416 15.75 14.401 15.75 13.35V10.65C15.75 9.59897 15.5352 9.05836 15.2384 8.76158C14.9416 8.4648 14.401 8.25 13.35 8.25H10.65C9.59897 8.25 9.05836 8.4648 8.76158 8.76158Z" fill="currentColor"/>
</svg>
