<svg viewBox="0 0 24 24" fill="none" xmlns="http://www.w3.org/2000/svg">
<path fill-rule="evenodd" clip-rule="evenodd" d="M4.7005 3.31168C5.87193 2.55083 7.41866 2.25 9.30023 2.25H14.7002C16.5818 2.25 18.1285 2.55083 19.3 3.31168C20.502 4.0924 21.2061 5.28884 21.5292 6.84782C21.6132 7.25342 21.3525 7.65036 20.9469 7.7344C20.5413 7.81844 20.1444 7.55777 20.0604 7.15218C19.798 5.88625 19.2728 5.08269 18.4829 4.56964C17.6624 4.03671 16.4546 3.75 14.7002 3.75H9.30023C7.5459 3.75 6.33805 4.03671 5.51754 4.56964C4.72762 5.08269 4.20243 5.88625 3.94012 7.15218C3.85607 7.55777 3.45914 7.81844 3.05354 7.7344C2.64794 7.65036 2.38727 7.25342 2.47132 6.84782C2.79436 5.28884 3.49847 4.0924 4.7005 3.31168ZM12.293 10.1185C12.0719 10.1069 11.8986 10.1365 11.7601 10.1895C11.6183 10.2445 11.5297 10.3131 11.4692 10.3857C11.4257 10.4399 11.3985 10.5022 11.3934 10.6C11.3864 10.7343 11.4178 10.8022 11.4603 10.8545C11.5099 10.9114 11.6445 11.0156 11.9638 11.1093L12.6914 11.3205C13.1651 11.4593 13.6096 11.6813 13.92 12.0472L13.9248 12.0528C14.2353 12.4261 14.3636 12.8757 14.3389 13.3481C14.318 13.7475 14.1827 14.1182 13.9273 14.4322L13.9242 14.436C13.6811 14.7308 13.3695 14.9419 13.015 15.0792L13.013 15.08C12.6497 15.2195 12.2619 15.2699 11.8628 15.249C11.3245 15.2208 10.8069 15.0758 10.4015 14.7293C10.1577 14.5218 9.96388 14.2715 9.82471 13.9832C9.64466 13.6101 9.8011 13.1618 10.1741 12.9817C10.5472 12.8016 10.9955 12.9581 11.1756 13.3311C11.2236 13.4307 11.2882 13.5143 11.3739 13.5871L11.376 13.5889C11.4485 13.6511 11.6064 13.7335 11.9413 13.751C12.1625 13.7626 12.3358 13.7331 12.4743 13.6801C12.616 13.625 12.7047 13.5564 12.7651 13.4838C12.8087 13.4296 12.8358 13.3673 12.8409 13.2696C12.848 13.1353 12.8166 13.0673 12.7741 13.0151C12.7244 12.9582 12.5898 12.854 12.2705 12.7603L11.5447 12.5495L11.5429 12.549C11.0692 12.4102 10.6248 12.1882 10.3143 11.8223L10.3096 11.8167C9.99908 11.4435 9.87072 10.9938 9.89547 10.5215C9.9164 10.1221 10.0517 9.75135 10.3071 9.43735L10.3102 9.43357C10.5532 9.13873 10.8649 8.92761 11.2194 8.79032L11.2214 8.78953C11.5847 8.65005 11.9725 8.59966 12.3715 8.62058C12.9099 8.64879 13.4275 8.7937 13.8329 9.14026C14.0497 9.32476 14.2277 9.54382 14.3627 9.79449C14.5592 10.1592 14.4228 10.614 14.0582 10.8105C13.6935 11.0069 13.2386 10.8706 13.0422 10.5059C12.9966 10.4213 12.9374 10.3477 12.8605 10.2824L12.8584 10.2806C12.7858 10.2185 12.628 10.1361 12.293 10.1185ZM3.05354 16.2656C3.45914 16.1816 3.85607 16.4422 3.94012 16.8478C4.20243 18.1137 4.72762 18.9173 5.51754 19.4304C6.33805 19.9633 7.5459 20.25 9.30023 20.25H14.7002C16.4546 20.25 17.6624 19.9633 18.4829 19.4304C19.2728 18.9173 19.798 18.1137 20.0604 16.8478C20.1444 16.4422 20.5413 16.1816 20.9469 16.2656C21.3525 16.3496 21.6132 16.7466 21.5292 17.1522C21.2061 18.7112 20.502 19.9076 19.3 20.6883C18.1285 21.4492 16.5818 21.75 14.7002 21.75H9.30023C7.41866 21.75 5.87193 21.4492 4.7005 20.6883C3.49847 19.9076 2.79435 18.7112 2.47132 17.1522C2.38727 16.7466 2.64794 16.3496 3.05354 16.2656Z" fill="currentColor"/>
<path d="M4.2002 12.3094V11.6156C4.2002 9.77344 5.21738 8.67188 6.97988 8.67188C7.81426 8.67188 8.55488 8.925 9.01426 9.37031C9.32363 9.67031 9.51113 10.0359 9.51113 10.3266C9.51113 10.7016 9.25332 10.95 8.87832 10.95C8.62988 10.95 8.44707 10.8563 8.20332 10.6078C7.85176 10.1766 7.52363 9.97969 7.07363 9.97969C6.22988 9.97969 5.75176 10.6031 5.75176 11.6859V12.2391C5.75176 13.3922 6.22051 14.0156 7.07363 14.0156C7.52832 14.0156 7.89395 13.8188 8.22676 13.3969C8.4752 13.1391 8.64395 13.05 8.88301 13.05C9.2627 13.05 9.52051 13.3031 9.52051 13.6734C9.52051 14.0438 9.26738 14.4563 8.85957 14.7609C8.4002 15.1172 7.75332 15.3281 6.97988 15.3281C5.18926 15.3281 4.2002 14.2312 4.2002 12.3094Z" fill="currentColor"/>
<path d="M17.6686 13.5282L18.8639 9.49697C19.0139 8.95322 19.2436 8.73291 19.6561 8.73291C20.1014 8.73291 20.4154 9.00947 20.4154 9.41728C20.4154 9.57197 20.3639 9.81104 20.2936 10.0313L18.9107 14.1423C18.6623 14.911 18.2873 15.2345 17.617 15.2345C16.9373 15.2345 16.5482 14.9063 16.3045 14.1423L14.9217 10.0313C14.842 9.79697 14.7998 9.58135 14.7998 9.43135C14.7998 9.01885 15.1186 8.73291 15.5639 8.73291C15.9623 8.73291 16.2201 8.98135 16.3748 9.49697L17.5982 13.5282H17.6686Z" fill="currentColor"/>
</svg>
