<svg viewBox="0 0 24 24" fill="none" xmlns="http://www.w3.org/2000/svg">
<path fill-rule="evenodd" clip-rule="evenodd" d="M4.8 4C3.80589 4 3 4.79594 3 5.77778V18.2222C3 19.2041 3.80589 20 4.8 20H19.2C20.1941 20 21 19.2041 21 18.2222V5.77778C21 4.79594 20.1941 4 19.2 4H4.8ZM6 10H18C18 10 19 10.1111 19 11C19 11.8889 18 12 18 12H6.11369C6.11369 12 5 11.8889 5 11C5 10.1111 6 10 6 10ZM8 7C8 7.55228 8.44772 8 9 8C9.55228 8 10 7.55228 10 7C10 6.44772 9.55228 6 9 6C8.44772 6 8 6.44772 8 7ZM6 8C5.44772 8 5 7.55228 5 7C5 6.44772 5.44772 6 6 6C6.55228 6 7 6.44772 7 7C7 7.55228 6.55228 8 6 8Z" fill="currentColor"/>
</svg>
