<svg viewBox="0 0 24 24" fill="none" xmlns="http://www.w3.org/2000/svg">
<path fill-rule="evenodd" clip-rule="evenodd" d="M12.002 5.25C7.4456 5.25 3.75195 8.94365 3.75195 13.5C3.75195 14.6148 3.87391 16.0379 4.19593 17.157C4.35799 17.7202 4.55517 18.1502 4.76975 18.4247C4.97331 18.6851 5.14259 18.7499 5.29358 18.7499H18.7103C18.8598 18.7499 19.0286 18.6857 19.2324 18.4249C19.447 18.1502 19.6443 17.72 19.8066 17.1567C20.1291 16.0375 20.252 14.6144 20.252 13.5C20.252 8.94365 16.5583 5.25 12.002 5.25ZM2.25195 13.5C2.25195 8.11522 6.61718 3.75 12.002 3.75C17.3867 3.75 21.752 8.11522 21.752 13.5C21.752 14.6907 21.6238 16.2675 21.2479 17.572C21.0611 18.2206 20.7973 18.8582 20.4145 19.3483C20.0207 19.8523 19.4557 20.2499 18.7103 20.2499H5.29358C4.54778 20.2499 3.98221 19.8529 3.58794 19.3485C3.2047 18.8582 2.94107 18.2204 2.75442 17.5718C2.37902 16.2671 2.25195 14.6902 2.25195 13.5Z" fill="currentColor"/>
<path d="M6.5 16C7.05228 16 7.5 15.5523 7.5 15C7.5 14.4477 7.05228 14 6.5 14C5.94772 14 5.5 14.4477 5.5 15C5.5 15.5523 5.94772 16 6.5 16Z" fill="currentColor"/>
<path d="M11.5 9C12.0523 9 12.5 8.55228 12.5 8C12.5 7.44772 12.0523 7 11.5 7C10.9477 7 10.5 7.44772 10.5 8C10.5 8.55228 10.9477 9 11.5 9Z" fill="currentColor"/>
<path d="M17.5 16C18.0523 16 18.5 15.5523 18.5 15C18.5 14.4477 18.0523 14 17.5 14C16.9477 14 16.5 14.4477 16.5 15C16.5 15.5523 16.9477 16 17.5 16Z" fill="currentColor"/>
<path fill-rule="evenodd" clip-rule="evenodd" d="M16.0303 8.96967C16.3232 9.26256 16.3232 9.73744 16.0303 10.0303L13.6487 12.4119C13.7143 12.5957 13.75 12.7937 13.75 13C13.75 13.9665 12.9665 14.75 12 14.75C11.0335 14.75 10.25 13.9665 10.25 13C10.25 12.0335 11.0335 11.25 12 11.25C12.2063 11.25 12.4043 11.2857 12.5881 11.3513L14.9697 8.96967C15.2626 8.67678 15.7374 8.67678 16.0303 8.96967Z" fill="currentColor"/>
</svg>
