<svg viewBox="0 0 24 24" fill="none" xmlns="http://www.w3.org/2000/svg">
<path fill-rule="evenodd" clip-rule="evenodd" d="M8.30544 4.07595C8.13174 4.24965 7.97949 4.57026 7.97949 5.17798V18.8219C7.97949 19.4296 8.13174 19.7503 8.30544 19.924C8.47914 20.0977 8.79976 20.2499 9.40748 20.2499H14.6635C15.2712 20.2499 15.5884 20.0977 15.7594 19.9256C15.9313 19.7527 16.0825 19.432 16.0825 18.8219V14.0261C16.0822 14.0175 16.082 14.0087 16.082 14C16.082 13.9913 16.0822 13.9825 16.0825 13.9739V12.0261C16.0822 12.0175 16.082 12.0087 16.082 12C16.082 11.9913 16.0822 11.9825 16.0825 11.9739V5.17798C16.0825 4.56791 15.9313 4.24724 15.7594 4.0743C15.5884 3.9022 15.2712 3.75 14.6635 3.75H9.40748C8.79976 3.75 8.47914 3.90225 8.30544 4.07595ZM17.5825 10.75H18C18.4142 10.75 18.75 10.4142 18.75 10C18.75 9.58579 18.4142 9.25 18 9.25H17.5825V7.34998H18.8344C19.4421 7.34998 19.7593 7.50218 19.9303 7.67427C20.1022 7.84722 20.2534 8.16789 20.2534 8.77796V18.822C20.2534 19.4321 20.1022 19.7527 19.9303 19.9257C19.7593 20.0978 19.4421 20.25 18.8344 20.25H17.3174C17.5043 19.8224 17.5825 19.3354 17.5825 18.8219V14.75H17.9996C18.4138 14.75 18.7496 14.4142 18.7496 14C18.7496 13.5858 18.4138 13.25 17.9996 13.25H17.5825V12.75H17.9996C18.4138 12.75 18.7496 12.4142 18.7496 12C18.7496 11.5858 18.4138 11.25 17.9996 11.25H17.5825V10.75ZM15.3154 21.7026C15.1051 21.7349 14.8869 21.7499 14.6635 21.7499H9.40748C9.16938 21.7499 8.93713 21.7329 8.71394 21.696C8.62745 21.7308 8.53297 21.75 8.43401 21.75H5.17799C4.33671 21.75 3.56833 21.5377 3.01529 20.9847C2.46224 20.4316 2.25 19.6633 2.25 18.822V8.77796C2.25 7.93668 2.46224 7.16831 3.01529 6.61526C3.56833 6.06222 4.33671 5.84998 5.17799 5.84998H6.47949V5.17798C6.47949 4.3367 6.69174 3.56833 7.24478 3.01529C7.79782 2.46224 8.5662 2.25 9.40748 2.25H14.6635C15.5048 2.25 16.2721 2.46229 16.8233 3.01694C17.3737 3.57073 17.5825 4.33906 17.5825 5.17798V5.84998H18.8344C19.6757 5.84998 20.443 6.06226 20.9942 6.61691C21.5446 7.17071 21.7534 7.93903 21.7534 8.77796V18.822C21.7534 19.6609 21.5446 20.4292 20.9942 20.983C20.443 21.5377 19.6757 21.75 18.8344 21.75H15.5784C15.4858 21.75 15.3972 21.7332 15.3154 21.7026ZM6.47949 7.34998H5.17799C4.57026 7.34998 4.24965 7.50222 4.07595 7.67592C3.90225 7.84962 3.75 8.17024 3.75 8.77796V18.822C3.75 19.4297 3.90225 19.7503 4.07595 19.924C4.24965 20.0977 4.57026 20.25 5.17799 20.25H6.74658C6.55874 19.8228 6.47949 19.336 6.47949 18.8219V14.75H6.06152C5.64731 14.75 5.31152 14.4142 5.31152 14C5.31152 13.5858 5.64731 13.25 6.06152 13.25H6.47949V12.75H6.06152C5.64731 12.75 5.31152 12.4142 5.31152 12C5.31152 11.5858 5.64731 11.25 6.06152 11.25H6.47949V10.75H6.06197C5.64776 10.75 5.31197 10.4142 5.31197 10C5.31197 9.58579 5.64776 9.25 6.06197 9.25H6.47949V7.34998ZM10.25 7C10.25 6.58579 10.5858 6.25 11 6.25H13C13.4142 6.25 13.75 6.58579 13.75 7C13.75 7.41421 13.4142 7.75 13 7.75H11C10.5858 7.75 10.25 7.41421 10.25 7ZM10.25 10C10.25 9.58579 10.5858 9.25 11 9.25H13C13.4142 9.25 13.75 9.58579 13.75 10C13.75 10.4142 13.4142 10.75 13 10.75H11C10.5858 10.75 10.25 10.4142 10.25 10ZM10.25 13C10.25 12.5858 10.5858 12.25 11 12.25H13C13.4142 12.25 13.75 12.5858 13.75 13C13.75 13.4142 13.4142 13.75 13 13.75H11C10.5858 13.75 10.25 13.4142 10.25 13Z" fill="currentColor"/>
</svg>
