<svg viewBox="0 0 24 24" fill="none" xmlns="http://www.w3.org/2000/svg">
<path fill-rule="evenodd" clip-rule="evenodd" d="M4.68945 6.25C5.10367 6.25 5.43945 6.58579 5.43945 7V10.4199C5.43945 10.8395 5.61677 11.2627 6.00666 11.6687L6.008 11.6701C7.00608 12.7148 9.23279 13.5 12.002 13.5C14.7711 13.5 16.9978 12.7148 17.9959 11.6701L17.9972 11.6687C18.3871 11.2627 18.5644 10.8395 18.5644 10.4199V7C18.5644 6.58579 18.9002 6.25 19.3144 6.25C19.7287 6.25 20.0644 6.58579 20.0644 7V17.1699C20.0644 18.0529 19.6795 18.8321 19.0798 19.4569C17.6702 20.9318 14.9473 21.75 12.002 21.75C9.05656 21.75 6.33365 20.9318 4.92404 19.4569C4.32434 18.8321 3.93945 18.0529 3.93945 17.1699V7C3.93945 6.58579 4.27524 6.25 4.68945 6.25ZM5.43945 13.1727V13.7949C5.43945 14.2145 5.61677 14.6377 6.00666 15.0437L6.008 15.0451C7.00608 16.0898 9.23279 16.875 12.002 16.875C14.7711 16.875 16.9978 16.0898 17.9959 15.0451L17.9972 15.0437C18.3871 14.6377 18.5644 14.2145 18.5644 13.7949V13.1727C17.0642 14.353 14.621 15 12.002 15C9.38289 15 6.93975 14.353 5.43945 13.1727ZM18.5644 16.5477C17.0642 17.728 14.621 18.375 12.002 18.375C9.38289 18.375 6.93975 17.728 5.43945 16.5477V17.1699C5.43945 17.5895 5.61677 18.0127 6.00666 18.4187L6.008 18.4201C7.00608 19.4648 9.23279 20.25 12.002 20.25C14.7711 20.25 16.9978 19.4648 17.9959 18.4201L17.9972 18.4187C18.3871 18.0127 18.5644 17.5895 18.5644 17.1699V16.5477Z" fill="currentColor"/>
<path fill-rule="evenodd" clip-rule="evenodd" d="M12.002 3.75C10.0792 3.75 8.38707 4.17975 7.19113 4.84405C5.97799 5.51708 5.43945 6.32636 5.43945 7.04489C5.43945 7.4645 5.61677 7.88769 6.00666 8.29369L6.008 8.29509C7.00608 9.33981 9.23279 10.125 12.002 10.125C14.7711 10.125 16.9978 9.33981 17.9959 8.29509L17.9972 8.29369C18.3871 7.88769 18.5644 7.4645 18.5644 7.04489C18.5644 6.3266 18.0268 5.51774 16.8129 4.83699C15.6156 4.17908 13.9232 3.75 12.002 3.75ZM6.4631 3.53257C7.92213 2.72222 9.87492 2.25 12.002 2.25C14.1293 2.25 16.0809 2.72236 17.5384 3.52411L17.5435 3.52691C18.9603 4.32064 20.0644 5.53004 20.0644 7.04489C20.0644 7.9279 19.6796 8.70718 19.0798 9.33197C17.6702 10.8068 14.9473 11.625 12.002 11.625C9.05663 11.625 6.33378 10.8068 4.92414 9.33203C4.32438 8.70723 3.93945 7.92793 3.93945 7.04489C3.93945 5.5299 5.04391 4.32001 6.4631 3.53257Z" fill="currentColor"/>
</svg>
