<svg  viewBox="0 0 24 24" fill="none" xmlns="http://www.w3.org/2000/svg">
<path fill-rule="evenodd" clip-rule="evenodd" d="M9.69382 2.96981C9.60168 3.07429 9.54976 3.24949 9.45964 3.78456L9.29687 4.75377C9.85792 4.73791 10.419 4.72998 10.9801 4.72998C12.2228 4.72998 13.4668 4.75334 14.7105 4.79954L14.5398 3.79069C14.4562 3.27767 14.4033 3.09352 14.3061 2.98155C14.2523 2.9196 14.0649 2.75 13.3101 2.75H10.6901C9.92396 2.75 9.74226 2.91488 9.69382 2.96981ZM16.2431 4.868C17.856 4.95217 19.4674 5.07442 21.074 5.23364C21.4862 5.27448 21.7872 5.64175 21.7464 6.05394C21.7055 6.46614 21.3383 6.76717 20.9261 6.72632C17.62 6.39869 14.2947 6.22998 10.9801 6.22998C9.02535 6.22998 7.07051 6.3287 5.11543 6.52618L5.11323 6.5264L3.07323 6.7264C2.661 6.76682 2.29405 6.4654 2.25363 6.05316C2.21322 5.64092 2.51464 5.27397 2.92688 5.23356L4.96468 5.03378C4.96503 5.03374 4.96539 5.03371 4.96574 5.03367C5.89888 4.93943 6.83206 4.86712 7.76529 4.81675L7.98041 3.53579C7.98426 3.51297 7.98821 3.48908 7.99222 3.46487C8.06108 3.04899 8.16209 2.43887 8.56879 1.97769C9.04285 1.44012 9.76615 1.25 10.6901 1.25H13.3101C14.2452 1.25 14.9678 1.4554 15.439 1.99845C15.8463 2.46775 15.9448 3.08005 16.0105 3.48891C16.0137 3.5088 16.0168 3.52822 16.0199 3.54711C16.02 3.54784 16.0202 3.54858 16.0203 3.54931L16.2395 4.84486C16.2408 4.85258 16.242 4.86029 16.2431 4.868ZM5.10213 8.39157C5.51549 8.36489 5.87221 8.67835 5.89889 9.0917L6.54861 19.1576C6.54866 19.1583 6.54871 19.159 6.54876 19.1597C6.57698 19.5624 6.60086 19.8818 6.65693 20.1602C6.71154 20.4314 6.78735 20.6095 6.88524 20.7369C7.05407 20.9567 7.47101 21.25 8.79044 21.25H15.2104C16.5299 21.25 16.9468 20.9567 17.1156 20.7369C17.2135 20.6095 17.2894 20.4314 17.344 20.1602C17.4 19.8818 17.4239 19.5624 17.4521 19.1597C17.4522 19.159 17.4522 19.1583 17.4523 19.1576L18.102 9.0917C18.1287 8.67835 18.4854 8.36489 18.8988 8.39157C19.3121 8.41825 19.6256 8.77497 19.5989 9.18833L18.9489 19.2583L18.9486 19.2624L18.9473 19.2814C18.9209 19.6577 18.892 20.0714 18.8144 20.4564C18.734 20.8555 18.5923 21.2768 18.3052 21.6506C17.7041 22.4333 16.681 22.75 15.2104 22.75H8.79044C7.31988 22.75 6.29682 22.4333 5.69565 21.6506C5.40854 21.2768 5.26685 20.8555 5.18646 20.4564C5.10893 20.0714 5.07996 19.6577 5.05361 19.2814L5.05228 19.2624L5.052 19.2583L4.402 9.18833C4.37532 8.77497 4.68878 8.41825 5.10213 8.39157ZM8.75005 12.5C8.75005 12.0858 9.08584 11.75 9.50005 11.75H14.5001C14.9143 11.75 15.2501 12.0858 15.2501 12.5C15.2501 12.9142 14.9143 13.25 14.5001 13.25H9.50005C9.08584 13.25 8.75005 12.9142 8.75005 12.5ZM9.58013 16.5C9.58013 16.0858 9.91592 15.75 10.3301 15.75H13.6601C14.0743 15.75 14.4101 16.0858 14.4101 16.5C14.4101 16.9142 14.0743 17.25 13.6601 17.25H10.3301C9.91592 17.25 9.58013 16.9142 9.58013 16.5Z" fill="currentColor"/>
</svg>
