<svg viewBox="0 0 24 24" fill="none" xmlns="http://www.w3.org/2000/svg">
<path fill-rule="evenodd" clip-rule="evenodd" d="M21.5303 2.42969C21.8232 2.72258 21.8232 3.19746 21.5303 3.49035L19.8421 5.17862L20.1408 5.47737C20.9657 6.30221 21.3611 7.29851 21.3336 8.30035C21.3063 9.29341 20.8656 10.2295 20.1341 10.9549C20.1337 10.9553 20.1333 10.9557 20.1329 10.9561L18.6995 12.3895C17.8263 13.2627 16.4009 13.2627 15.5277 12.3895L11.5652 8.42706C10.6921 7.55389 10.6921 6.12846 11.5652 5.25529C11.5652 5.25529 11.5652 5.25529 11.5652 5.25529L13.001 3.81943C13.7292 3.0913 14.6664 2.65235 15.6599 2.62597C16.6618 2.59938 17.6579 2.99448 18.4829 3.81942L18.7814 4.11796L20.4697 2.42969C20.7626 2.1368 21.2374 2.1368 21.5303 2.42969ZM14.0617 4.88008C14.0617 4.88008 14.0617 4.88008 14.0617 4.88008L12.6259 6.31593C12.3385 6.60332 12.3385 7.07901 12.6259 7.3664L16.5884 11.3289C16.8757 11.6163 17.3514 11.6163 17.6388 11.3289C17.6388 11.3289 17.6388 11.3289 17.6388 11.3289L19.0746 9.89303L19.077 9.89061C19.5662 9.40591 19.8186 8.82542 19.8341 8.25918C19.8494 7.70118 19.6369 7.09481 19.0802 6.53803L17.4222 4.88008C16.8655 4.32341 16.259 4.1106 15.6997 4.12545C15.1319 4.14052 14.5494 4.3924 14.0617 4.88008ZM10.7272 10.5424C11.0201 10.8353 11.0201 11.3102 10.7272 11.6031L9.59959 12.7307L11.3022 14.4333L12.4298 13.3056C12.7227 13.0127 13.1975 13.0127 13.4904 13.3056C13.7833 13.5985 13.7833 14.0734 13.4904 14.3663L12.3628 15.4939L12.4348 15.5659C13.3079 16.439 13.308 17.8645 12.4348 18.7376C12.4348 18.7376 12.4348 18.7376 12.4348 18.7376L10.999 20.1735C10.2708 20.9016 9.33362 21.3406 8.34013 21.3669C7.33819 21.3935 6.34208 20.9984 5.51713 20.1735L5.2186 19.875L3.53033 21.5632C3.23744 21.8561 2.76256 21.8561 2.46967 21.5632C2.17678 21.2703 2.17678 20.7955 2.46967 20.5026L4.15794 18.8143L3.85919 18.5156C3.03435 17.6907 2.63894 16.6944 2.66645 15.6926C2.69372 14.6996 3.13438 13.7636 3.86581 13.0381C3.86625 13.0377 3.86669 13.0373 3.86713 13.0368L5.30051 11.6034C6.17368 10.7302 7.59913 10.7302 8.4723 11.6034L8.53893 11.67L9.66654 10.5424C9.95943 10.2495 10.4343 10.2495 10.7272 10.5424ZM6.36118 12.664C6.36118 12.664 6.36119 12.664 6.36118 12.664L4.92297 14.1023C4.43384 14.587 4.18143 15.1675 4.16588 15.7337C4.15056 16.2917 4.36307 16.8981 4.91985 17.4549L6.57779 19.1128C7.13446 19.6695 7.74103 19.8823 8.30032 19.8675C8.86806 19.8524 9.45062 19.6005 9.9383 19.1128L11.3741 17.677C11.6615 17.3896 11.6615 16.9139 11.3741 16.6265L7.41164 12.664C7.12426 12.3767 6.64857 12.3767 6.36118 12.664ZM16.4697 16.4697C16.7626 16.1768 17.2374 16.1768 17.5303 16.4697L19 17.9393L20.4697 16.4697C20.7626 16.1768 21.2374 16.1768 21.5303 16.4697C21.8232 16.7626 21.8232 17.2374 21.5303 17.5303L20.0607 19L21.5303 20.4697C21.8232 20.7626 21.8232 21.2374 21.5303 21.5303C21.2374 21.8232 20.7626 21.8232 20.4697 21.5303L19 20.0607L17.5303 21.5303C17.2374 21.8232 16.7626 21.8232 16.4697 21.5303C16.1768 21.2374 16.1768 20.7626 16.4697 20.4697L17.9393 19L16.4697 17.5303C16.1768 17.2374 16.1768 16.7626 16.4697 16.4697Z" fill="currentColor"/>
</svg>
