<svg viewBox="0 0 24 24" fill="none" xmlns="http://www.w3.org/2000/svg">
<path fill-rule="evenodd" clip-rule="evenodd" d="M4.99283 4.99283C4.1898 5.79586 3.75 7.12397 3.75 9.3V14.7C3.75 16.876 4.1898 18.2041 4.99283 19.0072C5.79586 19.8102 7.12397 20.25 9.3 20.25H14.7C16.876 20.25 18.2041 19.8102 19.0072 19.0072C19.8102 18.2041 20.25 16.876 20.25 14.7V10.95H17.4C16.0085 10.95 14.8421 10.7278 14.0572 9.94283C13.2722 9.15791 13.05 7.99155 13.05 6.6V3.75H9.3C7.12397 3.75 5.79586 4.1898 4.99283 4.99283ZM14.55 4.81066L19.1893 9.45H17.4C16.0915 9.45 15.4579 9.22225 15.1178 8.88217C14.7778 8.54209 14.55 7.90845 14.55 6.6V4.81066ZM3.93217 3.93217C5.15414 2.7102 6.97603 2.25 9.3 2.25H13.8C13.9989 2.25 14.1897 2.32902 14.3303 2.46967L21.5303 9.66967C21.671 9.81032 21.75 10.0011 21.75 10.2V14.7C21.75 17.024 21.2898 18.8459 20.0678 20.0678C18.8459 21.2898 17.024 21.75 14.7 21.75H9.3C6.97603 21.75 5.15414 21.2898 3.93217 20.0678C2.7102 18.8459 2.25 17.024 2.25 14.7V9.3C2.25 6.97603 2.7102 5.15414 3.93217 3.93217ZM6.75 12.9C6.75 12.4858 7.08579 12.15 7.5 12.15H12.9C13.3142 12.15 13.65 12.4858 13.65 12.9C13.65 13.3142 13.3142 13.65 12.9 13.65H7.5C7.08579 13.65 6.75 13.3142 6.75 12.9ZM6.75 16.5C6.75 16.0858 7.08579 15.75 7.5 15.75H11.1C11.5142 15.75 11.85 16.0858 11.85 16.5C11.85 16.9142 11.5142 17.25 11.1 17.25H7.5C7.08579 17.25 6.75 16.9142 6.75 16.5Z" fill="currentColor"/>
</svg>
