<svg  viewBox="0 0 24 24" fill="none" xmlns="http://www.w3.org/2000/svg">
<path fill-rule="evenodd" clip-rule="evenodd" d="M12.0005 3.86816C12.4147 3.86816 12.7505 4.20395 12.7505 4.61816V13.5716L14.639 11.6832C14.9319 11.3903 15.4068 11.3903 15.6997 11.6832C15.9926 11.9761 15.9925 12.451 15.6996 12.7439L12.5308 15.9126C12.3901 16.0532 12.1994 16.1322 12.0004 16.1322C11.8015 16.1322 11.6108 16.0532 11.4701 15.9125L8.30162 12.7439C8.00874 12.451 8.00875 11.9761 8.30166 11.6832C8.59456 11.3903 9.06943 11.3903 9.36232 11.6832L11.2505 13.5715V4.61816C11.2505 4.20395 11.5862 3.86816 12.0005 3.86816ZM4.25 19.3822C4.25 18.968 4.58579 18.6322 5 18.6322H19.0004C19.4146 18.6322 19.7504 18.968 19.7504 19.3822C19.7504 19.7964 19.4146 20.1322 19.0004 20.1322H5C4.58579 20.1322 4.25 19.7964 4.25 19.3822Z" fill="currentColor"/>
</svg>
