<svg  viewBox="0 0 24 24" fill="none" xmlns="http://www.w3.org/2000/svg">
<path fill-rule="evenodd" clip-rule="evenodd" d="M15.5177 2.2764C16.6845 2.1272 17.8649 2.60432 19.0643 3.73287L19.0657 3.73417C20.2691 4.87226 20.817 6.02676 20.7348 7.20264C20.6553 8.33889 19.9966 9.3006 19.2455 10.0942M19.2455 10.0942L17.9731 11.441C17.9215 11.5222 17.8548 11.5925 17.7774 11.6481L11.0396 18.7798C10.8083 19.0317 10.4968 19.2451 10.2015 19.403C9.90237 19.5629 9.5564 19.6998 9.23162 19.7575L9.22662 19.7584L6.00777 20.3082C5.22721 20.4428 4.47871 20.2477 3.9455 19.742C3.41305 19.2371 3.17776 18.5007 3.26493 17.7163L3.26518 17.714L3.63679 14.46C3.67995 14.1363 3.80016 13.786 3.94187 13.4821C4.08307 13.1793 4.27572 12.8583 4.5037 12.6156L4.50517 12.614L11.3247 5.39579C11.3378 5.38077 11.3515 5.36627 11.3658 5.35231L12.7152 3.92403C13.4667 3.13016 14.3902 2.42057 15.5177 2.2764M11.5119 7.38184L5.59698 13.6426C5.5968 13.6428 5.59715 13.6424 5.59698 13.6426C5.51501 13.7301 5.40239 13.8993 5.30131 14.1161C5.20205 14.3289 5.14243 14.5258 5.12456 14.6524L4.75575 17.8819C4.75571 17.8823 4.75568 17.8826 4.75564 17.8829C4.71313 18.2679 4.83276 18.5162 4.97768 18.6536C5.12197 18.7905 5.37347 18.8954 5.75291 18.83L5.75406 18.8298L8.97117 18.2803C9.09645 18.2576 9.28946 18.1897 9.49422 18.0802C9.7018 17.9692 9.85796 17.8495 9.93612 17.7638L9.94508 17.754L15.8587 11.4947C13.8602 10.8592 12.2545 9.34339 11.5119 7.38184ZM17.042 10.2423C14.8921 9.87494 13.175 8.2512 12.6978 6.12667L13.805 4.9547C13.8049 4.95483 13.8051 4.95457 13.805 4.9547C14.4733 4.24882 15.0956 3.8426 15.708 3.76428C16.2811 3.69099 17.0355 3.88379 18.0358 4.82478C19.0417 5.77633 19.2787 6.52158 19.2384 7.09804C19.1954 7.71403 18.8244 8.35714 18.1557 9.06349L17.042 10.2423ZM2.25 22C2.25 21.5858 2.58579 21.25 3 21.25H21C21.4142 21.25 21.75 21.5858 21.75 22C21.75 22.4142 21.4142 22.75 21 22.75H3C2.58579 22.75 2.25 22.4142 2.25 22Z" fill="currentColor"/>
</svg>
