<svg  viewBox="0 0 24 24" fill="none" xmlns="http://www.w3.org/2000/svg">
<path fill-rule="evenodd" clip-rule="evenodd" d="M17.3882 2.26357C18.411 2.16317 19.4153 2.61431 20.4006 3.59958C21.3859 4.58485 21.837 5.58917 21.7366 6.61192C21.6401 7.59533 21.0479 8.40375 20.4006 9.05109L19.4123 10.0394C19.4023 10.05 19.3919 10.0604 19.3813 10.0704L13.3878 16.0638C13.1799 16.2651 12.9105 16.4388 12.6531 16.5682C12.3972 16.6968 12.0927 16.8119 11.799 16.8539L9.11978 17.2366C8.43828 17.3304 7.77994 17.1448 7.31612 16.6828C6.85126 16.2198 6.664 15.561 6.76422 14.8753C6.7643 14.8747 6.76438 14.8742 6.76446 14.8737L7.1459 12.2035C7.14597 12.2031 7.14604 12.2026 7.1461 12.2021C7.18782 11.9048 7.30232 11.5982 7.43191 11.3404C7.56181 11.082 7.738 10.8106 7.94501 10.6036L14.9491 3.59958C15.5964 2.95224 16.4048 2.3601 17.3882 2.26357ZM18.6602 8.67021L19.3399 7.99043C19.9014 7.42895 20.1981 6.93078 20.2438 6.46539C20.2856 6.03934 20.1324 5.45265 19.3399 4.66024C18.5475 3.86784 17.9608 3.71457 17.5348 3.75639C17.0694 3.80207 16.5712 4.09876 16.0097 4.66024L15.3292 5.34074C15.8925 6.88177 17.1103 8.10048 18.6602 8.67021ZM14.1853 6.48464C14.8826 7.93903 16.0589 9.1139 17.5168 9.8136L12.3411 14.9892C12.2726 15.0544 12.1435 15.1455 11.9794 15.228C11.8108 15.3127 11.6665 15.3576 11.5869 15.3689L8.91529 15.7506C8.91475 15.7507 8.91422 15.7508 8.91368 15.7508C8.62733 15.7898 8.45951 15.7045 8.37463 15.62C8.291 15.5367 8.20708 15.374 8.24855 15.0915L8.24897 15.0887L8.63117 12.4133L8.63151 12.4108C8.64329 12.3264 8.68862 12.1802 8.77214 12.014C8.85556 11.8481 8.94603 11.7239 9.00567 11.6643L14.1853 6.48464ZM3.93266 3.93217C5.15463 2.7102 6.97652 2.25 9.30049 2.25H11.1005C11.5147 2.25 11.8505 2.58578 11.8505 3C11.8505 3.41421 11.5147 3.75 11.1005 3.75H9.30049C7.12446 3.75 5.79635 4.1898 4.99332 4.99283C4.19029 5.79586 3.75049 7.12397 3.75049 9.3V14.7C3.75049 16.876 4.19029 18.2041 4.99332 19.0072C5.79635 19.8102 7.12446 20.25 9.30049 20.25H14.7005C16.8765 20.25 18.2046 19.8102 19.0077 19.0072C19.8107 18.2041 20.2505 16.876 20.2505 14.7V12.9C20.2505 12.4858 20.5863 12.15 21.0005 12.15C21.4147 12.15 21.7505 12.4858 21.7505 12.9V14.7C21.7505 17.024 21.2903 18.8459 20.0683 20.0678C18.8463 21.2898 17.0245 21.75 14.7005 21.75H9.30049C6.97652 21.75 5.15463 21.2898 3.93266 20.0678C2.71069 18.8459 2.25049 17.024 2.25049 14.7V9.3C2.25049 6.97602 2.71069 5.15414 3.93266 3.93217Z" fill="currentColor"/>
</svg>
