<svg viewBox="0 0 24 24" fill="none" xmlns="http://www.w3.org/2000/svg">
<path fill-rule="evenodd" clip-rule="evenodd" d="M4.74784 5.96838C4.15538 6.51852 3.75 7.41799 3.75 8.85004V15.15C3.75 16.5821 4.15538 17.4816 4.74784 18.0317C5.35035 18.5912 6.26497 18.9 7.5 18.9H16.5C17.735 18.9 18.6496 18.5912 19.2522 18.0317C19.8446 17.4816 20.25 16.5821 20.25 15.15V8.85004C20.25 7.41799 19.8446 6.51852 19.2522 5.96838C18.6496 5.4089 17.735 5.10004 16.5 5.10004H7.5C6.26497 5.10004 5.35035 5.4089 4.74784 5.96838ZM3.72716 4.86919C4.69965 3.96617 6.03503 3.60004 7.5 3.60004H16.5C17.965 3.60004 19.3004 3.96617 20.2728 4.86919C21.2554 5.78156 21.75 7.13209 21.75 8.85004V15.15C21.75 16.868 21.2554 18.2185 20.2728 19.1309C19.3004 20.0339 17.965 20.4 16.5 20.4H7.5C6.03503 20.4 4.69965 20.0339 3.72716 19.1309C2.74462 18.2185 2.25 16.868 2.25 15.15V8.85004C2.25 7.13209 2.74462 5.78156 3.72716 4.86919ZM17.086 8.83197C17.3445 9.15562 17.2917 9.62755 16.9681 9.88605L14.1501 12.1368C12.9497 13.0924 11.0413 13.0924 9.84086 12.1368L9.83901 12.1353L7.03102 9.88532C6.70778 9.62631 6.6557 9.1543 6.91471 8.83106C7.17372 8.50781 7.64573 8.45574 7.96898 8.71475L10.7751 10.9633C10.7754 10.9635 10.7757 10.9637 10.776 10.964C11.4296 11.4835 12.562 11.4834 13.2154 10.9636C13.2152 10.9638 13.2156 10.9635 13.2154 10.9636L16.0319 8.71402C16.3556 8.45551 16.8275 8.50832 17.086 8.83197Z" fill="currentColor"/>
</svg>
