<svg  viewBox="0 0 24 24" fill="none" xmlns="http://www.w3.org/2000/svg">
<path fill-rule="evenodd" clip-rule="evenodd" d="M2.27044 2.31593C2.56333 2.02303 3.0382 2.02302 3.3311 2.31591L21.7272 20.7114C22.0201 21.0043 22.0201 21.4791 21.7273 21.772C21.4344 22.0649 20.9595 22.0649 20.6666 21.772L16.6842 17.7898C15.2116 18.675 13.5857 19.25 11.9998 19.25C10.293 19.25 8.54078 18.5839 6.98474 17.5841C5.42307 16.5807 4.00662 15.2083 2.96574 13.7147C2.58872 13.1755 2.2499 12.6323 2.25 12.0042C2.2501 11.3763 2.58897 10.8332 2.96591 10.294C3.78482 9.1189 4.83583 8.018 6.00652 7.11251L2.27046 3.37659C1.97756 3.0837 1.97755 2.60883 2.27044 2.31593ZM7.07684 8.18279C5.96499 9.01652 4.9631 10.0516 4.19626 11.1521L4.19557 11.1531C3.79824 11.7213 3.75002 11.9053 3.75 12.0044C3.74998 12.1035 3.79808 12.2874 4.19534 12.8556L4.19603 12.8566C5.12551 14.1905 6.39981 15.4253 7.79558 16.3221C9.19719 17.2227 10.6693 17.75 11.9998 17.75C13.1369 17.75 14.3768 17.3648 15.5865 16.6922L13.9557 15.0614C13.385 15.4061 12.7118 15.6038 11.9937 15.6038C9.96737 15.6038 8.28018 14.019 8.28018 12C8.28018 11.2601 8.50943 10.5744 8.89929 10.0052L7.07684 8.18279ZM9.99233 11.0982C9.85565 11.3723 9.78018 11.678 9.78018 12C9.78018 13.1377 10.7419 14.1038 11.9937 14.1038C12.2948 14.1038 12.5802 14.0472 12.8397 13.9454L9.99233 11.0982ZM9.25 5.75C9.25 5.33579 9.52566 5.15811 10 5C10.4743 4.84189 13 4 17.0157 6.42067C18.5774 7.42636 19.9937 8.80089 21.0344 10.2944C21.4113 10.8334 21.75 11.3765 21.75 12.0043C22 13 20.1064 14.8202 19.7293 15.3595C19.492 15.699 19.0244 15.7818 18.6849 15.5444C18.3454 15.3071 18.2626 14.8395 18.5 14.5C18.8973 13.9318 20.25 12.3014 20.25 12.0043C20.25 11.9053 20.2018 11.7213 19.8045 11.1531L19.8038 11.1521C18.8741 9.81784 17.5995 8.58077 16.2036 7.6818C12.8397 5.51556 11 6.42067 10 6.5C9.58579 6.5 9.25 6.16421 9.25 5.75Z" fill="currentColor"/>
</svg>
