<svg  viewBox="0 0 24 24" fill="none" xmlns="http://www.w3.org/2000/svg">
<path fill-rule="evenodd" clip-rule="evenodd" d="M11.9998 4.75C10.2924 4.75 8.53993 5.41876 6.98419 6.42068C5.42274 7.42629 4.00662 8.80065 2.96597 10.294C2.58901 10.8331 2.2501 11.3763 2.25 12.0042C2.2499 12.6323 2.58872 13.1755 2.96574 13.7147C4.00662 15.2083 5.42307 16.5807 6.98474 17.5841C8.54078 18.5839 10.293 19.25 11.9998 19.25C12.0532 19.25 12.1066 19.2493 12.16 19.2481C12.0555 18.865 12 18.4642 12 18.0516C12 17.9503 12.0033 17.8498 12.0099 17.75C12.0066 17.75 12.0032 17.75 11.9998 17.75C10.6693 17.75 9.19719 17.2227 7.79558 16.3221C6.39981 15.4253 5.12551 14.1905 4.19603 12.8566L4.19534 12.8556C3.79808 12.2874 3.74998 12.1035 3.75 12.0044C3.75002 11.9053 3.79824 11.7213 4.19557 11.1531L4.19626 11.1521C5.12597 9.81782 6.40049 8.58075 7.79636 7.68178C9.19816 6.779 10.67 6.25 11.9998 6.25C13.3297 6.25 14.8017 6.77901 16.2036 7.6818C17.5995 8.58077 18.8741 9.81784 19.8038 11.1521L19.8045 11.1531C20.2018 11.7213 20.25 11.9053 20.25 12.0043C20.25 12.1034 20.2018 12.2874 19.8046 12.8556L19.8039 12.8566C19.6631 13.0586 19.5144 13.2583 19.3586 13.455C19.8486 13.6292 20.3039 13.8669 20.7123 14.1569C20.8233 14.0108 20.9307 13.8631 21.0344 13.7143C21.4113 13.1752 21.75 12.6322 21.75 12.0043C21.75 11.3765 21.4113 10.8334 21.0344 10.2944C19.9937 8.80089 18.5774 7.42636 17.0157 6.42067C15.4599 5.41875 13.7073 4.75 11.9998 4.75ZM15.3846 13.4755C15.5916 13.0272 15.7072 12.5285 15.7072 12C15.7072 9.98103 14.02 8.39625 11.9937 8.39625C9.96737 8.39625 8.28018 9.98103 8.28018 12C8.28018 14.019 9.96737 15.6038 11.9937 15.6038C12.256 15.6038 12.5127 15.5772 12.7608 15.5266C13.3628 14.6063 14.2839 13.8801 15.3846 13.4755ZM9.78018 12C9.78018 10.8623 10.7419 9.89625 11.9937 9.89625C13.2454 9.89625 14.2072 10.8623 14.2072 12C14.2072 13.1377 13.2454 14.1038 11.9937 14.1038C10.7419 14.1038 9.78018 13.1377 9.78018 12Z" fill="currentColor"/>
<path fill-rule="evenodd" clip-rule="evenodd" d="M21.0363 16.0756C21.3258 16.3718 21.3205 16.8466 21.0243 17.1362L17.6152 20.4696C17.3238 20.7546 16.858 20.7546 16.5666 20.4696L14.9757 18.914C14.6795 18.6244 14.6742 18.1496 14.9637 17.8534C15.2533 17.5573 15.7282 17.5519 16.0243 17.8415L17.0909 18.8844L19.9757 16.0637C20.2718 15.7741 20.7467 15.7795 21.0363 16.0756Z" fill="currentColor"/>
</svg>
