<svg  viewBox="0 0 24 24" fill="none" xmlns="http://www.w3.org/2000/svg">
<path fill-rule="evenodd" clip-rule="evenodd" d="M6.98419 6.42068C8.53993 5.41876 10.2924 4.75 11.9998 4.75C13.7073 4.75 15.4599 5.41875 17.0157 6.42067C18.5774 7.42636 19.9937 8.80089 21.0344 10.2944C21.4113 10.8334 21.75 11.3765 21.75 12.0043C21.75 12.6322 21.4113 13.1752 21.0344 13.7143C19.9935 15.2081 18.5769 16.5806 17.015 17.5841C15.459 18.5839 13.7066 19.25 11.9998 19.25C10.293 19.25 8.54078 18.5839 6.98474 17.5841C5.42307 16.5807 4.00662 15.2083 2.96574 13.7147C2.58872 13.1755 2.2499 12.6323 2.25 12.0042C2.2501 11.3763 2.58901 10.8331 2.96597 10.294C4.00662 8.80065 5.42274 7.42629 6.98419 6.42068ZM7.79636 7.68178C6.40049 8.58075 5.12597 9.81782 4.19626 11.1521L4.19557 11.1531C3.79824 11.7213 3.75002 11.9053 3.75 12.0044C3.74998 12.1035 3.79808 12.2874 4.19534 12.8556L4.19603 12.8566C5.12551 14.1905 6.39981 15.4253 7.79558 16.3221C9.19719 17.2227 10.6693 17.75 11.9998 17.75C13.3304 17.75 14.8026 17.2227 16.2042 16.3221C17.6001 15.4253 18.8744 14.1905 19.8039 12.8566L19.8046 12.8556C20.2018 12.2874 20.25 12.1034 20.25 12.0043C20.25 11.9053 20.2018 11.7213 19.8045 11.1531L19.8038 11.1521C18.8741 9.81784 17.5995 8.58077 16.2036 7.6818C14.8017 6.77901 13.3297 6.25 11.9998 6.25C10.67 6.25 9.19816 6.779 7.79636 7.68178ZM11.9937 9.89625C10.7419 9.89625 9.78018 10.8623 9.78018 12C9.78018 13.1377 10.7419 14.1038 11.9937 14.1038C13.2454 14.1038 14.2072 13.1377 14.2072 12C14.2072 10.8623 13.2454 9.89625 11.9937 9.89625ZM8.28018 12C8.28018 9.98103 9.96737 8.39625 11.9937 8.39625C14.02 8.39625 15.7072 9.98103 15.7072 12C15.7072 14.019 14.02 15.6038 11.9937 15.6038C9.96737 15.6038 8.28018 14.019 8.28018 12Z" fill="currentColor"/>
</svg>
