<svg  viewBox="0 0 24 24" fill="none" xmlns="http://www.w3.org/2000/svg">
<path fill-rule="evenodd" clip-rule="evenodd" d="M11.0962 5.03327C11.0961 5.03347 11.0963 5.03308 11.0962 5.03327L9.51437 8.06361C9.33527 8.41211 9.0408 8.70284 8.74598 8.91223C8.44875 9.12332 8.07985 9.30245 7.69981 9.36426L7.69728 9.36467L4.82696 9.82146C4.02433 9.94967 3.80734 10.2476 3.76666 10.3696C3.72982 10.4801 3.71661 10.8243 4.28262 11.3665L6.51437 13.5042C6.81887 13.7958 7.0219 14.1851 7.13375 14.5594C7.24543 14.9331 7.28925 15.3689 7.1938 15.7768L7.1926 15.782L6.55365 18.4282C6.32038 19.3938 6.56811 19.6858 6.63895 19.7353C6.73308 19.8011 7.14258 19.9237 8.04568 19.4103L10.7419 17.8815C11.1277 17.6665 11.5852 17.5798 12.0013 17.5798C12.4166 17.5798 12.8747 17.6662 13.259 17.8844L15.9489 19.4096C16.86 19.9251 17.2686 19.8025 17.3605 19.7383C17.4282 19.6911 17.6764 19.4017 17.442 18.4276L16.802 15.7768C16.7066 15.3689 16.7504 14.9331 16.8621 14.5594C16.9739 14.1851 17.177 13.7958 17.4815 13.5042L19.7132 11.3665L19.7151 11.3647C20.2849 10.8226 20.2695 10.4797 20.233 10.371C20.1918 10.2483 19.9726 9.94984 19.1692 9.82151C19.1691 9.82149 19.1694 9.82153 19.1692 9.82151L16.2986 9.36467C15.9148 9.3034 15.5431 9.12502 15.2434 8.91322C14.9465 8.70339 14.6517 8.41235 14.4725 8.06361L12.8899 5.03185L12.8891 5.03042C12.5237 4.32675 12.1623 4.20001 11.9968 4.20001C11.8301 4.20001 11.466 4.32881 11.0962 5.03327ZM14.22 4.33846C13.7305 3.39612 12.9627 2.70001 11.9968 2.70001C11.0319 2.70001 10.262 3.3949 9.76797 4.3363L8.1834 7.37186L8.1805 7.37746C8.14346 7.4499 8.04289 7.57176 7.87742 7.68927C7.714 7.80533 7.55696 7.86754 7.45998 7.88356C7.45965 7.88361 7.4603 7.8835 7.45998 7.88356L4.59085 8.34015C3.55797 8.50504 2.64492 8.99155 2.34365 9.89524C2.03853 10.8105 2.49719 11.7334 3.24503 12.4497L5.47679 14.5874C5.55025 14.6578 5.63968 14.7986 5.69656 14.9889C5.75323 15.1785 5.75478 15.3408 5.73369 15.4332L5.09557 18.0761C5.09556 18.0761 5.09558 18.076 5.09557 18.0761C4.82492 19.1964 4.91013 20.357 5.77966 20.9648C6.62592 21.5562 7.76426 21.2957 8.78695 20.7144L11.4721 19.1918C11.4727 19.1914 11.4733 19.1911 11.474 19.1908C11.5833 19.1304 11.773 19.0798 12.0013 19.0798C12.2316 19.0798 12.417 19.1312 12.5186 19.1889L15.2096 20.7148C16.2332 21.2939 17.373 21.5591 18.2193 20.9682C19.0897 20.3603 19.17 19.1973 18.9004 18.0768L18.2621 15.4331C18.2411 15.3407 18.2426 15.1785 18.2993 14.9889C18.3561 14.7986 18.4456 14.6578 18.519 14.5874L20.7489 12.4515C20.7493 12.4511 20.7497 12.4508 20.7501 12.4504C21.5024 11.7342 21.9627 10.8105 21.6551 9.89383C21.3521 8.99087 20.4375 8.50499 19.4053 8.34021L16.5347 7.88337C16.4325 7.86696 16.2727 7.8039 16.1091 7.68828C15.9435 7.57121 15.8432 7.44966 15.8063 7.37746L14.22 4.33846C14.2201 4.33869 14.2199 4.33823 14.22 4.33846Z" fill="currentColor"/>
</svg>
