<svg  viewBox="0 0 24 24" fill="none" xmlns="http://www.w3.org/2000/svg">
<path fill-rule="evenodd" clip-rule="evenodd" d="M2.25 7C2.25 6.58579 2.58579 6.25 3 6.25H21C21.4142 6.25 21.75 6.58579 21.75 7C21.75 7.41421 21.4142 7.75 21 7.75H3C2.58579 7.75 2.25 7.41421 2.25 7ZM5.25 12C5.25 11.5858 5.58579 11.25 6 11.25H18C18.4142 11.25 18.75 11.5858 18.75 12C18.75 12.4142 18.4142 12.75 18 12.75H6C5.58579 12.75 5.25 12.4142 5.25 12ZM8.25 17C8.25 16.5858 8.58579 16.25 9 16.25H15C15.4142 16.25 15.75 16.5858 15.75 17C15.75 17.4142 15.4142 17.75 15 17.75H9C8.58579 17.75 8.25 17.4142 8.25 17Z" fill="currentColor"/>
</svg>
