<svg viewBox="0 0 24 24" fill="none" xmlns="http://www.w3.org/2000/svg">
<path fill-rule="evenodd" clip-rule="evenodd" d="M3.14467 3.14467C3.78493 2.50441 4.68439 2.25 5.7 2.25H7.5C8.51561 2.25 9.41507 2.50441 10.0553 3.14467C10.6956 3.78493 10.95 4.68439 10.95 5.7V7.5C10.95 8.51561 10.6956 9.41507 10.0553 10.0553C9.41507 10.6956 8.51561 10.95 7.5 10.95H5.7C4.68439 10.95 3.78493 10.6956 3.14467 10.0553C2.50441 9.41507 2.25 8.51561 2.25 7.5V5.7C2.25 4.68439 2.50441 3.78493 3.14467 3.14467ZM4.20533 4.20533C3.94559 4.46507 3.75 4.91561 3.75 5.7V7.5C3.75 8.28439 3.94559 8.73493 4.20533 8.99467C4.46507 9.25441 4.91561 9.45 5.7 9.45H7.5C8.28439 9.45 8.73493 9.25441 8.99467 8.99467C9.25441 8.73493 9.45 8.28439 9.45 7.5V5.7C9.45 4.91561 9.25441 4.46507 8.99467 4.20533C8.73493 3.94559 8.28439 3.75 7.5 3.75H5.7C4.91561 3.75 4.46507 3.94559 4.20533 4.20533ZM13.9447 3.14467C14.5849 2.50441 15.4844 2.25 16.5 2.25H18.3C19.3156 2.25 20.2151 2.50441 20.8553 3.14467C21.4956 3.78493 21.75 4.68439 21.75 5.7V7.5C21.75 8.51561 21.4956 9.41507 20.8553 10.0553C20.2151 10.6956 19.3156 10.95 18.3 10.95H16.5C15.4844 10.95 14.5849 10.6956 13.9447 10.0553C13.3044 9.41507 13.05 8.51561 13.05 7.5V5.7C13.05 4.68439 13.3044 3.78493 13.9447 3.14467ZM15.0053 4.20533C14.7456 4.46507 14.55 4.91561 14.55 5.7V7.5C14.55 8.28439 14.7456 8.73493 15.0053 8.99467C15.2651 9.25441 15.7156 9.45 16.5 9.45H18.3C19.0844 9.45 19.5349 9.25441 19.7947 8.99467C20.0544 8.73493 20.25 8.28439 20.25 7.5V5.7C20.25 4.91561 20.0544 4.46507 19.7947 4.20533C19.5349 3.94559 19.0844 3.75 18.3 3.75H16.5C15.7156 3.75 15.2651 3.94559 15.0053 4.20533ZM3.14467 13.9447C3.78493 13.3044 4.68439 13.05 5.7 13.05H7.5C8.51561 13.05 9.41507 13.3044 10.0553 13.9447C10.6956 14.5849 10.95 15.4844 10.95 16.5V18.3C10.95 19.3156 10.6956 20.2151 10.0553 20.8553C9.41507 21.4956 8.51561 21.75 7.5 21.75H5.7C4.68439 21.75 3.78493 21.4956 3.14467 20.8553C2.50441 20.2151 2.25 19.3156 2.25 18.3V16.5C2.25 15.4844 2.50441 14.5849 3.14467 13.9447ZM4.20533 15.0053C3.94559 15.2651 3.75 15.7156 3.75 16.5V18.3C3.75 19.0844 3.94559 19.5349 4.20533 19.7947C4.46507 20.0544 4.91561 20.25 5.7 20.25H7.5C8.28439 20.25 8.73493 20.0544 8.99467 19.7947C9.25441 19.5349 9.45 19.0844 9.45 18.3V16.5C9.45 15.7156 9.25441 15.2651 8.99467 15.0053C8.73493 14.7456 8.28439 14.55 7.5 14.55H5.7C4.91561 14.55 4.46507 14.7456 4.20533 15.0053ZM13.9447 13.9447C14.5849 13.3044 15.4844 13.05 16.5 13.05H18.3C19.3156 13.05 20.2151 13.3044 20.8553 13.9447C21.4956 14.5849 21.75 15.4844 21.75 16.5V18.3C21.75 19.3156 21.4956 20.2151 20.8553 20.8553C20.2151 21.4956 19.3156 21.75 18.3 21.75H16.5C15.4844 21.75 14.5849 21.4956 13.9447 20.8553C13.3044 20.2151 13.05 19.3156 13.05 18.3V16.5C13.05 15.4844 13.3044 14.5849 13.9447 13.9447ZM15.0053 15.0053C14.7456 15.2651 14.55 15.7156 14.55 16.5V18.3C14.55 19.0844 14.7456 19.5349 15.0053 19.7947C15.2651 20.0544 15.7156 20.25 16.5 20.25H18.3C19.0844 20.25 19.5349 20.0544 19.7947 19.7947C20.0544 19.5349 20.25 19.0844 20.25 18.3V16.5C20.25 15.7156 20.0544 15.2651 19.7947 15.0053C19.5349 14.7456 19.0844 14.55 18.3 14.55H16.5C15.7156 14.55 15.2651 14.7456 15.0053 15.0053Z" fill="currentColor"/>
</svg>
