<svg viewBox="0 0 24 24" fill="none" xmlns="http://www.w3.org/2000/svg">
<path fill-rule="evenodd" clip-rule="evenodd" d="M3 2.25C3.41421 2.25 3.75 2.58579 3.75 3V18.3C3.75 19.3798 4.62021 20.25 5.7 20.25H21C21.4142 20.25 21.75 20.5858 21.75 21C21.75 21.4142 21.4142 21.75 21 21.75H5.7C3.79179 21.75 2.25 20.2082 2.25 18.3V3C2.25 2.58579 2.58579 2.25 3 2.25ZM20.5879 6.93041C20.9025 7.19988 20.9391 7.67334 20.6696 7.98792L16.5296 12.8209L16.5276 12.8232C15.5596 13.9441 13.8397 14.0094 12.7927 12.9623L11.9345 12.1041C11.5107 11.6752 10.8036 11.6984 10.3995 12.1652L10.3986 12.1662L6.26967 16.9878C6.00024 17.3024 5.52679 17.3391 5.21217 17.0697C4.89755 16.8002 4.86091 16.3268 5.13033 16.0122L9.26133 11.1882L9.26338 11.1858C10.2268 10.0702 11.9476 9.98521 12.9998 11.0481L13.0015 11.0499L13.8533 11.9017C14.282 12.3304 14.9915 12.306 15.3916 11.8437L15.3924 11.8428L19.5304 7.01208C19.7999 6.6975 20.2733 6.66094 20.5879 6.93041Z" fill="currentColor"/>
</svg>
