<svg viewBox="0 0 24 24" fill="none" xmlns="http://www.w3.org/2000/svg">
<path fill-rule="evenodd" clip-rule="evenodd" d="M5.29953 4.20853C5.81249 3.62758 6.51074 3.25 7.41309 3.25H16.5889C17.4811 3.25 18.1612 3.60077 18.6709 4.18229C19.1451 4.7233 19.4535 5.44352 19.7088 6.16214C19.7164 6.18353 19.723 6.20525 19.7286 6.22723L21.4094 12.7933C21.6272 13.2226 21.75 13.7072 21.75 14.2186V16.5868C21.75 18.3247 20.3247 19.75 18.5868 19.75H5.41321C3.66452 19.75 2.25 18.3229 2.25 16.5868V14.2186C2.25 13.7044 2.3734 13.2191 2.59178 12.7901L4.27336 6.22706C4.27639 6.21523 4.27971 6.20348 4.28331 6.19181C4.50221 5.48332 4.81109 4.7617 5.29953 4.20853ZM3.75 14.3132L3.99676 13.3501C4.29091 12.8738 4.81809 12.5554 5.41321 12.5554H18.5868C19.185 12.5554 19.7107 12.8756 20.0038 13.3513L20.25 14.3131V16.5868C20.25 17.4962 19.4962 18.25 18.5868 18.25H5.41321C4.49657 18.25 3.75 17.4981 3.75 16.5868V14.3132ZM19.4466 11.1743C19.1733 11.0969 18.8849 11.0554 18.5868 11.0554H5.41321C5.11595 11.0554 4.82775 11.0969 4.55421 11.1744L5.72177 6.61749C5.9151 5.99653 6.14483 5.51745 6.42394 5.20136C6.68108 4.91014 6.98276 4.75 7.41309 4.75H16.5889C17.0292 4.75 17.3047 4.89923 17.5429 5.17101C17.8125 5.47854 18.0415 5.95487 18.284 6.63261L19.4466 11.1743ZM6.59301 13.7477C7.00722 13.7477 7.34301 14.0835 7.34301 14.4977V16.2986C7.34301 16.7128 7.00722 17.0486 6.59301 17.0486C6.17879 17.0486 5.84301 16.7128 5.84301 16.2986V14.4977C5.84301 14.0835 6.17879 13.7477 6.59301 13.7477ZM10.1948 13.7477C10.609 13.7477 10.9448 14.0835 10.9448 14.4977V16.2986C10.9448 16.7128 10.609 17.0486 10.1948 17.0486C9.78059 17.0486 9.44481 16.7128 9.44481 16.2986V14.4977C9.44481 14.0835 9.78059 13.7477 10.1948 13.7477ZM13.0466 15.3982C13.0466 14.984 13.3824 14.6482 13.7966 14.6482H17.3984C17.8126 14.6482 18.1484 14.984 18.1484 15.3982C18.1484 15.8124 17.8126 16.1482 17.3984 16.1482H13.7966C13.3824 16.1482 13.0466 15.8124 13.0466 15.3982Z" fill="currentColor"/>
</svg>
