<svg viewBox="0 0 24 24" fill="none" xmlns="http://www.w3.org/2000/svg">
<path fill-rule="evenodd" clip-rule="evenodd" d="M3.26405 7.25H2C1.58579 7.25 1.25 7.58579 1.25 8C1.25 8.41421 1.58579 8.75 2 8.75H3.25V11.25H2C1.58579 11.25 1.25 11.5858 1.25 12C1.25 12.4142 1.58579 12.75 2 12.75H3.25L3.24999 15.25H2C1.58579 15.25 1.25 15.5858 1.25 16C1.25 16.4142 1.58579 16.75 2 16.75H3.26403C3.34088 18.0913 3.7381 19.299 4.57851 20.2041C5.5315 21.2304 6.94453 21.75 8.74998 21.75H16.25C18.0555 21.75 19.4685 21.2304 20.4215 20.2041C21.3651 19.1879 21.75 17.79 21.75 16.25L21.75 7.75C21.75 6.21003 21.3651 4.81215 20.4215 3.79591C19.4685 2.76962 18.0555 2.25 16.25 2.25H8.75C6.94455 2.25 5.53152 2.76962 4.57853 3.79591C3.73812 4.70097 3.3409 5.90874 3.26405 7.25ZM4.7669 7.25H6C6.41421 7.25 6.75 7.58579 6.75 8C6.75 8.41421 6.41421 8.75 6 8.75H4.75V11.25H6C6.41421 11.25 6.75 11.5858 6.75 12C6.75 12.4142 6.41421 12.75 6 12.75H4.75L4.74999 15.25H6C6.41421 15.25 6.75 15.5858 6.75 16C6.75 16.4142 6.41421 16.75 6 16.75H4.76689C4.84095 17.8115 5.15659 18.6222 5.6777 19.1834C6.26847 19.8196 7.23043 20.25 8.74998 20.25H16.25C17.7696 20.25 18.7315 19.8196 19.3223 19.1834C19.9224 18.5371 20.25 17.56 20.25 16.25L20.25 7.75C20.25 6.43997 19.9224 5.46285 19.3223 4.81659C18.7316 4.18038 17.7696 3.75 16.25 3.75H8.75C7.23045 3.75 6.26848 4.18038 5.67772 4.81659C5.15661 5.37779 4.84097 6.18848 4.7669 7.25ZM9.25 10C9.25 8.29579 10.6291 6.91667 12.3333 6.91667C14.0375 6.91667 15.4167 8.29579 15.4167 10C15.4167 11.4456 14.4244 12.6572 13.0831 12.9917L13.083 13.5002C13.0829 13.9144 12.747 14.2501 12.3328 14.25C11.9186 14.2499 11.5829 13.914 11.583 13.4998L11.5833 12.3331C11.5834 11.919 11.9192 11.5833 12.3333 11.5833C13.2091 11.5833 13.9167 10.8758 13.9167 10C13.9167 9.12421 13.2091 8.41667 12.3333 8.41667C11.4575 8.41667 10.75 9.12421 10.75 10C10.75 10.4142 10.4142 10.75 10 10.75C9.58579 10.75 9.25 10.4142 9.25 10ZM12.3333 15.1389C12.7475 15.1389 13.0833 15.4747 13.0833 15.8889V15.8978C13.0833 16.312 12.7475 16.6478 12.3333 16.6478C11.9191 16.6478 11.5833 16.312 11.5833 15.8978V15.8889C11.5833 15.4747 11.9191 15.1389 12.3333 15.1389Z" fill="currentColor"/>
</svg>
