<svg viewBox="0 0 24 24" fill="none" xmlns="http://www.w3.org/2000/svg">
<path fill-rule="evenodd" clip-rule="evenodd" d="M7.95 10.8871C7.88807 10.8871 7.8 10.9482 7.8 11.0616V12.4484C7.8 12.5617 7.88807 12.6229 7.95 12.6229H9.75C9.81192 12.6229 9.9 12.5617 9.9 12.4484V11.0616C9.9 10.9482 9.81192 10.8871 9.75 10.8871H7.95ZM6.3 11.0616C6.3 10.158 7.02193 9.38712 7.95 9.38712H9.75C10.6781 9.38712 11.4 10.158 11.4 11.0616V12.4484C11.4 13.3519 10.6781 14.1229 9.75 14.1229H7.95C7.02193 14.1229 6.3 13.3519 6.3 12.4484V11.0616ZM14.25 10.8871C14.1881 10.8871 14.1 10.9482 14.1 11.0616V12.4484C14.1 12.5617 14.1881 12.6229 14.25 12.6229H16.05C16.1119 12.6229 16.2 12.5617 16.2 12.4484V11.0616C16.2 10.9482 16.1119 10.8871 16.05 10.8871H14.25ZM12.6 11.0616C12.6 10.158 13.3219 9.38712 14.25 9.38712H16.05C16.9781 9.38712 17.7 10.158 17.7 11.0616V12.4484C17.7 13.3519 16.9781 14.1229 16.05 14.1229H14.25C13.3219 14.1229 12.6 13.3519 12.6 12.4484V11.0616ZM3.1082 20.25H3C2.58579 20.25 2.25 20.5858 2.25 21C2.25 21.4142 2.58579 21.75 3 21.75H21C21.4142 21.75 21.75 21.4142 21.75 21C21.75 20.5858 21.4142 20.25 21 20.25H20.8502V9.87824C20.8502 9.87824 19.9396 9.87937 19.3562 9.88009C19.3538 13.9298 19.3502 20.25 19.3502 20.25H15V17.7642C15 16.6018 14.0801 15.6275 12.9 15.6275H11.1C9.91992 15.6275 9 16.6018 9 17.7642V20.25H4.60822L4.65017 9.88128L3.15018 9.87521L3.1082 20.25ZM10.5 20.25H13.5V17.7642C13.5 17.392 13.2139 17.1275 12.9 17.1275H11.1C10.7861 17.1275 10.5 17.392 10.5 17.7642V20.25Z" fill="currentColor"/>
<path fill-rule="evenodd" clip-rule="evenodd" d="M12.6416 3.97609C12.2551 3.67273 11.7334 3.67717 11.3615 3.97425L5.06451 9.0104C4.80589 9.22177 4.65039 9.54477 4.65039 9.87825H3.15039C3.15039 9.08473 3.51606 8.33624 4.1202 7.84495L4.12494 7.84109L10.425 2.80258C11.3486 2.06463 12.6442 2.06843 13.5716 2.79921L13.5753 2.80215L14.586 3.60899H18.2735C18.6877 3.60899 19.0235 3.94478 19.0235 4.35899V7.15144L19.8829 7.8468C19.8829 7.8468 20.3685 8.20785 20.6205 8.80633C20.8502 9.35156 20.8527 9.88009 20.8527 9.88009H20.1045C20.1045 9.88009 19.6484 9.88009 19.3562 9.88009C19.3505 9.50402 19.2289 9.25136 18.9386 9.01225M17.5235 5.95399V5.10899H16.465L17.5235 5.95399Z" fill="currentColor"/>
</svg>
