<svg viewBox="0 0 24 24" fill="none" xmlns="http://www.w3.org/2000/svg">
  <path fill-rule="evenodd" clip-rule="evenodd"
    d="M7.73684 4.20001C7.16052 4.20001 6.68144 4.219 6.27028 4.27774C6.26234 4.27887 6.25438 4.27988 6.24641 4.28076C5.09999 4.40717 4.57631 4.71695 4.27414 5.17579C3.92752 5.70214 3.75 6.59321 3.75 8.18685V13.8711C3.75 15.4647 3.92752 16.3558 4.27414 16.8821C4.57631 17.341 5.09999 17.6507 6.24641 17.7772C6.25438 17.778 6.26234 17.779 6.27028 17.7802C6.68144 17.8389 7.16052 17.8579 7.73684 17.8579H8.87927C9.14813 17.8579 9.407 17.9413 9.6087 18.041C9.80759 18.1393 10.0361 18.2955 10.2012 18.5194L11.5486 20.3106C11.7244 20.5442 11.9055 20.6037 12.0293 20.6037C12.153 20.6037 12.3341 20.5442 12.5099 20.3106L13.8599 18.516L13.8628 18.5122C14.1738 18.1041 14.6632 17.8579 15.1793 17.8579H16.2632C16.8395 17.8579 17.3186 17.8389 17.7297 17.7802C17.7339 17.7796 17.7381 17.779 17.7423 17.7785C17.7461 17.778 17.7498 17.7776 17.7536 17.7772C18.9 17.6507 19.4237 17.341 19.7259 16.8821C20.0725 16.3558 20.25 15.4647 20.25 13.8711V8.18685C20.25 6.59321 20.0725 5.70214 19.7259 5.17579C19.4237 4.71695 18.9 4.40717 17.7536 4.28076C17.7456 4.27988 17.7377 4.27887 17.7297 4.27774C17.3186 4.219 16.8395 4.20001 16.2632 4.20001H7.73684ZM6.07015 2.79111C6.58411 2.71863 7.14305 2.70001 7.73684 2.70001H16.2632C16.8569 2.70001 17.4159 2.71863 17.9298 2.79111C19.2694 2.94056 20.3235 3.35601 20.9786 4.35081C21.5912 5.28104 21.75 6.57839 21.75 8.18685V13.8711C21.75 15.4795 21.5912 16.7769 20.9786 17.7071C20.3235 18.7019 19.2694 19.1174 17.9299 19.2668C17.4159 19.3393 16.8569 19.3579 16.2632 19.3579H15.1793C15.1377 19.3579 15.0876 19.3804 15.0566 19.4204C15.0563 19.4208 15.056 19.4211 15.0557 19.4215L13.7086 21.2123C13.2904 21.7683 12.6885 22.1037 12.0293 22.1037C11.37 22.1037 10.7681 21.7683 10.3499 21.2123L9.00352 19.4225C9.0026 19.4217 9.00153 19.4209 9.00028 19.4199C8.98835 19.4106 8.96906 19.398 8.94409 19.3857C8.91919 19.3734 8.8961 19.365 8.8789 19.3604C8.87432 19.3592 8.87087 19.3584 8.86855 19.3579H7.73684C7.14305 19.3579 6.5841 19.3393 6.07015 19.2668C4.73063 19.1174 3.6765 18.7019 3.02139 17.7071C2.40879 16.7769 2.25 15.4795 2.25 13.8711V8.18685C2.25 6.57839 2.40879 5.28104 3.02139 4.35081C3.6765 3.35601 4.73064 2.94056 6.07015 2.79111ZM8.13662 7.9544C7.63036 7.9544 7.21995 8.3648 7.21995 8.87106C7.21995 9.37733 7.63036 9.78773 8.13662 9.78773C8.64288 9.78773 9.05328 9.37733 9.05328 8.87106C9.05328 8.3648 8.64288 7.9544 8.13662 7.9544ZM5.71995 8.87106C5.71995 7.53638 6.80193 6.4544 8.13662 6.4544C9.4713 6.4544 10.5533 7.53638 10.5533 8.87106C10.5533 9.767 10.0657 10.5491 9.34148 10.9664C10.682 11.3725 11.75 12.4413 11.75 13.8711C11.75 14.2853 11.4142 14.6211 11 14.6211C10.5858 14.6211 10.25 14.2853 10.25 13.8711C10.25 13.1319 9.45379 12.2877 8.13667 12.2877C6.81954 12.2877 6.02334 13.1319 6.02334 13.8711C6.02334 14.2853 5.68755 14.6211 5.27334 14.6211C4.85912 14.6211 4.52334 14.2853 4.52334 13.8711C4.52334 12.4413 5.59135 11.3725 6.93179 10.9664C6.20751 10.5491 5.71995 9.76702 5.71995 8.87106ZM19.1396 8.0074C19.4325 8.30029 19.4325 8.77517 19.1396 9.06806L15.3896 12.8181C15.2489 12.9587 15.0582 13.0377 14.8593 13.0377C14.6604 13.0377 14.4696 12.9587 14.3289 12.8181L12.5789 11.0681C12.286 10.7752 12.286 10.3003 12.5789 10.0074C12.8718 9.71451 13.3467 9.71451 13.6396 10.0074L14.8593 11.2271L18.0789 8.0074C18.3718 7.71451 18.8467 7.71451 19.1396 8.0074Z"
    fill="currentColor" />
</svg>
