<svg viewBox="0 0 24 24" fill="none" xmlns="http://www.w3.org/2000/svg">
<path fill-rule="evenodd" clip-rule="evenodd" d="M3.93217 3.93217C5.15414 2.7102 6.97603 2.25 9.3 2.25H14.7C17.024 2.25 18.8459 2.7102 20.0678 3.93217C21.2898 5.15414 21.75 6.97603 21.75 9.3V14.7C21.75 17.024 21.2898 18.8459 20.0678 20.0678C18.8459 21.2898 17.024 21.75 14.7 21.75H9.3C6.97603 21.75 5.15414 21.2898 3.93217 20.0678C2.7102 18.8459 2.25 17.024 2.25 14.7V9.3C2.25 6.97603 2.7102 5.15414 3.93217 3.93217ZM4.99283 4.99283C4.1898 5.79586 3.75 7.12397 3.75 9.3V14.7C3.75 16.876 4.1898 18.2041 4.99283 19.0072C5.79586 19.8102 7.12397 20.25 9.3 20.25H14.7C16.876 20.25 18.2041 19.8102 19.0072 19.0072C19.8102 18.2041 20.25 16.876 20.25 14.7V9.3C20.25 7.12397 19.8102 5.79586 19.0072 4.99283C18.2041 4.1898 16.876 3.75 14.7 3.75H9.3C7.12397 3.75 5.79586 4.1898 4.99283 4.99283ZM8.56738 7.25C8.9816 7.25 9.31738 7.58579 9.31738 8V16C9.31738 16.4142 8.9816 16.75 8.56738 16.75C8.15317 16.75 7.81738 16.4142 7.81738 16V8C7.81738 7.58579 8.15317 7.25 8.56738 7.25ZM10.6745 8C10.6745 7.58579 11.0103 7.25 11.4245 7.25H13.4245C14.2128 7.25 14.9597 7.40306 15.4906 7.93396C16.0215 8.46485 16.1745 9.21174 16.1745 10V14C16.1745 14.7883 16.0215 15.5351 15.4906 16.066C14.9597 16.5969 14.2128 16.75 13.4245 16.75H11.4245C11.0103 16.75 10.6745 16.4142 10.6745 16V8ZM12.1745 8.75V15.25H13.4245C14.0648 15.25 14.3179 15.1173 14.4299 15.0054C14.5419 14.8934 14.6745 14.6403 14.6745 14V10C14.6745 9.35969 14.5419 9.10658 14.4299 8.99462C14.3179 8.88266 14.0648 8.75 13.4245 8.75H12.1745Z" fill="currentColor"/>
</svg>
