<svg viewBox="0 0 24 24" fill="none" xmlns="http://www.w3.org/2000/svg">
<path fill-rule="evenodd" clip-rule="evenodd" d="M11.9992 3.75C9.03131 3.75 6.67416 6.05977 6.67416 8.85C6.67416 8.86246 6.67385 8.87493 6.67322 8.88738C6.57348 10.8864 7.30524 12.0548 8.09599 12.9731C8.29168 13.2003 8.48974 13.4105 8.68975 13.6228L8.71831 13.6531C8.92259 13.87 9.13472 14.0959 9.32086 14.3232C9.68671 14.7699 10.0496 15.3344 10.0496 16.05C10.0496 16.4642 9.71383 16.8 9.29962 16.8C8.8854 16.8 8.54962 16.4642 8.54962 16.05C8.54962 15.8656 8.46253 15.6426 8.16038 15.2736C8.01254 15.0931 7.83618 14.9043 7.62648 14.6817C7.61526 14.6697 7.60396 14.6578 7.59259 14.6457C7.39676 14.4379 7.17766 14.2054 6.95937 13.9519C6.00862 12.8479 5.05502 11.3212 5.17418 8.83113C5.18472 5.16847 8.26315 2.25 11.9992 2.25C15.7352 2.25 18.8136 5.16846 18.8241 8.83113C18.9433 11.3212 17.9897 12.8479 17.0389 13.9519C16.8206 14.2054 16.6016 14.4379 16.4057 14.6457C16.3943 14.6578 16.383 14.6698 16.3718 14.6817C16.1621 14.9043 15.9858 15.0931 15.8379 15.2736C15.5358 15.6426 15.4487 15.8656 15.4487 16.05C15.4487 16.4642 15.1129 16.8 14.6987 16.8C14.2845 16.8 13.9487 16.4642 13.9487 16.05C13.9487 15.3344 14.3116 14.7699 14.6774 14.3232C14.8636 14.0959 15.0757 13.87 15.28 13.6531L15.3086 13.6228C15.5086 13.4105 15.7066 13.2003 15.9023 12.9731C16.6931 12.0548 17.4248 10.8864 17.3251 8.88738C17.3245 8.87493 17.3242 8.86246 17.3242 8.85C17.3242 6.05977 14.967 3.75 11.9992 3.75ZM8.54962 18.3C8.54962 17.8858 8.8854 17.55 9.29962 17.55H14.6987C15.1129 17.55 15.4487 17.8858 15.4487 18.3C15.4487 18.7142 15.1129 19.05 14.6987 19.05H9.29962C8.8854 19.05 8.54962 18.7142 8.54962 18.3ZM9.89962 21C9.89962 20.5858 10.2354 20.25 10.6496 20.25H13.3496C13.7638 20.25 14.0996 20.5858 14.0996 21C14.0996 21.4142 13.7638 21.75 13.3496 21.75H10.6496C10.2354 21.75 9.89962 21.4142 9.89962 21Z" fill="currentColor"/>
</svg>
