<svg viewBox="0 0 24 24" fill="none" xmlns="http://www.w3.org/2000/svg">
<path fill-rule="evenodd" clip-rule="evenodd" d="M3.93217 3.93217C5.15414 2.7102 6.97603 2.25 9.3 2.25H14.7C17.024 2.25 18.8459 2.7102 20.0678 3.93217C21.2898 5.15414 21.75 6.97603 21.75 9.3V14.7C21.75 17.024 21.2898 18.8459 20.0678 20.0678C18.8459 21.2898 17.024 21.75 14.7 21.75H9.3C6.97603 21.75 5.15414 21.2898 3.93217 20.0678C2.7102 18.8459 2.25 17.024 2.25 14.7V9.3C2.25 6.97603 2.7102 5.15414 3.93217 3.93217ZM3.75 13.65V14.7C3.75 16.876 4.1898 18.2041 4.99283 19.0072C5.79586 19.8102 7.12397 20.25 9.3 20.25H14.7C16.876 20.25 18.2041 19.8102 19.0072 19.0072C19.8102 18.2041 20.25 16.876 20.25 14.7V13.641H17.616C17.2188 13.641 16.8563 13.865 16.6761 14.2248C16.676 14.225 16.6762 14.2246 16.6761 14.2248L15.8748 15.8364C15.4429 16.7003 14.5636 17.25 13.593 17.25H10.416C10.1522 17.25 8.83924 17.2481 8.12763 15.8503L8.1244 15.8439L7.32418 14.2344C7.32406 14.2342 7.3243 14.2346 7.32418 14.2344C7.14399 13.8747 6.78117 13.65 6.384 13.65H3.75ZM20.25 12.141V9.3C20.25 7.12397 19.8102 5.79586 19.0072 4.99283C18.2041 4.1898 16.876 3.75 14.7 3.75H9.3C7.12397 3.75 5.79586 4.1898 4.99283 4.99283C4.1898 5.79586 3.75 7.12397 3.75 9.3V12.15H6.384C7.35457 12.15 8.23389 12.6997 8.66582 13.5636L8.66657 13.5651L9.46581 15.1725C9.76136 15.75 10.2449 15.75 10.4143 15.75H13.593C13.9902 15.75 14.3527 15.526 14.5329 15.1662C14.5328 15.1663 14.533 15.166 14.5329 15.1662L15.3334 13.5561L15.3342 13.5546C15.7661 12.6907 16.6454 12.141 17.616 12.141H20.25Z" fill="currentColor"/>
</svg>
