<svg viewBox="0 0 24 24" fill="none" xmlns="http://www.w3.org/2000/svg">
<path fill-rule="evenodd" clip-rule="evenodd" d="M11.7895 3.44507C11.4175 3.44507 11.087 3.51011 10.876 3.60458L10.8739 3.60553L4.97226 6.22626C4.19761 6.56802 4.14453 6.87722 4.14453 6.91007C4.14453 6.94291 4.19761 7.25212 4.97226 7.59388L4.97392 7.59461L10.876 10.2156C11.087 10.31 11.4175 10.3751 11.7895 10.3751C12.1615 10.3751 12.492 10.31 12.703 10.2156L12.7051 10.2146L18.6051 7.59461L18.6068 7.59388C19.3815 7.25212 19.4345 6.94291 19.4345 6.91007C19.4345 6.87722 19.3815 6.56802 18.6068 6.22626L12.7051 3.60552L12.703 3.60458C12.492 3.51011 12.1615 3.44507 11.7895 3.44507ZM13.3149 2.23505C12.8561 2.02989 12.3021 1.94507 11.7895 1.94507C11.2769 1.94507 10.723 2.02989 10.2642 2.23505C10.2638 2.23522 10.2634 2.23539 10.263 2.23555L4.3668 4.85388C4.36654 4.85399 4.36706 4.85377 4.3668 4.85388C3.44179 5.26216 2.64453 5.94818 2.64453 6.91007C2.64453 7.87191 3.44095 8.55758 4.36592 8.96587C4.36563 8.96574 4.36621 8.966 4.36592 8.96587L10.263 11.5846C10.2635 11.5848 10.2639 11.585 10.2643 11.5852C10.7231 11.7903 11.277 11.8751 11.7895 11.8751C12.3021 11.8751 12.856 11.7903 13.3148 11.5851C13.3152 11.5849 13.3156 11.5848 13.316 11.5846L19.2123 8.96626C19.212 8.96637 19.2125 8.96614 19.2123 8.96626C20.1373 8.55797 20.9345 7.87195 20.9345 6.91007C20.9345 5.94816 20.138 5.26246 19.213 4.85419C19.2127 4.85408 19.2132 4.85429 19.213 4.85419L13.316 2.23555C13.3157 2.23539 13.3153 2.23522 13.3149 2.23505ZM3 10.2501C3.41421 10.2501 3.75 10.5858 3.75 11.0001C3.75 11.2435 3.84628 11.556 4.0399 11.8535C4.23351 12.1511 4.48007 12.3656 4.70295 12.464L4.70479 12.4648L11.4934 15.4842C11.4932 15.4841 11.4936 15.4842 11.4934 15.4842C11.8219 15.6293 12.1898 15.627 12.5017 15.4864L12.5052 15.4848L19.2952 12.4648L19.2971 12.464C19.5199 12.3656 19.7665 12.1511 19.9601 11.8535C20.1537 11.556 20.25 11.2435 20.25 11.0001C20.25 10.5858 20.5858 10.2501 21 10.2501C21.4142 10.2501 21.75 10.5858 21.75 11.0001C21.75 11.5967 21.5313 12.1892 21.2174 12.6716C20.9037 13.1538 20.4505 13.5942 19.9037 13.8358C19.9035 13.8359 19.904 13.8357 19.9037 13.8358L13.1183 16.8538C13.1177 16.854 13.1171 16.8543 13.1164 16.8546C12.409 17.173 11.5973 17.1703 10.8866 16.856L4.09705 13.8362C4.09674 13.836 4.09643 13.8359 4.09611 13.8357C3.54941 13.5941 3.09631 13.1537 2.7826 12.6716C2.46872 12.1892 2.25 11.5967 2.25 11.0001C2.25 10.5858 2.58579 10.2501 3 10.2501ZM3 15.2501C3.41421 15.2501 3.75 15.5858 3.75 16.0001C3.75 16.6308 4.12293 17.2044 4.70549 17.4651C4.70529 17.465 4.70569 17.4652 4.70549 17.4651L11.4934 20.4842C11.4931 20.484 11.4937 20.4843 11.4934 20.4842C11.8218 20.6291 12.1899 20.627 12.5017 20.4864L12.5052 20.4848L19.2939 17.4654C19.2937 17.4655 19.2941 17.4653 19.2939 17.4654C19.8765 17.2046 20.25 16.6308 20.25 16.0001C20.25 15.5858 20.5858 15.2501 21 15.2501C21.4142 15.2501 21.75 15.5858 21.75 16.0001C21.75 17.2291 21.0232 18.3353 19.9061 18.8348L19.9048 18.8353L13.1183 21.8538C13.1176 21.8541 13.1168 21.8544 13.1161 21.8548C12.4087 22.173 11.5972 22.1702 10.8866 21.856L10.8852 21.8553L4.09521 18.8353L4.0939 18.8348C2.97681 18.3353 2.25 17.2291 2.25 16.0001C2.25 15.5858 2.58579 15.2501 3 15.2501Z" fill="currentColor"/>
</svg>
