<svg viewBox="0 0 24 24" fill="none" xmlns="http://www.w3.org/2000/svg">
<path d="M10.0501 8.09954L10.1001 9.24954L9.30012 10.7495L8.05012 13.1995L7.80012 15.2495L8.70012 18.1495L10.7501 19.2995H13.8501L16.7501 17.0995L18.0501 13.6495L15.0501 9.99954L14.2001 7.94954L10.0501 8.09954Z" fill="#ECEFF1"/>
<path d="M17.1501 10.9495C16.3501 9.79954 15.7001 9.09954 15.3501 7.64954C15.0001 6.19954 15.4501 6.59954 15.1501 5.34954C15.0001 4.69954 14.7501 4.24954 14.5001 3.89954C14.2001 3.54954 13.8501 3.34954 13.6501 3.29954C13.2001 3.04954 12.1501 2.64954 10.8501 3.34954C9.50012 4.04954 9.65012 5.54954 9.90012 8.59954C9.90012 8.79954 9.85012 9.04954 9.75012 9.24954C9.55012 9.69954 9.20012 10.0995 8.90012 10.4495C8.55012 10.9495 8.20012 11.4495 7.95012 11.9995C7.35012 13.1495 6.80012 14.5995 6.95012 15.1495C7.20012 15.0995 10.3501 19.8995 10.3501 19.9995C10.5501 19.9495 11.4001 19.9495 12.1501 19.9495C13.2001 19.8995 13.8001 19.8495 14.6501 20.0495C14.6501 19.8995 14.6001 19.7495 14.6001 19.5995C14.6001 19.2995 14.6501 19.0495 14.7001 18.6995C14.7501 18.4495 14.8001 18.1995 14.8501 17.8995C14.3501 18.3495 13.4501 18.8495 12.6001 18.9995C11.8501 19.1495 10.6001 18.8995 10.0001 18.1495C10.0501 18.1495 10.1501 18.1495 10.2001 18.0995C10.3501 18.0495 10.5001 17.9995 10.5501 17.8995C10.7001 17.6495 10.6001 17.3995 10.5001 17.2495C10.4001 17.0995 9.65012 16.5495 9.30012 16.2495C8.95012 15.9495 8.75012 15.7995 8.55012 15.5995L8.15012 15.1995C8.05012 15.0995 8.00012 14.9995 7.95012 14.9495C7.85012 14.6995 7.80012 14.3995 7.85012 13.9995C7.90012 13.4495 8.10012 12.9995 8.35012 12.4995C8.45012 12.2995 8.70012 11.8995 8.70012 11.8995C8.70012 11.8995 7.85012 13.9995 8.30012 14.6495C8.30012 14.6495 8.35012 13.9995 8.55012 13.3495C8.70012 12.8995 8.95012 12.2495 9.25012 11.8995C9.55012 11.5495 10.3001 10.2495 10.3501 9.44954C10.3501 9.09954 10.4001 8.74954 10.4001 8.49954C10.2001 8.29954 13.7001 7.79954 13.9001 8.34954C13.9501 8.54954 14.6501 10.3495 15.0501 11.2995C15.2501 11.7495 15.5001 12.1495 15.6501 12.6495C15.8001 13.1995 15.9001 13.9495 15.9001 14.6995C15.9001 14.8495 15.9001 15.0995 15.8501 15.3495C15.9501 15.3495 17.9001 13.2495 15.6001 11.4995C15.6001 11.4995 17.0001 12.1495 17.0501 13.4495C17.1001 14.4995 16.6501 15.3495 16.5501 15.4995C16.6001 15.4995 17.6001 15.9495 17.6501 15.9495C17.8501 15.9495 18.2501 15.7995 18.2501 15.7995C18.3001 15.6495 18.4501 15.2495 18.4501 15.0995C18.8001 13.9495 17.9501 12.0995 17.1501 10.9495Z" fill="#263238"/>
<path d="M10.8001 7.64954C11.1591 7.64954 11.4501 7.20182 11.4501 6.64954C11.4501 6.09725 11.1591 5.64954 10.8001 5.64954C10.4411 5.64954 10.1501 6.09725 10.1501 6.64954C10.1501 7.20182 10.4411 7.64954 10.8001 7.64954Z" fill="#ECEFF1"/>
<path d="M13.0501 7.74954C13.5196 7.74954 13.9001 7.23466 13.9001 6.59954C13.9001 5.96441 13.5196 5.44954 13.0501 5.44954C12.5807 5.44954 12.2001 5.96441 12.2001 6.59954C12.2001 7.23466 12.5807 7.74954 13.0501 7.74954Z" fill="#ECEFF1"/>
<path d="M11.1636 6.71787C11.122 6.38912 10.9329 6.14226 10.7411 6.1665C10.5493 6.19074 10.4275 6.4769 10.4691 6.80565C10.5107 7.13441 10.6998 7.38127 10.8916 7.35702C11.0834 7.33278 11.2051 7.04663 11.1636 6.71787Z" fill="#212121"/>
<path d="M13.0001 7.44954C13.2763 7.44954 13.5001 7.15852 13.5001 6.79954C13.5001 6.44055 13.2763 6.14954 13.0001 6.14954C12.724 6.14954 12.5001 6.44055 12.5001 6.79954C12.5001 7.15852 12.724 7.44954 13.0001 7.44954Z" fill="#212121"/>
<path d="M19.6501 17.7995C19.4501 17.6995 19.1001 17.5495 18.8001 17.0995C18.6501 16.8495 18.7001 16.1495 18.4501 15.8495C18.3001 15.6495 18.1001 15.7495 18.0501 15.7495C17.6001 15.8495 16.5501 16.5495 15.8501 15.7495C15.7501 15.6495 15.6001 15.4995 15.3501 15.4995C15.1001 15.4995 15.0001 15.5995 14.9001 15.7995C14.8001 15.9995 14.8001 16.1495 14.8001 16.6495C14.8001 17.0495 14.8001 17.4995 14.7501 17.8495C14.6501 18.6995 14.5001 19.1995 14.5001 19.6995C14.5001 20.2495 14.6501 20.5995 14.8501 20.7495C15.0001 20.8995 15.2501 20.9995 15.8001 20.9995C16.3501 20.9995 16.7001 20.7995 17.0501 20.4495C17.3001 20.1995 17.5001 20.0995 18.2001 19.5995C18.7501 19.2495 19.6001 18.7995 19.7501 18.6495C19.8501 18.5495 20.0001 18.4995 20.0001 18.1995C20.0001 17.9495 19.8001 17.8495 19.6501 17.7995ZM9.60012 17.9495C9.10012 17.1495 9.05012 16.9995 8.70012 16.4995C8.40012 15.9995 7.75012 15.0495 7.35012 15.0495C7.05012 15.0495 6.90012 15.1995 6.70012 15.3995C6.50012 15.5995 6.30012 16.0495 5.95012 16.2995C5.65012 16.5495 4.80012 16.4995 4.60012 16.7995C4.40012 17.0995 4.80012 17.5495 4.80012 18.2995C4.80012 18.5995 4.55012 18.7995 4.50012 18.9995C4.45012 19.2495 4.40012 19.3995 4.50012 19.5995C4.70012 19.8995 4.95012 19.9995 6.65012 20.3495C7.55012 20.5495 8.40012 21.0495 8.95012 21.0995C9.50012 21.1495 10.4501 21.0995 10.4501 19.7495C10.5001 18.9495 10.0501 18.7495 9.60012 17.9495ZM10.5501 8.89954C10.2501 8.69954 10.0001 8.49954 10.0001 8.19954C10.0001 7.89954 10.2001 7.79954 10.5001 7.54954C10.5501 7.49954 11.1001 6.99954 11.6501 6.99954C12.2001 6.99954 12.8501 7.34954 13.1001 7.44954C13.5501 7.54954 14.0001 7.64954 13.9501 7.99954C13.9001 8.49954 13.8501 8.59954 13.3501 8.84954C13.0001 8.94954 12.3501 9.49954 11.9001 9.49954C11.7001 9.49954 11.4001 9.49954 11.2001 9.44954C11.0501 9.39954 10.8001 9.14954 10.5501 8.89954Z" fill="#FFC107"/>
<path d="M10.4501 8.49954C10.5501 8.59954 10.7001 8.69954 10.8501 8.74954C10.9501 8.79954 11.1001 8.84954 11.1001 8.84954H11.5501C11.8001 8.84954 12.1501 8.74954 12.5001 8.54954C12.8501 8.39954 12.9001 8.29954 13.1501 8.19954C13.4001 8.04954 13.6501 7.89954 13.5501 7.84954C13.4501 7.79954 13.3501 7.84954 13.0001 8.04954C12.7001 8.24954 12.4501 8.34954 12.1501 8.49954C12.0001 8.54954 11.8001 8.64954 11.6501 8.64954H11.2001C11.0501 8.64954 10.9501 8.59954 10.8001 8.54954C10.7001 8.49954 10.6501 8.44954 10.6001 8.44954C10.5001 8.39954 10.3001 8.19954 10.2001 8.14954C10.2001 8.14954 10.1001 8.14954 10.1501 8.19954L10.4501 8.49954ZM11.9501 7.39954C12.0001 7.49954 12.1001 7.49954 12.1501 7.54954C12.2001 7.59954 12.2501 7.59954 12.2501 7.59954C12.3001 7.54954 12.2501 7.44954 12.2001 7.44954C12.2001 7.34954 11.9501 7.34954 11.9501 7.39954ZM11.1501 7.49954C11.1501 7.54954 11.2501 7.59954 11.2501 7.54954C11.3001 7.49954 11.3501 7.44954 11.4001 7.44954C11.5001 7.39954 11.4501 7.34954 11.3001 7.34954C11.2001 7.39954 11.2001 7.44954 11.1501 7.49954Z" fill="#634703"/>
<path d="M16.0001 16.3495V16.4995C16.1001 16.6995 16.3501 16.7495 16.5501 16.7495C16.8501 16.7495 17.1501 16.5495 17.3001 16.3495C17.3001 16.2995 17.3501 16.2495 17.4001 16.1995C17.5001 16.0495 17.5501 15.9495 17.6001 15.8995C17.6001 15.8995 17.5501 15.8495 17.5501 15.7995C17.5001 15.6995 17.3501 15.5995 17.1501 15.5495C17.0001 15.4995 16.7501 15.4495 16.6501 15.4495C16.2001 15.3995 15.9501 15.5495 15.8001 15.6995C15.8001 15.6995 15.8501 15.6995 15.8501 15.7495C15.9501 15.8495 16.0001 15.9495 16.0001 16.0995C16.0501 16.1995 16.0001 16.2495 16.0001 16.3495Z" fill="#455A64"/>
</svg>
