<svg  viewBox="0 0 24 24" fill="none" xmlns="http://www.w3.org/2000/svg">
<path fill-rule="evenodd" clip-rule="evenodd" d="M3.75 7C3.75 6.58579 4.08579 6.25 4.5 6.25H6.5C6.91421 6.25 7.25 6.58579 7.25 7C7.25 7.41421 6.91421 7.75 6.5 7.75H4.5C4.08579 7.75 3.75 7.41421 3.75 7ZM8.75 7C8.75 6.58579 9.08579 6.25 9.5 6.25H19.5C19.9142 6.25 20.25 6.58579 20.25 7C20.25 7.41421 19.9142 7.75 19.5 7.75H9.5C9.08579 7.75 8.75 7.41421 8.75 7ZM3.75 12C3.75 11.5858 4.08579 11.25 4.5 11.25H6.5C6.91421 11.25 7.25 11.5858 7.25 12C7.25 12.4142 6.91421 12.75 6.5 12.75H4.5C4.08579 12.75 3.75 12.4142 3.75 12ZM8.75 12C8.75 11.5858 9.08579 11.25 9.5 11.25H19.5C19.9142 11.25 20.25 11.5858 20.25 12C20.25 12.4142 19.9142 12.75 19.5 12.75H9.5C9.08579 12.75 8.75 12.4142 8.75 12ZM3.75 17C3.75 16.5858 4.08579 16.25 4.5 16.25H6.5C6.91421 16.25 7.25 16.5858 7.25 17C7.25 17.4142 6.91421 17.75 6.5 17.75H4.5C4.08579 17.75 3.75 17.4142 3.75 17ZM8.75 17C8.75 16.5858 9.08579 16.25 9.5 16.25H19.5C19.9142 16.25 20.25 16.5858 20.25 17C20.25 17.4142 19.9142 17.75 19.5 17.75H9.5C9.08579 17.75 8.75 17.4142 8.75 17Z" fill="currentColor"/>
</svg>
