<svg viewBox="0 0 24 24" fill="none" xmlns="http://www.w3.org/2000/svg">
<path fill-rule="evenodd" clip-rule="evenodd" d="M12.003 2.75C8.58622 2.74769 5.24436 4.73032 4.35113 8.65591C3.29407 13.3261 6.1878 17.3762 8.9099 19.9997C10.6404 21.661 13.3604 21.659 15.0789 20.0004L15.0802 19.999C17.8122 17.3756 20.7054 13.3354 19.6482 8.6656L19.6482 8.66556C18.7597 4.73971 15.4199 2.75231 12.003 2.75ZM21.1112 8.33441C20.0397 3.60029 15.9845 1.25269 12.004 1.25C8.02334 1.24731 3.96532 3.58953 2.8884 8.32364L2.88822 8.32441C1.64552 13.8139 5.0715 18.3836 7.86926 21.08L7.8702 21.0809C10.1796 23.2989 13.8188 23.3008 16.1202 21.08C18.928 18.3834 22.3539 13.8239 21.1112 8.33441ZM11.9999 7.94C10.691 7.94 9.62989 9.00109 9.62989 10.31C9.62989 11.6189 10.691 12.68 11.9999 12.68C13.3088 12.68 14.3699 11.6189 14.3699 10.31C14.3699 9.00109 13.3088 7.94 11.9999 7.94ZM8.12989 10.31C8.12989 8.17266 9.86255 6.44 11.9999 6.44C14.1372 6.44 15.8699 8.17266 15.8699 10.31C15.8699 12.4473 14.1372 14.18 11.9999 14.18C9.86255 14.18 8.12989 12.4473 8.12989 10.31Z" fill="currentColor"/>
</svg>
