<svg  viewBox="0 0 24 24" fill="none" xmlns="http://www.w3.org/2000/svg">
<path fill-rule="evenodd" clip-rule="evenodd" d="M8.7098 5.0195C8.1529 5.79728 7.95 6.94462 7.95 8.4V9.45007C7.96663 9.45002 7.9833 9.45 8 9.45H16C16.0167 9.45 16.0334 9.45002 16.05 9.45007V8.4C16.05 6.94462 15.8471 5.79728 15.2902 5.0195C14.7734 4.29768 13.8413 3.75 12 3.75C10.1587 3.75 9.22664 4.29768 8.7098 5.0195ZM17.55 9.54593V8.4C17.55 6.87638 17.3529 5.32372 16.5098 4.14625C15.6266 2.91282 14.1587 2.25 12 2.25C9.84133 2.25 8.37336 2.91282 7.4902 4.14625C6.6471 5.32372 6.45 6.87638 6.45 8.4V9.54593C5.54274 9.68119 4.7886 9.98392 4.23944 10.6017C3.43019 11.5121 3.25 12.9149 3.25 14.7V16.5C3.25 18.2851 3.43019 19.6879 4.23944 20.5983C5.07725 21.5408 6.39213 21.75 8 21.75H16C17.6079 21.75 18.9228 21.5408 19.7606 20.5983C20.5698 19.6879 20.75 18.2851 20.75 16.5V14.7C20.75 12.9149 20.5698 11.5121 19.7606 10.6017C19.2114 9.98392 18.4573 9.68119 17.55 9.54593ZM5.36056 11.5983C4.96981 12.0379 4.75 12.8851 4.75 14.7V16.5C4.75 18.3148 4.96981 19.1621 5.36056 19.6017C5.72275 20.0092 6.40787 20.25 8 20.25H16C17.5921 20.25 18.2772 20.0092 18.6394 19.6017C19.0302 19.1621 19.25 18.3148 19.25 16.5V14.7C19.25 12.8851 19.0302 12.0379 18.6394 11.5983C18.2772 11.1908 17.5921 10.95 16 10.95H8C6.40787 10.95 5.72275 11.1908 5.36056 11.5983ZM12 14.1C11.1716 14.1 10.5 14.7715 10.5 15.6C10.5 16.4284 11.1716 17.1 12 17.1C12.8284 17.1 13.5 16.4284 13.5 15.6C13.5 14.7715 12.8284 14.1 12 14.1ZM9 15.6C9 13.9431 10.3431 12.6 12 12.6C13.6569 12.6 15 13.9431 15 15.6C15 17.2568 13.6569 18.6 12 18.6C10.3431 18.6 9 17.2568 9 15.6Z" fill="currentColor"/>
</svg>
