<svg  viewBox="0 0 24 24" fill="none" xmlns="http://www.w3.org/2000/svg">
<path fill-rule="evenodd" clip-rule="evenodd" d="M4.61485 4.25C4.20064 4.25 3.86485 4.58579 3.86485 5V19.0004C3.86485 19.4146 4.20064 19.7504 4.61485 19.7504C5.02906 19.7504 5.36485 19.4146 5.36485 19.0004V5C5.36485 4.58579 5.02906 4.25 4.61485 4.25ZM12.3139 8.30166C12.021 8.00875 11.5461 8.00874 11.2532 8.30162L8.08453 11.4701C7.94388 11.6108 7.86485 11.8015 7.86485 12.0004C7.86484 12.1994 7.94386 12.3901 8.0845 12.5308L11.2532 15.6996C11.5461 15.9925 12.0209 15.9926 12.3138 15.6997C12.6067 15.4068 12.6068 14.9319 12.3139 14.639L10.4254 12.7505H19.3789C19.7931 12.7505 20.1289 12.4147 20.1289 12.0005C20.1289 11.5862 19.7931 11.2505 19.3789 11.2505H10.4256L12.3138 9.36232C12.6067 9.06943 12.6068 8.59456 12.3139 8.30166Z" fill="currentColor"/>
</svg>
