<svg  viewBox="0 0 24 24" fill="none" xmlns="http://www.w3.org/2000/svg">
<path fill-rule="evenodd" clip-rule="evenodd" d="M4.9054 4.9054C4.16299 5.6478 3.75 6.88132 3.75 8.92118V15.0788C3.75 17.1187 4.16299 18.3522 4.9054 19.0946C5.6478 19.837 6.88132 20.25 8.92118 20.25H9C9.41421 20.25 9.75 20.5858 9.75 21C9.75 21.4142 9.41421 21.75 9 21.75H8.92118C6.73297 21.75 5.0059 21.3164 3.84474 20.1553C2.68357 18.9941 2.25 17.267 2.25 15.0788V8.92118C2.25 6.73297 2.68357 5.0059 3.84474 3.84474C5.0059 2.68357 6.73297 2.25 8.92118 2.25H9C9.41421 2.25 9.75 2.58579 9.75 3C9.75 3.41421 9.41421 3.75 9 3.75H8.92118C6.88132 3.75 5.6478 4.16299 4.9054 4.9054ZM16.301 8.30484C16.5939 8.01196 17.0688 8.01197 17.3617 8.30487L20.5303 11.4737C20.8232 11.7666 20.8232 12.2415 20.5303 12.5344L17.3616 15.7029C17.0687 15.9958 16.5939 15.9958 16.301 15.7029C16.0081 15.41 16.0081 14.9351 16.301 14.6422L18.1893 12.7541H9.23594C8.82173 12.7541 8.48594 12.4183 8.48594 12.0041C8.48594 11.5898 8.82173 11.2541 9.23594 11.2541H18.1894L16.301 9.3655C16.0081 9.0726 16.0081 8.59772 16.301 8.30484Z" fill="currentColor"/>
</svg>
