<svg viewBox="0 0 24 24" fill="none" xmlns="http://www.w3.org/2000/svg">
<path fill-rule="evenodd" clip-rule="evenodd" d="M4.87954 4.87709C4.17029 5.58421 3.75 6.70541 3.75 8.38385V12.8704C3.75 15.0485 4.19343 16.1129 4.84304 16.6796C5.51814 17.2685 6.613 17.5042 8.4 17.5042H8.85C9.11886 17.5042 9.37773 17.5876 9.57943 17.6873C9.77833 17.7856 10.0068 17.9419 10.1719 18.1657L11.5194 19.9569C11.6951 20.1906 11.8763 20.25 12 20.25C12.1237 20.25 12.3049 20.1906 12.4806 19.9569L13.8306 18.1623L13.8335 18.1585C14.1446 17.7505 14.634 17.5042 15.15 17.5042H15.6C17.285 17.5042 18.4108 17.0847 19.1205 16.3772C19.8297 15.67 20.25 14.5488 20.25 12.8704V8.38385C20.25 6.70541 19.8297 5.58421 19.1205 4.87709C18.4108 4.16955 17.285 3.75 15.6 3.75H8.4C6.71504 3.75 5.5892 4.16955 4.87954 4.87709ZM3.82046 3.81484C4.9108 2.72776 6.48496 2.25 8.4 2.25H15.6C17.515 2.25 19.0892 2.72776 20.1795 3.81484C21.2703 4.90233 21.75 6.47306 21.75 8.38385V12.8704C21.75 14.7812 21.2703 16.3519 20.1795 17.4394C19.0892 18.5265 17.515 19.0042 15.6 19.0042H15.15C15.1084 19.0042 15.0584 19.0268 15.0273 19.0667C15.027 19.0671 15.0267 19.0675 15.0265 19.0678L13.6794 20.8586C13.2611 21.4146 12.6593 21.75 12 21.75C11.3407 21.75 10.7389 21.4146 10.3206 20.8586L8.97425 19.0688C8.97333 19.0681 8.97226 19.0672 8.97101 19.0662C8.95908 19.057 8.93979 19.0444 8.91481 19.032C8.88992 19.0197 8.86683 19.0114 8.84963 19.0067C8.84505 19.0055 8.84161 19.0047 8.83928 19.0042H8.4C6.587 19.0042 4.98186 18.7913 3.85696 17.8099C2.70657 16.8063 2.25 15.1789 2.25 12.8704V8.38385C2.25 6.47306 2.72971 4.90233 3.82046 3.81484ZM6.75 8.38385C6.75 7.96964 7.08579 7.63385 7.5 7.63385H16.5C16.9142 7.63385 17.25 7.96964 17.25 8.38385C17.25 8.79806 16.9142 9.13385 16.5 9.13385H7.5C7.08579 9.13385 6.75 8.79806 6.75 8.38385ZM6.75 12.8704C6.75 12.4562 7.08579 12.1204 7.5 12.1204H12.9C13.3142 12.1204 13.65 12.4562 13.65 12.8704C13.65 13.2846 13.3142 13.6204 12.9 13.6204H7.5C7.08579 13.6204 6.75 13.2846 6.75 12.8704Z" fill="currentColor"/>
</svg>
