<svg  viewBox="0 0 24 24" fill="none" xmlns="http://www.w3.org/2000/svg">
<path fill-rule="evenodd" clip-rule="evenodd" d="M21.5303 2.46967C21.8232 2.76256 21.8232 3.23744 21.5303 3.53033L15.3107 9.75H19.5C19.9142 9.75 20.25 10.0858 20.25 10.5C20.25 10.9142 19.9142 11.25 19.5 11.25H13.5C13.0858 11.25 12.75 10.9142 12.75 10.5V4.5C12.75 4.08579 13.0858 3.75 13.5 3.75C13.9142 3.75 14.25 4.08579 14.25 4.5V8.68934L20.4697 2.46967C20.7626 2.17678 21.2374 2.17678 21.5303 2.46967ZM4.5 14.25C4.08579 14.25 3.75 13.9142 3.75 13.5C3.75 13.0858 4.08579 12.75 4.5 12.75H10.5C10.9142 12.75 11.25 13.0858 11.25 13.5V19.5C11.25 19.9142 10.9142 20.25 10.5 20.25C10.0858 20.25 9.75 19.9142 9.75 19.5V15.3107L3.53033 21.5303C3.23744 21.8232 2.76256 21.8232 2.46967 21.5303C2.17678 21.2374 2.17678 20.7626 2.46967 20.4697L8.68934 14.25H4.5Z" fill="currentColor"/>
</svg>
