<svg viewBox="0 0 24 24" fill="none" xmlns="http://www.w3.org/2000/svg">
<path fill-rule="evenodd" clip-rule="evenodd" d="M4.43033 4.43033C3.99384 4.86682 3.75 5.69464 3.75 7.5V16.5C3.75 18.3054 3.99384 19.1332 4.43033 19.5697C4.86682 20.0062 5.69464 20.25 7.5 20.25H16.5C18.3054 20.25 19.1332 20.0062 19.5697 19.5697C20.0062 19.1332 20.25 18.3054 20.25 16.5V11.1C20.25 9.29464 20.0062 8.46682 19.5697 8.03033C19.1332 7.59384 18.3054 7.35 16.5 7.35H13.8C13.2823 7.35 12.8522 7.27388 12.4828 7.05062C12.1549 6.85243 11.9417 6.57039 11.7919 6.37219C11.782 6.35901 11.7723 6.3462 11.7629 6.33381L11.76 6.33001L11.76 6.33L10.41 4.53C10.1356 4.16413 10.0171 4.02221 9.85766 3.92641C9.71594 3.84128 9.46007 3.75 8.85 3.75H7.5C5.69464 3.75 4.86682 3.99384 4.43033 4.43033ZM3.36967 3.36967C4.28318 2.45616 5.70536 2.25 7.5 2.25H8.85C9.58993 2.25 10.1576 2.35672 10.6301 2.64059C11.0651 2.90191 11.3462 3.27747 11.5786 3.58805C11.5892 3.60217 11.5996 3.61616 11.61 3.63L12.9585 5.42805C13.1484 5.67776 13.1991 5.73084 13.2587 5.76688C13.2988 5.79112 13.4177 5.85 13.8 5.85H16.5C18.2946 5.85 19.7168 6.05616 20.6303 6.96967C21.5438 7.88318 21.75 9.30536 21.75 11.1V16.5C21.75 18.2946 21.5438 19.7168 20.6303 20.6303C19.7168 21.5438 18.2946 21.75 16.5 21.75H7.5C5.70536 21.75 4.28318 21.5438 3.36967 20.6303C2.45616 19.7168 2.25 18.2946 2.25 16.5V7.5C2.25 5.70536 2.45616 4.28318 3.36967 3.36967ZM11.9999 9.86248C12.1988 9.86248 12.3896 9.9415 12.5302 10.0822L14.8065 12.3584C15.0994 12.6513 15.0994 13.1262 14.8065 13.4191C14.5136 13.712 14.0387 13.712 13.7458 13.4191L12.7499 12.4231V16.9875C12.7499 17.4017 12.4141 17.7375 11.9999 17.7375C11.5857 17.7375 11.2499 17.4017 11.2499 16.9875V12.4231L10.254 13.4191C9.96107 13.712 9.4862 13.712 9.1933 13.4191C8.90041 13.1262 8.90041 12.6513 9.1933 12.3584L11.4696 10.0822C11.6102 9.9415 11.801 9.86248 11.9999 9.86248Z" fill="currentColor"/>
</svg>
