<svg viewBox="0 0 24 24" fill="none" xmlns="http://www.w3.org/2000/svg">
<path fill-rule="evenodd" clip-rule="evenodd" d="M20.25 19.2C20.25 18.6201 19.7799 18.15 19.2 18.15C18.6201 18.15 18.15 18.6201 18.15 19.2C18.15 19.7799 18.6201 20.25 19.2 20.25C19.7799 20.25 20.25 19.7799 20.25 19.2ZM19.95 16.7621C20.9923 17.0824 21.75 18.0527 21.75 19.2C21.75 20.6083 20.6083 21.75 19.2 21.75C17.7917 21.75 16.65 20.6083 16.65 19.2C16.65 18.0527 17.4077 17.0824 18.45 16.7621V13.8C18.45 13.0156 18.2544 12.5651 17.9947 12.3053C17.7349 12.0456 17.2844 11.85 16.5 11.85H12.75V16.7621C13.7923 17.0824 14.55 18.0527 14.55 19.2C14.55 20.6083 13.4083 21.75 12 21.75C10.5917 21.75 9.45 20.6083 9.45 19.2C9.45 18.0527 10.2077 17.0824 11.25 16.7621V11.85H7.5C6.71561 11.85 6.26507 12.0456 6.00533 12.3053C5.74559 12.5651 5.55 13.0156 5.55 13.8V16.7621C6.5923 17.0824 7.35 18.0527 7.35 19.2C7.35 20.6083 6.20833 21.75 4.8 21.75C3.39167 21.75 2.25 20.6083 2.25 19.2C2.25 18.0527 3.0077 17.0824 4.05 16.7621V13.8C4.05 12.7844 4.30441 11.8849 4.94467 11.2447C5.58493 10.6044 6.48439 10.35 7.5 10.35H11.25V7.23792C10.2077 6.91765 9.45 5.94731 9.45 4.8C9.45 3.39167 10.5917 2.25 12 2.25C13.4083 2.25 14.55 3.39167 14.55 4.8C14.55 5.94731 13.7923 6.91765 12.75 7.23792V10.35H16.5C17.5156 10.35 18.4151 10.6044 19.0553 11.2447C19.6956 11.8849 19.95 12.7844 19.95 13.8V16.7621ZM13.05 4.8C13.05 4.2201 12.5799 3.75 12 3.75C11.4201 3.75 10.95 4.2201 10.95 4.8C10.95 5.3799 11.4201 5.85 12 5.85C12.5799 5.85 13.05 5.3799 13.05 4.8ZM13.05 19.2C13.05 18.6201 12.5799 18.15 12 18.15C11.4201 18.15 10.95 18.6201 10.95 19.2C10.95 19.7799 11.4201 20.25 12 20.25C12.5799 20.25 13.05 19.7799 13.05 19.2ZM5.85 19.2C5.85 18.6201 5.3799 18.15 4.8 18.15C4.2201 18.15 3.75 18.6201 3.75 19.2C3.75 19.7799 4.2201 20.25 4.8 20.25C5.3799 20.25 5.85 19.7799 5.85 19.2Z" fill="currentColor"/>
</svg>
