<svg viewBox="0 0 24 24" fill="none" xmlns="http://www.w3.org/2000/svg">
<g id="network-on">
<path id="Vector (Stroke)" fill-rule="evenodd" clip-rule="evenodd" d="M9.55531 3.24781C8.83802 3.55263 8.17733 3.99178 7.61179 4.54942C6.62458 5.52285 5.99428 6.79135 5.8079 8.15101H8.46986C8.50113 7.48433 8.56911 6.82897 8.67224 6.20311C8.80124 5.37486 9.01805 4.56268 9.31901 3.78032L9.32328 3.76921C9.39596 3.58888 9.47332 3.4147 9.55531 3.24781ZM11.9994 1.25C9.9631 1.25 8.00862 2.05156 6.55861 3.48133C5.1086 4.9111 4.27957 6.85418 4.25077 8.8904C4.23625 9.91726 4.42595 10.9368 4.80883 11.8897C5.19171 12.8426 5.76015 13.7099 6.48112 14.4412C7.20208 15.1725 8.06119 15.7532 9.00852 16.1495C9.72446 16.4491 10.4803 16.6388 11.25 16.7136V17.3535C10.3342 17.6125 9.61256 18.3342 9.35353 19.25H6.00001C5.5858 19.25 5.25001 19.5858 5.25001 20C5.25001 20.4142 5.5858 20.75 6.00001 20.75H9.35353C9.67999 21.9043 10.7412 22.75 12 22.75C13.2588 22.75 14.32 21.9043 14.6465 20.75H18C18.4142 20.75 18.75 20.4142 18.75 20C18.75 19.5858 18.4142 19.25 18 19.25H14.6465C14.3875 18.3342 13.6658 17.6125 12.75 17.3535V16.7136C13.5194 16.6388 14.2745 16.449 14.9903 16.1495C15.9376 15.7532 16.7967 15.1725 17.5177 14.4412C18.2387 13.7099 18.8071 12.8426 19.19 11.8897C19.5659 10.9542 19.7556 9.95455 19.7486 8.94677C19.7495 8.93163 19.75 8.91637 19.75 8.90101C19.75 8.87835 19.749 8.85592 19.747 8.83377C19.7038 6.81818 18.8768 4.89784 17.4402 3.48133C15.9902 2.05156 14.0357 1.25 11.9994 1.25ZM11.4683 3.05318C11.7151 2.79837 11.896 2.75 11.9994 2.75C12.1042 2.75 12.2856 2.79833 12.53 3.05289L12.5322 3.05507C12.7817 3.31279 13.0449 3.73153 13.2813 4.32337C13.5441 5.00601 13.7334 5.71468 13.8462 6.43741L13.8472 6.44391C13.9372 6.98922 13.9983 7.56354 14.0283 8.15101H9.97166C10.0017 7.56354 10.0628 6.98922 10.1528 6.44391L10.1539 6.43699C10.2661 5.71485 10.4549 5.0067 10.7168 4.32448C10.9565 3.73113 11.2186 3.31233 11.4683 3.05318ZM8.46167 9.65101H5.78399C5.84423 10.2262 5.98415 10.7915 6.20068 11.3304C6.50946 12.0989 6.96788 12.7983 7.5493 13.3881C8.12254 13.9695 8.80407 14.4329 9.55531 14.7522C9.47334 14.5848 9.39626 14.41 9.32404 14.2289M14.4446 14.7517C15.1954 14.4325 15.8766 13.9692 16.4495 13.3881C17.0309 12.7983 17.4894 12.0989 17.7981 11.3304C18.0147 10.7915 18.1546 10.2262 18.2148 9.65101H15.5383C15.512 10.3858 15.4411 11.1092 15.3278 11.7969C15.1987 12.6247 14.9818 13.4364 14.681 14.2183L14.6769 14.2289C14.6042 14.4098 14.5267 14.5844 14.4446 14.7517ZM14.0373 9.65101H9.96272C9.98841 10.3074 10.0527 10.9497 10.1528 11.5561C10.2857 12.363 10.4802 13.0805 10.7168 13.6719C10.9536 14.2658 11.2178 14.6866 11.4678 14.9449L11.47 14.9471C11.7147 15.202 11.8955 15.25 12 15.25C12.1037 15.25 12.2852 15.2013 12.5317 14.9468C12.7813 14.6877 13.0434 14.2689 13.2831 13.6744C13.545 12.9925 13.7338 12.2847 13.8461 11.5628L13.8472 11.5561C13.9472 10.9497 14.0116 10.3074 14.0373 9.65101ZM15.5301 8.15101H18.1909C18.0045 6.79135 17.3742 5.52285 16.387 4.54942C15.8219 3.99217 15.1617 3.55325 14.445 3.24845C14.527 3.41585 14.6041 3.59071 14.6763 3.77183L14.6795 3.77989C14.981 4.56228 15.1983 5.37457 15.3277 6.20298C15.4309 6.82888 15.4989 7.48428 15.5301 8.15101ZM8.46167 9.65101C8.48808 10.3871 8.55916 11.1116 8.67281 11.8003C8.81985 12.6928 9.03988 13.5184 9.32404 14.2289M12 18.75C11.3097 18.75 10.75 19.3096 10.75 20C10.75 20.6904 11.3097 21.25 12 21.25C12.6904 21.25 13.25 20.6904 13.25 20C13.25 19.3096 12.6904 18.75 12 18.75Z" fill="currentColor"/>
</g>
</svg>
