<svg viewBox="0 0 24 24" fill="none" xmlns="http://www.w3.org/2000/svg">
<g id="network-off">
<path id="Vector (Stroke)" fill-rule="evenodd" clip-rule="evenodd" d="M3.48503 1.45474C3.78617 1.17033 4.26085 1.1839 4.54526 1.48503L21.5453 19.485C21.8297 19.7862 21.8161 20.2609 21.515 20.5453C21.2138 20.8297 20.7392 20.8161 20.4547 20.515L15.9027 15.6951C15.6095 15.8661 15.3047 16.018 14.9903 16.1495C14.2745 16.449 13.5194 16.6388 12.75 16.7136V17.3535C13.6658 17.6126 14.3875 18.3342 14.6465 19.25H18C18.4142 19.25 18.75 19.5858 18.75 20C18.75 20.4142 18.4142 20.75 18 20.75H14.6465C14.32 21.9043 13.2588 22.75 12 22.75C10.7412 22.75 9.67999 21.9043 9.35353 20.75H6.00001C5.5858 20.75 5.25001 20.4142 5.25001 20C5.25001 19.5858 5.5858 19.25 6.00001 19.25H9.35353C9.61256 18.3342 10.3342 17.6126 11.25 17.3535V16.7136C10.4803 16.6388 9.72446 16.4491 9.00852 16.1495C8.06119 15.7532 7.20208 15.1725 6.48112 14.4412C5.76015 13.7099 5.19171 12.8426 4.80883 11.8897C4.42595 10.9368 4.23625 9.91726 4.25078 8.8904C4.27193 7.39486 4.72475 5.94959 5.53823 4.72102L3.45474 2.51497C3.17033 2.21383 3.1839 1.73915 3.48503 1.45474ZM6.6028 5.84821C6.19083 6.55378 5.91962 7.33602 5.8079 8.15101H8.46986C8.47469 8.0481 8.48039 7.94547 8.48696 7.8432L6.6028 5.84821ZM9.96272 9.65101H10.1943L13.4762 13.1259C13.417 13.3104 13.3526 13.4933 13.2831 13.6744C13.0434 14.269 12.7813 14.6878 12.5317 14.9468C12.2851 15.2014 12.1037 15.25 12 15.25C11.8955 15.25 11.7147 15.202 11.47 14.9471L11.4678 14.9449C11.2178 14.6866 10.9539 14.2666 10.7171 13.6726C10.4805 13.0813 10.2858 12.3632 10.1528 11.5563C10.0528 10.9499 9.98841 10.3074 9.96272 9.65101ZM9.55531 14.7522C9.2 14 9 13.5 8.7 12C8.5 11 8.46986 10 8.46986 9.65101C8.42103 9.65101 5.78399 9.65101 5.78399 9.65101C5.84423 10.2262 5.98415 10.7915 6.20068 11.3304C6.50946 12.0989 6.96788 12.7983 7.5493 13.3881C8.12254 13.9695 8.80407 14.4329 9.55531 14.7522ZM14.4447 14.7517C14.5781 14.695 14.7093 14.6337 14.8382 14.568L14.6286 14.3462C14.5702 14.4855 14.5089 14.6209 14.4447 14.7517ZM9.55531 3.24781C9.46084 3.28795 9.36735 3.33043 9.27493 3.3752C8.90215 3.55579 8.45356 3.39999 8.27298 3.02721C8.09239 2.65444 8.2482 2.20585 8.62097 2.02526C9.66455 1.51972 10.8182 1.25 11.9994 1.25C14.0357 1.25 15.9902 2.05156 17.4402 3.48133C18.8768 4.89784 19.7038 6.81818 19.747 8.83377C19.749 8.85592 19.75 8.87835 19.75 8.90101C19.75 8.91638 19.7495 8.93164 19.7486 8.94677C19.7556 9.95455 19.5659 10.9542 19.19 11.8897C19.0686 12.1917 18.9286 12.4851 18.7711 12.7683C18.5697 13.1303 18.113 13.2605 17.751 13.0591C17.3891 12.8577 17.2589 12.401 17.4603 12.039C17.5874 11.8106 17.7003 11.574 17.7981 11.3304C18.0147 10.7915 18.1546 10.2262 18.2148 9.65101H14.7997C14.3872 9.65101 14.0521 9.31781 14.0497 8.90527C14.0449 8.05638 13.9754 7.22068 13.8472 6.44391L13.8461 6.43741C13.7334 5.71469 13.5441 5.00601 13.2813 4.32337C13.0449 3.73153 12.7817 3.31279 12.5322 3.05507L12.53 3.05289C12.2856 2.79833 12.1042 2.75 11.9994 2.75C11.896 2.75 11.7151 2.79837 11.4683 3.05318C11.238 3.29228 10.9958 3.66866 10.7701 4.19644C10.6072 4.57729 10.1664 4.754 9.78557 4.59113C9.40472 4.42826 9.22801 3.98749 9.39088 3.60664C9.4434 3.48383 9.49819 3.36408 9.55531 3.24781ZM14.445 3.24845C14.527 3.41585 14.6041 3.59071 14.6763 3.77184L14.6795 3.77989C14.981 4.56228 15.1983 5.37457 15.3277 6.20298C15.4309 6.82893 15.4989 7.48434 15.5301 8.15101H18.1909C18.0045 6.79135 17.3742 5.52286 16.387 4.54942C15.8219 3.99217 15.1617 3.55325 14.445 3.24845ZM12 18.75C11.3097 18.75 10.75 19.3096 10.75 20C10.75 20.6904 11.3097 21.25 12 21.25C12.6904 21.25 13.25 20.6904 13.25 20C13.25 19.3096 12.6904 18.75 12 18.75Z" fill="currentColor"/>
</g>
</svg>
