<svg viewBox="0 0 24 24" fill="none" xmlns="http://www.w3.org/2000/svg">
<path fill-rule="evenodd" clip-rule="evenodd" d="M14.4154 2.60123C13.9485 1.75786 13.0497 1.19 12.02 1.19C10.9918 1.19 10.0942 1.75616 9.62671 2.59744C7.08149 3.56449 5.26968 6.02812 5.26968 8.90997V11.8C5.26968 12.0146 5.22111 12.3286 5.12826 12.6631C5.03569 12.9966 4.91574 13.2905 4.80623 13.4746C4.80598 13.4751 4.80572 13.4755 4.80547 13.4759L3.65716 15.3831C3.19612 16.1493 3.0998 17.0092 3.3826 17.7729C3.66507 18.5358 4.29683 19.1253 5.13923 19.4104L5.14202 19.4113C6.23059 19.775 7.34012 20.05 8.46039 20.2364C8.64734 20.7987 8.96311 21.3042 9.36928 21.7103C10.0438 22.3848 10.9921 22.81 12.0196 22.81C13.674 22.81 15.0853 21.7271 15.5805 20.2344C16.6965 20.0482 17.8017 19.774 18.8862 19.4117C20.5545 18.8594 21.2784 16.8934 20.3728 15.3841L19.2262 13.4797C19.1191 13.2924 19.0015 12.9973 18.9105 12.6654C18.8183 12.3293 18.7697 12.0148 18.7697 11.8V8.90997C18.7697 6.03843 16.9551 3.57239 14.4154 2.60123ZM10.43 3.90574C11.1722 3.69752 11.9718 3.63856 12.817 3.74421L12.8198 3.74455C13.0657 3.77436 13.3087 3.82398 13.5498 3.88911C15.6962 4.54865 17.2697 6.55575 17.2697 8.90997V11.8C17.2697 12.1951 17.351 12.6506 17.4639 13.0621C17.577 13.4744 17.7379 13.9018 17.93 14.2348L19.0866 16.1558C19.0865 16.1557 19.0867 16.156 19.0866 16.1558C19.5003 16.8462 19.165 17.7397 18.4143 17.9879L18.412 17.9886C14.2567 19.3769 9.77401 19.3771 5.61861 17.989C5.16196 17.8341 4.89917 17.5489 4.78926 17.252C4.67958 16.9558 4.69335 16.5705 4.94221 16.1568C4.94217 16.1569 4.94225 16.1568 4.94221 16.1568L6.09221 14.2468L6.09389 14.244C6.29418 13.908 6.45889 13.4776 6.5736 13.0643C6.68826 12.6513 6.76968 12.1953 6.76968 11.8V8.90997C6.76968 6.56814 8.30934 4.5805 10.43 3.90574ZM13.7782 20.4581C12.6073 20.5537 11.4308 20.5539 10.2599 20.4588C10.313 20.5258 10.3698 20.5895 10.4299 20.6497C10.8355 21.0552 11.4071 21.31 12.0196 21.31C12.7287 21.31 13.3648 20.9761 13.7782 20.4581Z" fill="currentColor"/>
</svg>
