<svg  viewBox="0 0 24 24" fill="none" xmlns="http://www.w3.org/2000/svg">
<path fill-rule="evenodd" clip-rule="evenodd" d="M17.2793 2.25C17.6935 2.24999 18.0293 2.58577 18.0293 2.99999L18.0296 19.1894L20.4692 16.7497C20.7621 16.4568 21.237 16.4568 21.5299 16.7497C21.8228 17.0426 21.8228 17.5175 21.5299 17.8104L17.8099 21.5303C17.517 21.8232 17.0422 21.8232 16.7493 21.5303L13.0292 17.8104C12.7363 17.5175 12.7363 17.0426 13.0292 16.7497C13.3221 16.4568 13.797 16.4568 14.0899 16.7497L16.5296 19.1893L16.5293 3.00001C16.5293 2.5858 16.8651 2.25001 17.2793 2.25ZM7.55035 15.45C7.0346 15.45 6.61035 15.8743 6.61035 16.3901C6.61035 16.8043 6.27456 17.1401 5.86035 17.1401C5.44614 17.1401 5.11035 16.8043 5.11035 16.3901C5.11035 15.0459 6.20611 13.95 7.55035 13.95C8.8946 13.95 9.99036 15.0459 9.99036 16.3901C9.99036 17.7661 8.96713 18.4891 8.25601 18.9772C8.22193 19.0006 8.18834 19.0236 8.15523 19.0463C7.50383 19.4927 7.0401 19.8105 6.79904 20.2501H9.24036C9.65457 20.2501 9.99036 20.5858 9.99036 21.0001C9.99036 21.4143 9.65457 21.7501 9.24036 21.7501H6.56035C5.74272 21.7501 4.96543 20.9583 5.26693 20.0287L5.26803 20.0253C5.62543 18.941 6.56168 18.3106 7.22434 17.8643C7.28808 17.8214 7.34928 17.7802 7.40719 17.7405C8.17858 17.211 8.49036 16.894 8.49036 16.3901C8.49036 15.8743 8.06611 15.45 7.55035 15.45Z" fill="currentColor"/>
<path d="M5.89291 2.77642C6.13296 2.49954 6.672 2.11356 7.32179 2.2955C7.90468 2.45871 8.28957 2.9909 8.28957 3.57778V9.28774C8.28957 9.70196 7.95378 10.0377 7.53957 10.0377C7.12536 10.0377 6.78957 9.70196 6.78957 9.28774V4.03501C6.53576 4.33378 6.27657 4.64707 6.06296 4.90791L5.92 5.06288C5.77542 5.22895 5.65627 5.29984 5.43715 5.32152C5.20173 5.34482 5.03845 5.2927 4.86007 5.13731C4.67652 4.98897 4.59696 4.83784 4.57859 4.60255C4.5641 4.41709 4.63264 4.28273 4.73761 4.14232C4.75646 4.11474 4.77723 4.08813 4.79991 4.06268C5.08407 3.7157 5.55664 3.16428 5.89291 2.77642Z" fill="currentColor"/>
</svg>
