<svg  viewBox="0 0 24 24" fill="none" xmlns="http://www.w3.org/2000/svg">
<path fill-rule="evenodd" clip-rule="evenodd" d="M5.89291 2.77642C6.13296 2.49954 6.672 2.11356 7.32179 2.2955C7.90468 2.45871 8.28957 2.9909 8.28957 3.57778V9.28774C8.28957 9.70196 7.95378 10.0377 7.53957 10.0377C7.12536 10.0377 6.78957 9.70196 6.78957 9.28774V4.03501C6.53576 4.33378 6.27657 4.64707 6.06296 4.90791L5.92 5.06288C5.77542 5.22895 5.65627 5.29984 5.43715 5.32152C5.20173 5.34482 5.03845 5.2927 4.86007 5.13731C4.67652 4.98897 4.59696 4.83784 4.57859 4.60255C4.5614 4.38247 4.66112 4.23435 4.79991 4.06268M16.7493 2.46968C17.0422 2.17679 17.517 2.17679 17.8099 2.46968L21.5299 6.18965C21.8228 6.48255 21.8228 6.95742 21.5299 7.25031C21.237 7.54321 20.7621 7.54321 20.4692 7.25031L18.0296 4.81064L18.0293 21C18.0293 21.4142 17.6935 21.75 17.2793 21.75C16.8651 21.75 16.5293 21.4142 16.5293 21L16.5296 4.81068L14.0899 7.25032C13.797 7.54321 13.3221 7.54321 13.0292 7.25031C12.7363 6.95741 12.7364 6.48254 13.0292 6.18965L16.7493 2.46968ZM5.89291 2.77642C5.55664 3.16428 5.08407 3.7157 4.79991 4.06268L5.89291 2.77642ZM7.55036 15.45C7.03461 15.45 6.61035 15.8743 6.61035 16.3901C6.61035 16.8043 6.27457 17.1401 5.86035 17.1401C5.44614 17.1401 5.11035 16.8043 5.11035 16.3901C5.11035 15.0459 6.20611 13.95 7.55036 13.95C8.8946 13.95 9.99036 15.0459 9.99036 16.3901C9.99036 17.7661 8.96713 18.4891 8.25601 18.9772C8.22194 19.0006 8.18834 19.0236 8.15523 19.0463C7.50383 19.4927 7.0401 19.8105 6.79905 20.2501H9.24036C9.65457 20.2501 9.99036 20.5859 9.99036 21.0001C9.99036 21.4143 9.65457 21.7501 9.24036 21.7501H6.56035C5.74272 21.7501 4.96543 20.9583 5.26693 20.0287L5.26804 20.0253C5.62543 18.941 6.56169 18.3106 7.22434 17.8643C7.28808 17.8214 7.34928 17.7802 7.4072 17.7405C8.17858 17.211 8.49036 16.8941 8.49036 16.3901C8.49036 15.8743 8.06611 15.45 7.55036 15.45Z" fill="currentColor"/>
</svg>
