<svg viewBox="0 0 24 24" fill="none" xmlns="http://www.w3.org/2000/svg">
<path fill-rule="evenodd" clip-rule="evenodd" d="M4.11986 3.56394C4.86215 2.70437 5.99646 2.25 7.5 2.25H16.5C18.0035 2.25 19.1379 2.70437 19.8801 3.56394C20.6047 4.40294 20.85 5.50763 20.85 6.6V20.25H21C21.4142 20.25 21.75 20.5858 21.75 21C21.75 21.4142 21.4142 21.75 21 21.75H3C2.58579 21.75 2.25 21.4142 2.25 21C2.25 20.5858 2.58579 20.25 3 20.25H3.15V6.6C3.15 5.50763 3.39533 4.40294 4.11986 3.56394ZM4.65 20.25H8.54121V15.546C8.54121 14.6586 9.26916 13.95 10.1372 13.95H13.8542C14.7308 13.95 15.4538 14.6598 15.4412 15.5521V20.25H19.35V6.6C19.35 5.70337 19.1453 5.00806 18.7449 4.54431C18.3621 4.10113 17.6965 3.75 16.5 3.75H7.5C6.30354 3.75 5.63785 4.10113 5.25514 4.54431C4.85467 5.00806 4.65 5.70337 4.65 6.6V20.25ZM13.9412 20.25V15.546L13.9413 15.5316C13.9421 15.4918 13.9108 15.45 13.8542 15.45H10.1372C10.1165 15.45 10.092 15.4584 10.0705 15.4798C10.0497 15.5004 10.0412 15.5235 10.0412 15.546V20.25H13.9412ZM7.65 7.05C7.65 6.63579 7.98579 6.3 8.4 6.3H10.2C10.6142 6.3 10.95 6.63579 10.95 7.05C10.95 7.46421 10.6142 7.8 10.2 7.8H8.4C7.98579 7.8 7.65 7.46421 7.65 7.05ZM13.05 7.05C13.05 6.63579 13.3858 6.3 13.8 6.3H15.6C16.0142 6.3 16.35 6.63579 16.35 7.05C16.35 7.46421 16.0142 7.8 15.6 7.8H13.8C13.3858 7.8 13.05 7.46421 13.05 7.05ZM7.65 11.1C7.65 10.6858 7.98579 10.35 8.4 10.35H10.2C10.6142 10.35 10.95 10.6858 10.95 11.1C10.95 11.5142 10.6142 11.85 10.2 11.85H8.4C7.98579 11.85 7.65 11.5142 7.65 11.1ZM13.05 11.1C13.05 10.6858 13.3858 10.35 13.8 10.35H15.6C16.0142 10.35 16.35 10.6858 16.35 11.1C16.35 11.5142 16.0142 11.85 15.6 11.85H13.8C13.3858 11.85 13.05 11.5142 13.05 11.1Z" fill="currentColor"/>
</svg>
