<svg viewBox="0 0 24 24" fill="none" xmlns="http://www.w3.org/2000/svg">
  <path fill-rule="evenodd" clip-rule="evenodd"
    d="M18.5134 4H5.48658C4.66896 4 4 4.66896 4 5.48658V8.98968H7.61322V8.41721C7.61329 8.20399 7.69804 7.99953 7.84884 7.84878C7.99964 7.69804 8.20413 7.61336 8.41735 7.61336H15.5825C15.6881 7.61334 15.7927 7.63412 15.8902 7.67451C15.9877 7.7149 16.0764 7.7741 16.151 7.84875C16.2257 7.9234 16.2849 8.01202 16.3253 8.10956C16.3657 8.20709 16.3865 8.31164 16.3865 8.41721V8.98982H19.9997V5.48658C19.9997 4.66896 19.3308 4 18.5132 4L18.5134 4ZM16.3868 15.2416C16.3868 15.4549 16.3021 15.6594 16.1513 15.8102C16.0005 15.961 15.7959 16.0457 15.5827 16.0457H8.41749C8.20423 16.0457 7.99972 15.9609 7.84892 15.8101C7.69812 15.6594 7.61339 15.4548 7.61336 15.2416V14.6692H4.00014V18.1722C4.00014 18.99 4.6691 19.6588 5.48672 19.6588H18.5133C19.3309 19.6588 19.9999 18.99 19.9999 18.1722V14.6692H16.3867L16.3868 15.2416Z"
    fill="#ED1844" />
  <path fill-rule="evenodd" clip-rule="evenodd"
    d="M4.00037 13.636H7.61358V10.0228H4.00037V13.636ZM16.3868 13.636H20V10.0228H16.3868V13.636Z" fill="#ED1844" />
</svg>
