<svg  viewBox="0 0 24 24" fill="none" xmlns="http://www.w3.org/2000/svg">
<path d="M13.9961 11.9999C13.9961 10.8999 13.0961 9.99988 11.9961 9.99988C10.8961 9.99988 9.99609 10.8999 9.99609 11.9999C9.99609 13.0999 10.8961 13.9999 11.9961 13.9999C13.0961 13.9999 13.9961 13.0999 13.9961 11.9999Z" fill="currentColor"/>
<path d="M13.9961 4.99988C13.9961 3.89988 13.0961 2.99988 11.9961 2.99988C10.8961 2.99988 9.99609 3.89988 9.99609 4.99988C9.99609 6.09988 10.8961 6.99988 11.9961 6.99988C13.0961 6.99988 13.9961 6.09988 13.9961 4.99988Z" fill="currentColor"/>
<path d="M13.9961 18.9999C13.9961 17.8999 13.0961 16.9999 11.9961 16.9999C10.8961 16.9999 9.99609 17.8999 9.99609 18.9999C9.99609 20.0999 10.8961 20.9999 11.9961 20.9999C13.0961 20.9999 13.9961 20.0999 13.9961 18.9999Z" fill="currentColor"/>
</svg>
