<svg  viewBox="0 0 24 24" fill="none" xmlns="http://www.w3.org/2000/svg">
<path fill-rule="evenodd" clip-rule="evenodd" d="M12.001 2.25C12.1999 2.25 12.3907 2.32902 12.5313 2.46967L15.5313 5.46967C15.8242 5.76256 15.8242 6.23744 15.5313 6.53033C15.2384 6.82322 14.7635 6.82322 14.4706 6.53033L12.751 4.81066V10C12.751 10.4142 12.4152 10.75 12.001 10.75C11.5868 10.75 11.251 10.4142 11.251 10V4.81066L9.53131 6.53033C9.23841 6.82322 8.76354 6.82322 8.47065 6.53033C8.17775 6.23744 8.17775 5.76256 8.47065 5.46967L11.4706 2.46967C11.6113 2.32902 11.8021 2.25 12.001 2.25ZM6.53131 8.46967C6.8242 8.76256 6.8242 9.23744 6.53131 9.53033L4.81164 11.25H10C10.4142 11.25 10.75 11.5858 10.75 12C10.75 12.4142 10.4142 12.75 10 12.75H4.81164L6.53131 14.4697C6.8242 14.7626 6.8242 15.2374 6.53131 15.5303C6.23841 15.8232 5.76354 15.8232 5.47065 15.5303L2.47065 12.5303C2.17775 12.2374 2.17775 11.7626 2.47065 11.4697L5.47065 8.46967C5.76354 8.17678 6.23841 8.17678 6.53131 8.46967ZM17.4706 8.46967C17.7635 8.17678 18.2384 8.17678 18.5313 8.46967L21.5313 11.4697C21.672 11.6103 21.751 11.8011 21.751 12C21.751 12.1989 21.672 12.3897 21.5313 12.5303L18.5313 15.5303C18.2384 15.8232 17.7635 15.8232 17.4706 15.5303C17.1778 15.2374 17.1778 14.7626 17.4706 14.4697L19.1903 12.75H14C13.5858 12.75 13.25 12.4142 13.25 12C13.25 11.5858 13.5858 11.25 14 11.25H19.1903L17.4706 9.53033C17.1778 9.23744 17.1778 8.76256 17.4706 8.46967ZM11.251 19.1893V14C11.251 13.5858 11.5868 13.25 12.001 13.25C12.4152 13.25 12.751 13.5858 12.751 14V19.1893L14.4706 17.4697C14.7635 17.1768 15.2384 17.1768 15.5313 17.4697C15.8242 17.7626 15.8242 18.2374 15.5313 18.5303L12.5313 21.5303C12.3907 21.671 12.1999 21.75 12.001 21.75C11.8021 21.75 11.6113 21.671 11.4706 21.5303L8.47065 18.5303C8.17775 18.2374 8.17775 17.7626 8.47065 17.4697C8.76354 17.1768 9.23841 17.1768 9.53131 17.4697L11.251 19.1893Z" fill="currentColor"/>
</svg>
