<svg viewBox="0 0 24 24" fill="none" xmlns="http://www.w3.org/2000/svg">
<path fill-rule="evenodd" clip-rule="evenodd" d="M3.93217 3.93217C5.15414 2.7102 6.97603 2.25 9.3 2.25H14.7C17.024 2.25 18.8459 2.7102 20.0678 3.93217C21.2898 5.15414 21.75 6.97603 21.75 9.3V14.7C21.75 17.024 21.2898 18.8459 20.0678 20.0678C18.8459 21.2898 17.024 21.75 14.7 21.75H9.3C6.97603 21.75 5.15414 21.2898 3.93217 20.0678C2.7102 18.8459 2.25 17.024 2.25 14.7V9.3C2.25 6.97603 2.7102 5.15414 3.93217 3.93217ZM4.99283 4.99283C4.1898 5.79586 3.75 7.12397 3.75 9.3V14.7C3.75 16.876 4.1898 18.2041 4.99283 19.0072C5.79586 19.8102 7.12397 20.25 9.3 20.25H14.7C16.876 20.25 18.2041 19.8102 19.0072 19.0072C19.8102 18.2041 20.25 16.876 20.25 14.7V9.3C20.25 7.12397 19.8102 5.79586 19.0072 4.99283C18.2041 4.1898 16.876 3.75 14.7 3.75H9.3C7.12397 3.75 5.79586 4.1898 4.99283 4.99283ZM6.75 8C6.75 7.58579 7.08579 7.25 7.5 7.25H10.5C10.9142 7.25 11.25 7.58579 11.25 8V16C11.25 16.4142 10.9142 16.75 10.5 16.75H7.5C7.08579 16.75 6.75 16.4142 6.75 16V8ZM8.25 8.75V15.25H9.75V8.75H8.25ZM12.75 8C12.75 7.58579 13.0858 7.25 13.5 7.25H16.5C16.9142 7.25 17.25 7.58579 17.25 8V16C17.25 16.4142 16.9142 16.75 16.5 16.75H13.5C13.0858 16.75 12.75 16.4142 12.75 16V8ZM14.25 8.75V15.25H15.75V8.75H14.25Z" fill="currentColor"/>
</svg>
