<svg viewBox="0 0 24 24" fill="none" xmlns="http://www.w3.org/2000/svg">
<path fill-rule="evenodd" clip-rule="evenodd" d="M4.3302 5.0802C3.96895 5.44146 3.75 6.14357 3.75 7.746V13.452C3.75 15.0548 3.96909 15.7562 4.32971 16.1162C4.6901 16.4759 5.39135 16.6935 6.99389 16.689L6.996 16.689L17.004 16.689C18.6079 16.689 19.3094 16.4719 19.6703 16.1117C20.0308 15.7518 20.25 15.0506 20.25 13.443V7.746C20.25 6.1435 20.031 5.44186 19.6692 5.0807C19.3068 4.71904 18.6023 4.5 16.995 4.5H6.996C5.39357 4.5 4.69146 4.71895 4.3302 5.0802ZM3.26955 4.01954C4.10754 3.18155 5.40343 3 6.996 3H16.995C18.5917 3 19.8897 3.18146 20.7288 4.01905C21.5685 4.85714 21.75 6.1535 21.75 7.746V13.443C21.75 15.0394 21.5687 16.3362 20.73 17.1733C19.8916 18.0101 18.5951 18.189 17.004 18.189H6.99709C5.40509 18.1934 4.10872 18.0149 3.27004 17.1778C2.43141 16.3408 2.25 15.0442 2.25 13.452V7.746C2.25 6.15343 2.43155 4.85754 3.26955 4.01954ZM2.25 19.75C2.25 19.3358 2.58579 19 3 19H21C21.4142 19 21.75 19.3358 21.75 19.75C21.75 20.1642 21.4142 20.5 21 20.5H3C2.58579 20.5 2.25 20.1642 2.25 19.75Z" fill="currentColor"/>
<circle cx="8.75" cy="9.25" r="1.25" fill="currentColor"/>
<circle cx="15.25" cy="9.25" r="1.25" fill="currentColor"/>
<path fill-rule="evenodd" clip-rule="evenodd" d="M17.0536 13.895C16.8354 14.4767 16.1869 14.7715 15.6052 14.5533C13.2809 13.6817 10.7195 13.6817 8.3952 14.5533C7.81344 14.7715 7.16497 14.4767 6.94681 13.895C6.72865 13.3132 7.02341 12.6647 7.60517 12.4466C10.4388 11.3839 13.5615 11.3839 16.3952 12.4466C16.977 12.6647 17.2717 13.3132 17.0536 13.895Z" fill="currentColor"/>
</svg>
