<svg viewBox="0 0 24 24" fill="none" xmlns="http://www.w3.org/2000/svg">
<path fill-rule="evenodd" clip-rule="evenodd" d="M4.3302 5.3302C3.96895 5.69146 3.75 6.39357 3.75 7.996V13.702C3.75 15.3048 3.96909 16.0062 4.32971 16.3662C4.6901 16.7259 5.39135 16.9435 6.99389 16.939L6.996 16.939L17.004 16.939C18.6079 16.939 19.3094 16.7219 19.6703 16.3617C20.0308 16.0018 20.25 15.3006 20.25 13.693V7.996C20.25 6.3935 20.031 5.69186 19.6692 5.3307C19.3068 4.96904 18.6023 4.75 16.995 4.75H6.996C5.39357 4.75 4.69146 4.96895 4.3302 5.3302ZM3.26955 4.26954C4.10754 3.43155 5.40343 3.25 6.996 3.25H16.995C18.5917 3.25 19.8897 3.43146 20.7288 4.26905C21.5685 5.10714 21.75 6.4035 21.75 7.996V13.693C21.75 15.2894 21.5687 16.5862 20.73 17.4233C19.8916 18.2601 18.5951 18.439 17.004 18.439H6.99709C5.40509 18.4434 4.10872 18.2649 3.27004 17.4278C2.43141 16.5908 2.25 15.2942 2.25 13.702V7.996C2.25 6.40343 2.43155 5.10754 3.26955 4.26954ZM2.25 20C2.25 19.5858 2.58579 19.25 3 19.25H21C21.4142 19.25 21.75 19.5858 21.75 20C21.75 20.4142 21.4142 20.75 21 20.75H3C2.58579 20.75 2.25 20.4142 2.25 20Z" fill="currentColor"/>
<path fill-rule="evenodd" clip-rule="evenodd" d="M11.9992 7.25C12.4134 7.24954 12.7495 7.58494 12.75 7.99916L12.7534 10.9992C12.7538 11.4134 12.4184 11.7495 12.0042 11.75C11.59 11.7505 11.2538 11.4151 11.2534 11.0008L11.25 8.00084C11.2495 7.58663 11.5849 7.25047 11.9992 7.25ZM11.248 13.5C11.248 13.0858 11.5838 12.75 11.998 12.75H12.0014C12.4156 12.75 12.7514 13.0858 12.7514 13.5C12.7514 13.9142 12.4156 14.25 12.0014 14.25H11.998C11.5838 14.25 11.248 13.9142 11.248 13.5Z" fill="currentColor"/>
</svg>
