<svg viewBox="0 0 24 24" fill="none" xmlns="http://www.w3.org/2000/svg">
<path fill-rule="evenodd" clip-rule="evenodd" d="M4.3302 5.0802C3.96895 5.44146 3.75 6.14357 3.75 7.746V13.452C3.75 15.0548 3.96909 15.7562 4.32971 16.1162C4.6901 16.4759 5.39135 16.6935 6.99389 16.689L6.996 16.689L17.004 16.689C18.6079 16.689 19.3094 16.4719 19.6703 16.1117C20.0308 15.7518 20.25 15.0506 20.25 13.443V7.746C20.25 6.1435 20.031 5.44186 19.6692 5.0807C19.3068 4.71904 18.6023 4.5 16.995 4.5H6.996C5.39357 4.5 4.69146 4.71895 4.3302 5.0802ZM3.26955 4.01954C4.10754 3.18155 5.40343 3 6.996 3H16.995C18.5917 3 19.8897 3.18146 20.7288 4.01905C21.5685 4.85714 21.75 6.1535 21.75 7.746V13.443C21.75 15.0394 21.5687 16.3362 20.73 17.1733C19.8916 18.0101 18.5951 18.189 17.004 18.189H6.99709C5.40509 18.1934 4.10872 18.0149 3.27004 17.1778C2.43141 16.3408 2.25 15.0442 2.25 13.452V7.746C2.25 6.15343 2.43155 4.85754 3.26955 4.01954ZM2.25 19.75C2.25 19.3358 2.58579 19 3 19H21C21.4142 19 21.75 19.3358 21.75 19.75C21.75 20.1642 21.4142 20.5 21 20.5H3C2.58579 20.5 2.25 20.1642 2.25 19.75Z" fill="currentColor"/>
<circle cx="8.75" cy="9.25" r="1.25" fill="currentColor"/>
<circle cx="15.25" cy="9.25" r="1.25" fill="currentColor"/>
<path fill-rule="evenodd" clip-rule="evenodd" d="M6.94645 12.605C7.16461 12.0233 7.81307 11.7285 8.39483 11.9467C10.7191 12.8183 13.2805 12.8183 15.6048 11.9467C16.1866 11.7285 16.835 12.0233 17.0532 12.605C17.2713 13.1868 16.9766 13.8353 16.3948 14.0534C13.5612 15.1161 10.4385 15.1161 7.6048 14.0534C7.02304 13.8353 6.72829 13.1868 6.94645 12.605Z" fill="currentColor"/>
</svg>
