<svg viewBox="0 0 24 24" fill="none" xmlns="http://www.w3.org/2000/svg">
<g id="Dashboard-In process">
<g id="Vector">
<path fill-rule="evenodd" clip-rule="evenodd" d="M4.3302 5.3302C3.96895 5.69146 3.75 6.39357 3.75 7.996V13.702C3.75 15.3048 3.96909 16.0062 4.32971 16.3662C4.6901 16.7259 5.39135 16.9435 6.99389 16.939L6.996 16.939L17.004 16.939C18.6079 16.939 19.3094 16.7219 19.6703 16.3617C20.0308 16.0018 20.25 15.3006 20.25 13.693V7.996C20.25 6.3935 20.031 5.69186 19.6692 5.3307C19.3068 4.96904 18.6023 4.75 16.995 4.75H6.996C5.39357 4.75 4.69146 4.96895 4.3302 5.3302ZM3.26955 4.26954C4.10754 3.43155 5.40343 3.25 6.996 3.25H16.995C18.5917 3.25 19.8897 3.43146 20.7288 4.26905C21.5685 5.10714 21.75 6.4035 21.75 7.996V13.693C21.75 15.2894 21.5687 16.5862 20.73 17.4233C19.8916 18.2601 18.5951 18.439 17.004 18.439H6.99709C5.40509 18.4434 4.10872 18.2649 3.27004 17.4278C2.43141 16.5908 2.25 15.2942 2.25 13.702V7.996C2.25 6.40343 2.43155 5.10754 3.26955 4.26954ZM2.25 20C2.25 19.5858 2.58579 19.25 3 19.25H21C21.4142 19.25 21.75 19.5858 21.75 20C21.75 20.4142 21.4142 20.75 21 20.75H3C2.58579 20.75 2.25 20.4142 2.25 20Z" fill="currentColor"/>
<path fill-rule="evenodd" clip-rule="evenodd" d="M14.7966 6.90003C15.2109 6.89818 15.5481 7.23246 15.55 7.64667L15.5567 9.14667C15.5576 9.34616 15.479 9.53779 15.3382 9.67917C15.1975 9.82055 15.0062 9.90002 14.8067 9.90002H13.468C13.0538 9.90002 12.718 9.56424 12.718 9.15002C12.718 8.95943 12.7891 8.78544 12.9062 8.65313C12.6414 8.55939 12.3396 8.50005 12 8.50005C10.7482 8.50005 9.75 9.50631 9.75 10.7501C9.75 11.1643 9.41421 11.5001 9 11.5001C8.58579 11.5001 8.25 11.1643 8.25 10.7501C8.25 8.6818 9.91583 7.00005 12 7.00005C12.8357 7.00005 13.5201 7.23122 14.0588 7.5346C14.1141 7.17656 14.4228 6.9017 14.7966 6.90003ZM15 10.0001C15.4142 10.0001 15.75 10.3358 15.75 10.7501C15.75 12.8203 14.0702 14.5001 12 14.5001C11.3172 14.5001 10.7328 14.2884 10.2563 14.006C10.1845 14.3454 9.88324 14.6 9.52253 14.6C9.10831 14.6 8.77253 14.2642 8.77253 13.85V12.35C8.77253 11.9358 9.10831 11.6 9.52253 11.6H10.8785C11.2927 11.6 11.6285 11.9358 11.6285 12.35C11.6285 12.5634 11.5394 12.7559 11.3964 12.8925C11.5844 12.9598 11.7863 13.0001 12 13.0001C13.2418 13.0001 14.25 11.9918 14.25 10.7501C14.25 10.3358 14.5858 10.0001 15 10.0001Z" fill="currentColor"/>
</g>
</g>
</svg>
