<svg viewBox="0 0 24 24" fill="none" xmlns="http://www.w3.org/2000/svg">
<g id="Dashboard-No subscriptions">
<g id="Vector">
<path fill-rule="evenodd" clip-rule="evenodd" d="M6.20748 5.26584C6.45612 5.25772 6.72206 5.25 7.00301 5.25H16.997C18.6065 5.25 19.3277 5.45076 19.6936 5.78093C20.0318 6.08612 20.25 6.67879 20.25 8.11742V11.9999C20.25 12.4141 20.5858 12.7499 21 12.7499C21.4142 12.7499 21.75 12.4141 21.75 11.9999V8.11742C21.75 6.66377 21.5634 5.44772 20.6985 4.66728C19.8612 3.91181 18.5809 3.75 16.997 3.75H7.00301C6.69308 3.75 6.40387 3.75861 6.15091 3.76688L6.13609 3.76752C4.84448 3.83537 3.77308 4.0883 3.07974 4.88851C2.40463 5.66768 2.25 6.78765 2.25 8.10918V15.8826C2.25 17.3362 2.43661 18.5523 3.30154 19.3327C4.13878 20.0882 5.41908 20.25 7.00301 20.25H11.8C12.2142 20.25 12.55 19.9142 12.55 19.5C12.55 19.0858 12.2142 18.75 11.8 18.75H7.00301C5.39353 18.75 4.67232 18.5492 4.30642 18.2191C3.96819 17.9139 3.75 17.3212 3.75 15.8826V8.10918C3.75 6.81036 3.92821 6.1999 4.21339 5.87077C4.4798 5.5633 4.99459 5.33037 6.20748 5.26584Z" fill="currentColor"/>
<path fill-rule="evenodd" clip-rule="evenodd" d="M6.60646 6.75817C6.99583 7.12698 7.02452 7.75482 6.67054 8.16049L6.65784 8.17505C6.30386 8.58073 5.70126 8.61063 5.31188 8.24183C4.92251 7.87302 4.89382 7.24518 5.2478 6.83951L5.2605 6.82495C5.61448 6.41927 6.21708 6.38937 6.60646 6.75817ZM9.14729 6.75817C9.53666 7.12698 9.56535 7.75482 9.21137 8.16049L9.19867 8.17505C8.84469 8.58073 8.24209 8.61063 7.85271 8.24183C7.46334 7.87302 7.43465 7.24518 7.78863 6.83951L7.80133 6.82495C8.15531 6.41927 8.75791 6.38937 9.14729 6.75817ZM11.6881 6.75817C12.0775 7.12698 12.1062 7.75482 11.7522 8.16049L11.7395 8.17505C11.3855 8.58073 10.7829 8.61063 10.3935 8.24183C10.0042 7.87302 9.97548 7.24518 10.3295 6.83951L10.3422 6.82495C10.6961 6.41927 11.2987 6.38937 11.6881 6.75817Z" fill="currentColor"/>
<path fill-rule="evenodd" clip-rule="evenodd" d="M15.8862 15.8863C16.1791 15.5934 16.6539 15.5934 16.9468 15.8863L18.4998 17.4393L20.0528 15.8863C20.3457 15.5934 20.8206 15.5934 21.1135 15.8863C21.4064 16.1792 21.4064 16.6541 21.1135 16.947L19.5605 18.5L21.1135 20.053C21.4064 20.3459 21.4064 20.8207 21.1135 21.1136C20.8206 21.4065 20.3457 21.4065 20.0528 21.1136L18.4998 19.5606L16.9468 21.1136C16.6539 21.4065 16.1791 21.4065 15.8862 21.1136C15.5933 20.8207 15.5933 20.3459 15.8862 20.053L17.4392 18.5L15.8862 16.947C15.5933 16.6541 15.5933 16.1792 15.8862 15.8863Z" fill="currentColor"/>
</g>
</g>
</svg>
