<svg viewBox="0 0 24 24" fill="none" xmlns="http://www.w3.org/2000/svg">
<g id="Dashboard-Stopped">
<g id="Vector">
<path fill-rule="evenodd" clip-rule="evenodd" d="M4.3302 5.3302C3.96895 5.69146 3.75 6.39357 3.75 7.996V13.702C3.75 15.3048 3.96909 16.0062 4.32971 16.3662C4.6901 16.7259 5.39135 16.9435 6.99389 16.939L6.996 16.939L17.004 16.939C18.6079 16.939 19.3094 16.7219 19.6703 16.3617C20.0308 16.0018 20.25 15.3006 20.25 13.693V7.996C20.25 6.3935 20.031 5.69186 19.6692 5.3307C19.3068 4.96904 18.6023 4.75 16.995 4.75H6.996C5.39357 4.75 4.69146 4.96895 4.3302 5.3302ZM3.26955 4.26954C4.10754 3.43155 5.40343 3.25 6.996 3.25H16.995C18.5917 3.25 19.8897 3.43146 20.7288 4.26905C21.5685 5.10714 21.75 6.4035 21.75 7.996V13.693C21.75 15.2894 21.5687 16.5862 20.73 17.4233C19.8916 18.2601 18.5951 18.439 17.004 18.439H6.99709C5.40509 18.4434 4.10872 18.2649 3.27004 17.4278C2.43141 16.5908 2.25 15.2942 2.25 13.702V7.996C2.25 6.40343 2.43155 5.10754 3.26955 4.26954ZM2.25 20C2.25 19.5858 2.58579 19.25 3 19.25H21C21.4142 19.25 21.75 19.5858 21.75 20C21.75 20.4142 21.4142 20.75 21 20.75H3C2.58579 20.75 2.25 20.4142 2.25 20Z" fill="currentColor"/>
<path fill-rule="evenodd" clip-rule="evenodd" d="M12.0005 8.5C10.7578 8.5 9.75049 9.50736 9.75049 10.75C9.75049 11.0998 9.83002 11.4307 9.97231 11.7258L12.9912 8.72907C12.6923 8.58223 12.3562 8.5 12.0005 8.5ZM14.0411 9.80041L11.0359 12.7835C11.3282 12.9225 11.6551 13 12.0005 13C13.2431 13 14.2505 11.9926 14.2505 10.75C14.2505 10.4105 14.1756 10.0889 14.0411 9.80041ZM8.25049 10.75C8.25049 8.67893 9.92942 7 12.0005 7C13.047 7 13.9945 7.42964 14.6739 8.12026C15.3389 8.7963 15.7505 9.72583 15.7505 10.75C15.7505 12.8211 14.0716 14.5 12.0005 14.5C10.9663 14.5 10.0288 14.0804 9.35115 13.404C8.672 12.726 8.25049 11.7865 8.25049 10.75Z" fill="currentColor"/>
</g>
</g>
</svg>
