<svg viewBox="0 0 24 24" fill="none" xmlns="http://www.w3.org/2000/svg">
<path fill-rule="evenodd" clip-rule="evenodd" d="M4.3302 5.3302C3.96895 5.69146 3.75 6.39357 3.75 7.996V13.702C3.75 15.3048 3.96909 16.0062 4.32971 16.3662C4.6901 16.7259 5.39135 16.9435 6.99389 16.939L6.996 16.939L17.004 16.939C18.6079 16.939 19.3094 16.7219 19.6703 16.3617C20.0308 16.0018 20.25 15.3006 20.25 13.693V7.996C20.25 6.3935 20.031 5.69186 19.6692 5.3307C19.3068 4.96904 18.6023 4.75 16.995 4.75H6.996C5.39357 4.75 4.69146 4.96895 4.3302 5.3302ZM3.26955 4.26954C4.10754 3.43155 5.40343 3.25 6.996 3.25H16.995C18.5917 3.25 19.8897 3.43146 20.7288 4.26905C21.5685 5.10714 21.75 6.4035 21.75 7.996V13.693C21.75 15.2894 21.5687 16.5862 20.73 17.4233C19.8916 18.2601 18.5951 18.439 17.004 18.439H6.99709C5.40509 18.4434 4.10872 18.2649 3.27004 17.4278C2.43141 16.5908 2.25 15.2942 2.25 13.702V7.996C2.25 6.40343 2.43155 5.10754 3.26955 4.26954ZM2.25 20C2.25 19.5858 2.58579 19.25 3 19.25H21C21.4142 19.25 21.75 19.5858 21.75 20C21.75 20.4142 21.4142 20.75 21 20.75H3C2.58579 20.75 2.25 20.4142 2.25 20Z" fill="currentColor"/>
<path fill-rule="evenodd" clip-rule="evenodd" d="M9.8501 9.329C9.8501 8.12477 10.8248 7.15002 12.0291 7.15002C13.2333 7.15002 14.2081 8.12477 14.2081 9.329C14.2081 10.2696 13.6133 11.0703 12.7791 11.3757V11.702C12.7791 12.1163 12.4433 12.452 12.0291 12.452C11.6149 12.452 11.2791 12.1163 11.2791 11.702V10.758C11.2791 10.3438 11.6149 10.008 12.0291 10.008C12.4049 10.008 12.7081 9.70481 12.7081 9.329C12.7081 8.9532 12.4049 8.65002 12.0291 8.65002C11.6533 8.65002 11.3501 8.9532 11.3501 9.329C11.3501 9.74322 11.0143 10.079 10.6001 10.079C10.1859 10.079 9.8501 9.74322 9.8501 9.329ZM12.0287 12.7893C12.4429 12.7893 12.7787 13.1251 12.7787 13.5393V13.5448C12.7787 13.959 12.4429 14.2948 12.0287 14.2948C11.6145 14.2948 11.2787 13.959 11.2787 13.5448V13.5393C11.2787 13.1251 11.6145 12.7893 12.0287 12.7893Z" fill="currentColor"/>
</svg>
