<svg viewBox="0 0 24 24" fill="none" xmlns="http://www.w3.org/2000/svg">
<path fill-rule="evenodd" clip-rule="evenodd" d="M4.3302 5.3302C3.96895 5.69146 3.75 6.39357 3.75 7.996V13.702C3.75 15.3048 3.96909 16.0062 4.32971 16.3662C4.6901 16.7259 5.39135 16.9435 6.99389 16.939L6.996 16.939L17.004 16.939C18.6079 16.939 19.3094 16.7219 19.6703 16.3617C20.0308 16.0018 20.25 15.3006 20.25 13.693V7.996C20.25 6.3935 20.031 5.69186 19.6692 5.3307C19.3068 4.96904 18.6023 4.75 16.995 4.75H6.996C5.39357 4.75 4.69146 4.96895 4.3302 5.3302ZM3.26955 4.26954C4.10754 3.43155 5.40343 3.25 6.996 3.25H16.995C18.5917 3.25 19.8897 3.43146 20.7288 4.26905C21.5685 5.10714 21.75 6.4035 21.75 7.996V13.693C21.75 15.2894 21.5687 16.5862 20.73 17.4233C19.8916 18.2601 18.5951 18.439 17.004 18.439H6.99709C5.40509 18.4434 4.10872 18.2649 3.27004 17.4278C2.43141 16.5908 2.25 15.2942 2.25 13.702V7.996C2.25 6.40343 2.43155 5.10754 3.26955 4.26954ZM12.2127 8.05575C12.0728 8.02076 11.9264 8.02076 11.7865 8.05575L9.50762 8.62498C9.61199 10.9835 10.3444 12.275 10.9816 12.9701C11.3156 13.3344 11.6397 13.5527 11.8699 13.6776C11.9175 13.7034 11.9612 13.7252 12 13.7435C12.0388 13.7252 12.0825 13.7034 12.1302 13.6776C12.3603 13.5527 12.6844 13.3344 13.0184 12.9701C13.6556 12.2751 14.388 10.9836 14.4924 8.62517L12.2127 8.05575ZM12 14.5468C11.8101 15.2724 11.809 15.2721 11.809 15.2721L11.8077 15.2718L11.805 15.271L11.7988 15.2693L11.7828 15.2648C11.7707 15.2613 11.7556 15.2568 11.7377 15.2511C11.7019 15.2397 11.6549 15.2237 11.5983 15.202C11.4852 15.1588 11.333 15.0928 11.1548 14.9962C10.798 14.8027 10.3365 14.4861 9.87594 13.9838C8.94344 12.9667 8.0762 11.2562 8.0004 8.44675L8.00031 8.44348C7.99399 8.16388 8.08321 7.89061 8.25301 7.66866C8.42261 7.44701 8.66259 7.28961 8.93338 7.22233L8.9345 7.22205L11.4226 6.60054C11.8013 6.50588 12.1977 6.50585 12.5764 6.6005L15.0637 7.2218L15.0653 7.2222C15.3357 7.28909 15.5761 7.44596 15.7462 7.66786C15.9164 7.88976 16.006 8.16326 15.9997 8.4433L15.9996 8.44674C15.9238 11.2562 15.0566 12.9667 14.1241 13.9838C13.6635 14.4861 13.202 14.8027 12.8452 14.9962C12.667 15.0928 12.5148 15.1588 12.4017 15.202C12.3451 15.2237 12.2981 15.2397 12.2623 15.2511C12.2444 15.2568 12.2293 15.2613 12.2172 15.2648L12.2012 15.2693L12.195 15.271L12.1923 15.2718L12.191 15.2721C12.191 15.2721 12.1899 15.2724 12 14.5468ZM12 14.5468L12.1899 15.2724C12.0654 15.305 11.9346 15.305 11.8101 15.2724L12 14.5468ZM2.25 20C2.25 19.5858 2.58579 19.25 3 19.25H21C21.4142 19.25 21.75 19.5858 21.75 20C21.75 20.4142 21.4142 20.75 21 20.75H3C2.58579 20.75 2.25 20.4142 2.25 20Z" fill="currentColor"/>
</svg>
