<svg viewBox="0 0 24 24" fill="none" xmlns="http://www.w3.org/2000/svg">
<path fill-rule="evenodd" clip-rule="evenodd" d="M4.7005 3.31168C5.87193 2.55083 7.41866 2.25 9.30023 2.25H14.7002C16.5818 2.25 18.1285 2.55083 19.3 3.31168C20.502 4.0924 21.2061 5.28884 21.5292 6.84782C21.6132 7.25342 21.3525 7.65036 20.9469 7.7344C20.5413 7.81844 20.1444 7.55777 20.0604 7.15218C19.798 5.88625 19.2728 5.08269 18.4829 4.56964C17.6624 4.03671 16.4546 3.75 14.7002 3.75H9.30023C7.54591 3.75 6.33805 4.03671 5.51754 4.56964C4.72762 5.08269 4.20243 5.88625 3.94012 7.15218C3.85607 7.55777 3.45914 7.81844 3.05354 7.7344C2.64794 7.65036 2.38727 7.25342 2.47132 6.84782C2.79435 5.28884 3.49847 4.0924 4.7005 3.31168ZM16.7501 9C16.7501 8.58579 17.0859 8.25 17.5001 8.25H20.8001C21.2144 8.25 21.5501 8.58579 21.5501 9C21.5501 9.41421 21.2144 9.75 20.8001 9.75H18.2501V10.9999H20.1916C20.6058 10.9999 20.9416 11.3357 20.9416 11.7499C20.9416 12.1641 20.6058 12.4999 20.1916 12.4999H18.2501V14.4998C18.2501 14.914 17.9144 15.2498 17.5001 15.2498C17.0859 15.2498 16.7501 14.914 16.7501 14.4998V9ZM4.25015 9.19971C4.25015 8.78549 4.58594 8.44971 5.00015 8.44971H6.50015C7.33108 8.44971 8.09022 8.61139 8.65886 9.03231C9.26425 9.48042 9.55015 10.1447 9.55015 10.9C9.55015 11.6612 9.25805 12.3146 8.63081 12.7358C8.06219 13.1177 7.31237 13.2428 6.50977 13.2381C6.27216 13.2457 6.01768 13.2486 5.75015 13.2496V14.4998C5.75015 14.914 5.41436 15.2498 5.00015 15.2498C4.58594 15.2498 4.25015 14.914 4.25015 14.4998V9.19971ZM5.75015 11.7495C6.01123 11.7486 6.25175 11.7458 6.47535 11.7384C6.48561 11.7381 6.49588 11.7379 6.50615 11.738C7.19765 11.7436 7.5918 11.6268 7.79449 11.4906C7.94225 11.3914 8.05015 11.2447 8.05015 10.9C8.05015 10.5493 7.93605 10.3635 7.76644 10.2379C7.56008 10.0852 7.16922 9.94971 6.50015 9.94971H5.75015V11.7495ZM9.86727 9.19971C9.86727 8.78549 10.2031 8.44971 10.6173 8.44971H13.0001C14.0025 8.44971 14.8218 8.9269 15.3752 9.55434C15.9189 10.1709 16.2501 10.9804 16.2501 11.7499C16.2501 13.5669 15.0053 15.25 13.0001 15.25L10.6172 15.2498C10.203 15.2498 9.86727 14.914 9.86727 14.4998V9.19971ZM11.3673 9.94971V13.7499L13.0001 13.75C13.9949 13.75 14.7501 12.9329 14.7501 11.7499C14.7501 11.3877 14.5814 10.9221 14.2501 10.5465C13.9285 10.1818 13.4978 9.94971 13.0001 9.94971H11.3673ZM3.05354 16.2656C3.45914 16.1816 3.85607 16.4422 3.94012 16.8478C4.20243 18.1137 4.72762 18.9173 5.51754 19.4304C6.33805 19.9633 7.5459 20.25 9.30023 20.25H14.7002C16.4546 20.25 17.6624 19.9633 18.4829 19.4304C19.2728 18.9173 19.798 18.1137 20.0604 16.8478C20.1444 16.4422 20.5413 16.1816 20.9469 16.2656C21.3525 16.3496 21.6132 16.7466 21.5292 17.1522C21.2061 18.7112 20.502 19.9076 19.3 20.6883C18.1285 21.4492 16.5818 21.75 14.7002 21.75H9.30023C7.41866 21.75 5.87193 21.4492 4.7005 20.6883C3.49847 19.9076 2.79435 18.7112 2.47132 17.1522C2.38727 16.7466 2.64794 16.3496 3.05354 16.2656Z" fill="currentColor"/>
</svg>
