<svg viewBox="0 0 24 24" fill="none" xmlns="http://www.w3.org/2000/svg">
<path fill-rule="evenodd" clip-rule="evenodd" d="M3.93217 3.93217C5.15414 2.7102 6.97603 2.25 9.3 2.25H14.7C17.024 2.25 18.8459 2.7102 20.0678 3.93217C21.2898 5.15414 21.75 6.97603 21.75 9.3V14.7C21.75 17.024 21.2898 18.8459 20.0678 20.0678C18.8459 21.2898 17.024 21.75 14.7 21.75H9.3C6.97603 21.75 5.15414 21.2898 3.93217 20.0678C2.7102 18.8459 2.25 17.024 2.25 14.7V9.3C2.25 6.97603 2.7102 5.15414 3.93217 3.93217ZM4.99283 4.99283C4.1898 5.79586 3.75 7.12397 3.75 9.3V14.7C3.75 16.876 4.1898 18.2041 4.99283 19.0072C5.79586 19.8102 7.12397 20.25 9.3 20.25H14.7C16.876 20.25 18.2041 19.8102 19.0072 19.0072C19.8102 18.2041 20.25 16.876 20.25 14.7V9.3C20.25 7.12397 19.8102 5.79586 19.0072 4.99283C18.2041 4.1898 16.876 3.75 14.7 3.75H9.3C7.12397 3.75 5.79586 4.1898 4.99283 4.99283ZM13.5114 7.25009C13.8383 7.25504 14.1244 7.47127 14.2184 7.78449L15.558 12.25H17C17.4142 12.25 17.75 12.5858 17.75 13C17.75 13.4142 17.4142 13.75 17 13.75H15C14.6688 13.75 14.3768 13.5327 14.2816 13.2155L13.4624 10.4846L11.7115 15.7372C11.6189 16.015 11.373 16.2136 11.0818 16.2455C10.7907 16.2775 10.5076 16.137 10.3569 15.8859L9.07536 13.75H7.5C7.08579 13.75 6.75 13.4142 6.75 13C6.75 12.5858 7.08579 12.25 7.5 12.25H9.5C9.76345 12.25 10.0076 12.3882 10.1431 12.6141L10.8041 13.7158L12.7885 7.76283C12.8919 7.4526 13.1844 7.24513 13.5114 7.25009Z" fill="currentColor"/>
</svg>
