<svg viewBox="0 0 24 24" fill="none" xmlns="http://www.w3.org/2000/svg">
<path fill-rule="evenodd" clip-rule="evenodd" d="M10.2633 3.42993C8.36338 3.42993 6.83455 4.96597 6.83455 6.85873C6.83455 8.70068 8.27262 10.195 10.0886 10.277C10.2005 10.2693 10.3186 10.2689 10.4305 10.2769C12.2446 10.194 13.6836 8.70075 13.6921 6.8572C13.6913 4.96625 12.1545 3.42993 10.2633 3.42993ZM5.33455 6.85873C5.33455 4.13975 7.53275 1.92993 10.2633 1.92993C12.9834 1.92993 15.1921 4.13865 15.1921 6.85873L15.1921 6.86186C15.1811 9.52106 13.0849 11.6888 10.4391 11.7777C10.4058 11.7788 10.3725 11.7777 10.3393 11.7744C10.297 11.7702 10.232 11.7695 10.1712 11.775C10.1403 11.7778 10.1092 11.7787 10.0781 11.7777C7.43295 11.6888 5.33455 9.52091 5.33455 6.85873ZM18.8398 9.24994C19.2541 9.24994 19.5898 9.58573 19.5898 9.99994V11.2499H20.8398C21.2541 11.2499 21.5898 11.5857 21.5898 11.9999C21.5898 12.4142 21.2541 12.7499 20.8398 12.7499H19.5898V13.9999C19.5898 14.4142 19.2541 14.7499 18.8398 14.7499C18.4256 14.7499 18.0898 14.4142 18.0898 13.9999V12.7499H16.8398C16.4256 12.7499 16.0898 12.4142 16.0898 11.9999C16.0898 11.5857 16.4256 11.2499 16.8398 11.2499H18.0898V9.99994C18.0898 9.58573 18.4256 9.24994 18.8398 9.24994ZM10.4258 12.4593C12.2473 12.4593 14.1069 12.9163 15.5459 13.8773C16.8406 14.7391 17.5876 15.951 17.5876 17.2598C17.5876 18.5686 16.8407 19.7826 15.5466 20.649L15.5464 20.649C14.1031 21.6148 12.2411 22.0745 10.4188 22.0745C8.59679 22.0745 6.73513 21.6149 5.2919 20.6495C3.99706 19.7878 3.25 18.5758 3.25 17.2669C3.25 15.9582 3.99685 14.7441 5.29101 13.8778L5.29377 13.876C6.74102 12.9164 8.60418 12.4593 10.4258 12.4593ZM6.12408 15.1252C5.1416 15.7834 4.75 16.5736 4.75 17.2669C4.75 17.96 5.14141 18.7478 6.12365 19.4013L6.1253 19.4024C7.27019 20.1684 8.82464 20.5745 10.4188 20.5745C12.0129 20.5745 13.5673 20.1684 14.7121 19.4025C15.6956 18.7441 16.0876 17.9534 16.0876 17.2598C16.0876 16.5667 15.6962 15.7789 14.7139 15.1255L14.7128 15.1247C13.573 14.3634 12.0209 13.9593 10.4258 13.9593C8.8317 13.9593 7.27432 14.363 6.12408 15.1252Z" fill="currentColor"/>
</svg>
