<svg viewBox="0 0 24 24" fill="none" xmlns="http://www.w3.org/2000/svg">
<path fill-rule="evenodd" clip-rule="evenodd" d="M9.32725 3.47913C9.88935 3.29771 10.4982 3.25 11 3.25H13.061C13.5588 3.25 14.1553 3.29773 14.7065 3.4813C15.2424 3.65978 15.8038 3.99169 16.1361 4.59842L16.6965 5.35105C16.7207 5.3835 16.7422 5.41785 16.7608 5.45376C16.8463 5.61864 17.0121 5.84978 17.205 6.03307C17.2994 6.12283 17.3846 6.18598 17.4527 6.22393C17.4991 6.24977 17.5243 6.25659 17.5299 6.25803C18.9392 6.30277 20.0987 6.54422 20.8472 7.39509C21.5845 8.23326 21.75 9.47745 21.75 10.996V15.693C21.75 17.2893 21.5687 18.5862 20.73 19.4233C19.8916 20.2601 18.5951 20.439 17.004 20.439H6.99674C5.40491 20.4434 4.10866 20.2649 3.27004 19.4278C2.43141 18.5908 2.25 17.2942 2.25 15.702V10.996C2.25 9.48981 2.41294 8.25505 3.13227 7.41765C3.86332 6.56659 4.99577 6.3143 6.36972 6.26131C6.40179 6.25569 6.43459 6.2521 6.46798 6.25068C6.47334 6.24934 6.50361 6.24167 6.56025 6.20892C6.63051 6.16828 6.71557 6.10383 6.80793 6.01557C6.99689 5.83501 7.15701 5.61224 7.23918 5.45376C7.25781 5.41785 7.2793 5.3835 7.30347 5.35105L7.86409 4.59821C8.20196 3.98285 8.78528 3.65406 9.32725 3.47913ZM6.6247 7.74266C6.58344 7.75114 6.5409 7.75626 6.49738 7.7577C5.14619 7.80224 4.57146 8.04423 4.27011 8.39505C3.9432 8.77562 3.75 9.48931 3.75 10.996V15.702C3.75 17.3048 3.96909 18.0062 4.32971 18.3662C4.6901 18.7259 5.39135 18.9435 6.99389 18.939L6.996 18.939L17.004 18.939C18.6079 18.939 19.3094 18.7219 19.6703 18.3617C20.0308 18.0018 20.25 17.3006 20.25 15.693V10.996C20.25 9.47535 20.0531 8.76343 19.7209 8.38584C19.411 8.03347 18.817 7.79393 17.4261 7.75561C17.3761 7.75424 17.3274 7.748 17.2804 7.73737C16.8114 7.65761 16.4231 7.35932 16.1716 7.12035C15.8779 6.84119 15.6246 6.50224 15.46 6.20201L14.8985 5.44795C14.8728 5.41343 14.8501 5.37676 14.8307 5.33835C14.7437 5.16642 14.5648 5.01512 14.2325 4.90445C13.8972 4.79277 13.4812 4.75 13.061 4.75H11C10.5748 4.75 10.1406 4.79279 9.788 4.90662C9.43356 5.02102 9.25155 5.17573 9.16934 5.33835C9.14993 5.37676 9.12724 5.41343 9.10153 5.44795L8.53993 6.20211C8.37767 6.49776 8.12992 6.82705 7.84423 7.10004C7.5681 7.36391 7.13906 7.6887 6.6247 7.74266ZM8.325 12.925C8.325 10.8998 9.97479 9.25 12 9.25C14.0252 9.25 15.675 10.8998 15.675 12.925C15.675 14.9502 14.0252 16.6 12 16.6C9.97479 16.6 8.325 14.9502 8.325 12.925ZM12 10.75C10.8032 10.75 9.825 11.7282 9.825 12.925C9.825 14.1218 10.8032 15.1 12 15.1C13.1968 15.1 14.175 14.1218 14.175 12.925C14.175 11.7282 13.1968 10.75 12 10.75Z" fill="currentColor"/>
</svg>
