<svg viewBox="0 0 24 24" fill="none" xmlns="http://www.w3.org/2000/svg">
<path fill-rule="evenodd" clip-rule="evenodd" d="M3.93217 3.93217C5.15414 2.7102 6.97603 2.25 9.3 2.25H14.7C17.024 2.25 18.8459 2.7102 20.0678 3.93217C21.2898 5.15414 21.75 6.97603 21.75 9.3V14.7C21.75 17.024 21.2898 18.8459 20.0678 20.0678C18.8459 21.2898 17.024 21.75 14.7 21.75H9.3C6.97603 21.75 5.15414 21.2898 3.93217 20.0678C2.7102 18.8459 2.25 17.024 2.25 14.7V9.3C2.25 6.97603 2.7102 5.15414 3.93217 3.93217ZM4.99283 4.99283C4.1898 5.79586 3.75 7.12397 3.75 9.3V14.7C3.75 16.876 4.1898 18.2041 4.99283 19.0072C5.79586 19.8102 7.12397 20.25 9.3 20.25H14.7C16.876 20.25 18.2041 19.8102 19.0072 19.0072C19.8102 18.2041 20.25 16.876 20.25 14.7V9.3C20.25 7.12397 19.8102 5.79586 19.0072 4.99283C18.2041 4.1898 16.876 3.75 14.7 3.75H9.3C7.12397 3.75 5.79586 4.1898 4.99283 4.99283ZM9.81911 8.767C9.77989 8.79018 9.75 8.83154 9.75 8.89707L9.75 15.1029C9.75 15.1685 9.77989 15.2098 9.81911 15.233C9.83951 15.2451 9.85911 15.2497 9.87476 15.25C9.88796 15.2502 9.90592 15.2478 9.93089 15.233L15.1809 12.1301C15.2226 12.1054 15.25 12.0626 15.25 12C15.25 11.9374 15.2226 11.8946 15.1809 11.8699L9.93089 8.767C9.90592 8.75224 9.88796 8.74978 9.87476 8.75001C9.85911 8.75029 9.83951 8.75494 9.81911 8.767ZM8.25 8.89707C8.25 7.65779 9.58435 6.81978 10.6941 7.47568L15.9441 10.5786C17.0186 11.2137 17.0186 12.7863 15.9441 13.4214L10.6941 16.5243C9.58435 17.1802 8.25 16.3422 8.25 15.1029L8.25 8.89707Z" fill="currentColor"/>
</svg>
