<svg  viewBox="0 0 24 24" fill="none" xmlns="http://www.w3.org/2000/svg">
<path fill-rule="evenodd" clip-rule="evenodd" d="M9.99999 3.75C10.4142 3.75 10.75 4.08579 10.75 4.5V5.46098H13.25V4.50001C13.25 4.0858 13.5858 3.75001 14 3.75001C14.4142 3.75001 14.75 4.0858 14.75 4.50001V5.46098H16.997C17.0826 5.46098 17.1669 5.4614 17.25 5.46226V4.50001C17.25 4.0858 17.5858 3.75001 18 3.75001C18.4142 3.75001 18.75 4.0858 18.75 4.50001V5.55032C18.8711 5.56568 18.9881 5.58331 19.101 5.6034C19.6897 5.70814 20.2155 5.88803 20.644 6.20715C21.5525 6.8838 21.75 7.96517 21.75 9.1968V14.7806C21.75 16.0122 21.5525 17.0936 20.644 17.7702C20.2155 18.0893 19.6897 18.2692 19.101 18.374C18.9881 18.3941 18.8711 18.4117 18.75 18.427V19.5C18.75 19.9142 18.4142 20.25 18 20.25C17.5858 20.25 17.25 19.9142 17.25 19.5V18.5151C17.1669 18.516 17.0826 18.5164 16.997 18.5164L16.0176 18.5164C16.0107 18.5166 16.0038 18.5167 15.997 18.5167H14.75V19.5C14.75 19.9142 14.4142 20.25 14 20.25C13.5858 20.25 13.25 19.9142 13.25 19.5V18.5167H10.75V19.5C10.75 19.9142 10.4142 20.25 9.99999 20.25C9.58577 20.25 9.24999 19.9142 9.24999 19.5V18.5167H6.74999V19.5C6.74999 19.9142 6.41421 20.25 5.99999 20.25C5.58578 20.25 5.24999 19.9142 5.24999 19.5V18.4276C5.12791 18.4122 5.01001 18.3945 4.89628 18.3742C4.30788 18.2694 3.78227 18.0895 3.35409 17.7702C2.44642 17.0933 2.25 16.0117 2.25 14.7808V9.19C2.25 8.07628 2.40996 7.07922 3.12925 6.394C3.65453 5.89361 4.38067 5.65666 5.24999 5.54685V4.50001C5.24999 4.0858 5.58578 3.75001 5.99999 3.75001C6.41421 3.75001 6.74999 4.0858 6.74999 4.50001V5.46248C6.83254 5.46153 6.91698 5.46098 7.003 5.46098H9.24999V4.5C9.24999 4.08579 9.58577 3.75 9.99999 3.75ZM6.02232 6.98332C4.91164 7.04847 4.41427 7.24154 4.16387 7.48007C3.92289 7.70964 3.75 8.14087 3.75 9.19V14.7808C3.75 15.9371 3.95686 16.3485 4.25082 16.5677C4.42344 16.6965 4.69824 16.8154 5.15921 16.8974C5.62 16.9795 6.2183 17.0166 6.99993 17.0166L16.9969 17.0164C17.7786 17.0164 18.3771 16.9792 18.8383 16.8972C19.2996 16.8151 19.5749 16.6961 19.748 16.5672C20.0426 16.3478 20.25 15.9362 20.25 14.7806V9.1968C20.25 8.04113 20.0426 7.62959 19.748 7.41016C19.5749 7.28124 19.2996 7.16229 18.8383 7.0802C18.3771 6.99815 17.7786 6.96098 16.997 6.96098H16.1794C16.121 6.97557 16.0599 6.98332 15.997 6.98332H6.02232Z" fill="currentColor"/>
<path d="M6.60646 8.75817C6.99583 9.12698 7.02452 9.75482 6.67054 10.1605L6.65784 10.1751C6.30386 10.5807 5.70126 10.6106 5.31188 10.2418C4.92251 9.87302 4.89382 9.24518 5.2478 8.83951L5.2605 8.82495C5.61448 8.41927 6.21708 8.38937 6.60646 8.75817Z" fill="currentColor"/>
<path d="M18.6865 13.7582C19.0759 14.127 19.1046 14.7548 18.7506 15.1605L18.7379 15.1751C18.3839 15.5807 17.7813 15.6106 17.392 15.2418C17.0026 14.873 16.9739 14.2452 17.3279 13.8395L17.3406 13.8249C17.6946 13.4193 18.2972 13.3894 18.6865 13.7582Z" fill="currentColor"/>
</svg>
