<svg  viewBox="0 0 24 24" fill="none" xmlns="http://www.w3.org/2000/svg">
<path fill-rule="evenodd" clip-rule="evenodd" d="M11.5077 1.19405C11.8203 0.922185 12.294 0.955134 12.5658 1.26764L15.4555 4.58931C15.5933 4.74775 15.6584 4.95672 15.6349 5.16541C15.6115 5.37409 15.5016 5.56338 15.332 5.68724L11.9619 8.14848C11.6274 8.39277 11.1581 8.31964 10.9139 7.98514C10.6696 7.65063 10.7427 7.18142 11.0772 6.93713L13.0902 5.46699C12.7398 5.42459 12.3766 5.40135 12 5.40135C7.62457 5.40135 4.08008 8.94712 4.08008 13.3257C4.08008 17.7042 7.62458 21.25 12 21.25C16.3754 21.25 19.9199 17.7042 19.9199 13.3257C19.9199 11.6983 19.4269 10.1813 18.5858 8.91913C18.3561 8.57443 18.4494 8.1088 18.7941 7.87911C19.1388 7.64943 19.6044 7.74266 19.8341 8.08736C20.8331 9.58655 21.4199 11.3912 21.4199 13.3257C21.4199 18.5319 17.2046 22.75 12 22.75C6.79542 22.75 2.58008 18.5319 2.58008 13.3257C2.58008 8.11941 6.79543 3.90135 12 3.90135C12.3087 3.90135 12.6095 3.91477 12.9023 3.93983L11.4342 2.25215C11.1623 1.93964 11.1952 1.46591 11.5077 1.19405Z" fill="currentColor"/>
</svg>
