<svg  viewBox="0 0 24 24" fill="none" xmlns="http://www.w3.org/2000/svg">
<path d="M10.5 11.9999C10.5 10.8999 9.6 9.99988 8.5 9.99988C7.4 9.99988 6.5 10.8999 6.5 11.9999C6.5 13.0999 7.4 13.9999 8.5 13.9999C9.6 13.9999 10.5 13.0999 10.5 11.9999Z" fill="currentColor"/>
<path d="M10.5 4.99988C10.5 3.89988 9.6 2.99988 8.5 2.99988C7.4 2.99988 6.5 3.89988 6.5 4.99988C6.5 6.09988 7.4 6.99988 8.5 6.99988C9.6 6.99988 10.5 6.09988 10.5 4.99988Z" fill="currentColor"/>
<path d="M10.5 18.9999C10.5 17.8999 9.6 16.9999 8.5 16.9999C7.4 16.9999 6.5 17.8999 6.5 18.9999C6.5 20.0999 7.4 20.9999 8.5 20.9999C9.6 20.9999 10.5 20.0999 10.5 18.9999Z" fill="currentColor"/>
<path d="M17.5 11.9999C17.5 10.8999 16.6 9.99988 15.5 9.99988C14.4 9.99988 13.5 10.8999 13.5 11.9999C13.5 13.0999 14.4 13.9999 15.5 13.9999C16.6 13.9999 17.5 13.0999 17.5 11.9999Z" fill="currentColor"/>
<path d="M17.5 4.99988C17.5 3.89988 16.6 2.99988 15.5 2.99988C14.4 2.99988 13.5 3.89988 13.5 4.99988C13.5 6.09988 14.4 6.99988 15.5 6.99988C16.6 6.99988 17.5 6.09988 17.5 4.99988Z" fill="currentColor"/>
<path d="M17.5 18.9999C17.5 17.8999 16.6 16.9999 15.5 16.9999C14.4 16.9999 13.5 17.8999 13.5 18.9999C13.5 20.0999 14.4 20.9999 15.5 20.9999C16.6 20.9999 17.5 20.0999 17.5 18.9999Z" fill="currentColor"/>
</svg>
