<svg viewBox="0 0 24 24" fill="none" xmlns="http://www.w3.org/2000/svg">
<path fill-rule="evenodd" clip-rule="evenodd" d="M11.9999 1.25C12.4141 1.24993 12.7499 1.58566 12.75 1.99988L12.751 7.99988C12.751 8.41409 12.4153 8.74993 12.0011 8.75C11.5869 8.75007 11.251 8.41434 11.251 8.00012L11.25 2.00012C11.2499 1.58591 11.5857 1.25007 11.9999 1.25ZM2.8578 4.68549C2.88293 4.27204 3.23848 3.95725 3.65193 3.98238L8.04648 4.24952C8.2561 4.26226 8.45077 4.36231 8.58317 4.52532C8.71556 4.68834 8.77354 4.89939 8.74301 5.10717L8.13635 9.23601C8.07613 9.64583 7.6951 9.92923 7.28528 9.86902C6.87547 9.8088 6.59207 9.42777 6.65228 9.01795L7.01212 6.56894C5.32298 7.9912 4.25098 10.1208 4.25098 12.5C4.25098 16.7802 7.72077 20.25 12.001 20.25C16.2812 20.25 19.751 16.7802 19.751 12.5C19.751 9.53937 18.091 6.96525 15.6475 5.65963C15.2822 5.46442 15.1443 5.01002 15.3395 4.64469C15.5347 4.27935 15.9891 4.14144 16.3544 4.33665C19.2666 5.89272 21.251 8.96405 21.251 12.5C21.251 17.6086 17.1096 21.75 12.001 21.75C6.89234 21.75 2.75098 17.6086 2.75098 12.5C2.75098 9.76604 3.93726 7.30984 5.82149 5.61703L3.56091 5.47962C3.14746 5.45448 2.83267 5.09894 2.8578 4.68549Z" fill="currentColor"/>
</svg>
