<svg viewBox="0 0 24 24" fill="none" xmlns="http://www.w3.org/2000/svg">
<path fill-rule="evenodd" clip-rule="evenodd" d="M14.0819 4.66562C15.9155 3.7336 17.9436 3.24852 20.0005 3.25C20.4143 3.2503 20.7497 3.58564 20.75 3.99941C20.7516 6.05648 20.2666 8.08475 19.3346 9.91855C18.4749 11.61 17.2574 13.0917 15.7688 14.262C15.8674 14.9415 15.8421 15.6347 15.6925 16.3076C15.5068 17.1433 15.1344 17.926 14.6032 18.5973C14.072 19.2686 13.3958 19.8109 12.6253 20.1837C11.8547 20.5565 11.0098 20.7501 10.1537 20.75C9.73957 20.7499 9.40384 20.4142 9.40384 20V16.6755C8.63512 16.0624 7.93768 15.3649 7.32466 14.5962H4C3.58584 14.5962 3.25008 14.2605 3.25 13.8463C3.24984 12.9902 3.44345 12.1451 3.81631 11.3745C4.18918 10.6038 4.73162 9.92755 5.403 9.39634C6.07438 8.86513 6.85728 8.49276 7.69303 8.30714C8.36606 8.15765 9.05931 8.1324 9.73884 8.23114C10.909 6.74268 12.3906 5.52528 14.0819 4.66562ZM8.74974 9.67578C8.50431 9.68599 8.25952 9.71787 8.01826 9.77146C7.40349 9.908 6.82759 10.1819 6.33373 10.5727C5.83987 10.9634 5.44085 11.4609 5.16658 12.0278C5.00217 12.3676 4.88514 12.7271 4.81779 13.0962H7.34046C7.64492 11.8935 8.11998 10.7419 8.74974 9.67578ZM8.69328 13.9C9.12112 14.4082 9.59172 14.8789 10.0999 15.3068C11.69 14.9698 13.1902 14.2994 14.5029 13.3393L14.5041 13.3384C15.9755 12.2665 17.1725 10.8618 17.9974 9.23892C18.7049 7.84689 19.1213 6.32823 19.2246 4.77548C17.672 4.87883 16.1535 5.29531 14.7616 6.0028C13.1388 6.82762 11.7342 8.02459 10.6624 9.49595L10.6616 9.49714C9.70153 10.8096 9.0304 12.3104 8.69328 13.9ZM10.9038 16.6596C10.705 16.7099 11.1053 16.6187 10.9038 16.6596V19.1822C11.2729 19.1148 11.6323 18.9978 11.972 18.8334C12.5388 18.5592 13.0362 18.1603 13.427 17.6665C13.8177 17.1727 14.0916 16.5969 14.2282 15.9822C14.2818 15.7411 14.3137 15.4964 14.324 15.2511M10.9038 16.6596C12.1064 16.3554 13.2579 15.8808 14.324 15.2511L10.9038 16.6596ZM14.4615 9.05769C14.334 9.05769 14.2117 9.10835 14.1216 9.19851C14.0314 9.28867 13.9808 9.41096 13.9808 9.53846C13.9808 9.66597 14.0314 9.78826 14.1216 9.87842C14.2117 9.96858 14.334 10.0192 14.4615 10.0192C14.589 10.0192 14.7113 9.96858 14.8015 9.87842C14.8917 9.78826 14.9423 9.66597 14.9423 9.53846C14.9423 9.41096 14.8917 9.28867 14.8015 9.19851C14.7113 9.10835 14.589 9.05769 14.4615 9.05769ZM13.0609 8.13785C13.4324 7.76638 13.9362 7.55769 14.4615 7.55769C14.9869 7.55769 15.4907 7.76638 15.8622 8.13785C16.2336 8.50931 16.4423 9.01313 16.4423 9.53846C16.4423 10.0638 16.2336 10.5676 15.8622 10.9391C15.4907 11.3105 14.9869 11.5192 14.4615 11.5192C13.9362 11.5192 13.4324 11.3105 13.0609 10.9391C12.6895 10.5676 12.4808 10.0638 12.4808 9.53846C12.4808 9.01313 12.6895 8.50931 13.0609 8.13785ZM6.70317 15.3596C6.95034 15.692 6.88126 16.1619 6.54887 16.409C6.11893 16.7287 5.78465 17.16 5.58223 17.6561C5.45488 17.9682 5.38278 18.2984 5.36762 18.6323C5.70151 18.6171 6.03182 18.5449 6.34394 18.4175C6.84002 18.2149 7.27124 17.8805 7.59087 17.4505C7.83795 17.118 8.30776 17.0488 8.64021 17.2959C8.97266 17.543 9.04186 18.0128 8.79477 18.3452C8.31187 18.995 7.66039 19.5002 6.91091 19.8062C6.16143 20.1122 5.34251 20.2073 4.54286 20.0812C4.22158 20.0305 3.96958 19.7785 3.91887 19.4573C3.79265 18.6577 3.88759 17.8388 4.1934 17.0894C4.49921 16.3399 5.00424 15.6884 5.6538 15.2053C5.98618 14.9582 6.456 15.0273 6.70317 15.3596Z" fill="currentColor"/>
</svg>
