<svg  viewBox="0 0 24 24" fill="none" xmlns="http://www.w3.org/2000/svg">
<path fill-rule="evenodd" clip-rule="evenodd" d="M10.3333 4.75C7.24974 4.75 4.75 7.24974 4.75 10.3333C4.75 13.4169 7.24974 15.9167 10.3333 15.9167C13.4169 15.9167 15.9167 13.4169 15.9167 10.3333C15.9167 7.24974 13.4169 4.75 10.3333 4.75ZM3.25 10.3333C3.25 6.42132 6.42132 3.25 10.3333 3.25C14.2453 3.25 17.4167 6.42132 17.4167 10.3333C17.4167 14.2453 14.2453 17.4167 10.3333 17.4167C6.42132 17.4167 3.25 14.2453 3.25 10.3333ZM15.4697 15.4697C15.7626 15.1768 16.2374 15.1768 16.5303 15.4697L20.5303 19.4697C20.8232 19.7626 20.8232 20.2374 20.5303 20.5303C20.2374 20.8232 19.7626 20.8232 19.4697 20.5303L15.4697 16.5303C15.1768 16.2374 15.1768 15.7626 15.4697 15.4697Z" fill="currentColor"/>
</svg>
