<svg viewBox="0 0 24 24" fill="none" xmlns="http://www.w3.org/2000/svg">
<path fill-rule="evenodd" clip-rule="evenodd" d="M7.33965 3.68232C9.24393 2.1855 11.9994 1.77277 14.233 2.86966C15.8175 3.64777 17.0692 5.15205 17.5715 7.40658C18.493 7.62292 19.2891 8.07476 19.9299 8.67615C22.1319 10.7425 22.56 14.6883 19.9651 16.988C18.967 17.9037 18.2282 18.1947 17.4619 18.4246C17.0652 18.5436 16.6471 18.3185 16.528 17.9217C16.409 17.525 16.6341 17.1069 17.0309 16.9878C17.6378 16.8057 18.1603 16.6092 18.9555 15.8787L18.9662 15.869C20.7968 14.2509 20.5729 11.3365 18.9035 9.76997C18.3813 9.27991 17.7236 8.93347 16.9494 8.81241C16.5508 8.82417 16.1649 8.92344 15.8017 9.10698C15.432 9.2938 14.9809 9.14554 14.7941 8.77585C14.6073 8.40616 14.7555 7.95502 15.1252 7.7682C15.4164 7.62104 15.7204 7.50807 16.0336 7.43127C15.5852 5.75856 14.6449 4.74302 13.5718 4.21607C11.8999 3.39499 9.75758 3.68967 8.26661 4.86162C6.90914 5.92863 6.0715 7.74488 6.77306 10.183C7.22144 10.2466 7.65766 10.3865 8.06092 10.5942C8.42919 10.7838 8.57403 11.236 8.38442 11.6043C8.19482 11.9725 7.74257 12.1174 7.3743 11.9278C7.00624 11.7383 6.60046 11.6404 6.19947 11.6439C2.9412 11.8974 2.9274 16.7051 6.19483 16.9643H6.68808C7.10229 16.9643 7.43808 17.3001 7.43808 17.7143C7.43808 18.1285 7.10229 18.4643 6.68808 18.4643H6.16662C6.14872 18.4643 6.13082 18.4637 6.11297 18.4624C1.28244 18.1159 0.968686 11.3902 5.24801 10.2852C4.53736 7.41358 5.55727 5.08333 7.33965 3.68232Z" fill="currentColor"/>
<path fill-rule="evenodd" clip-rule="evenodd" d="M11.7368 12.9645C11.9066 12.9008 12.0937 12.9008 12.2635 12.9645L14.9302 13.9645C15.2229 14.0743 15.4168 14.3541 15.4168 14.6667V17.0001C15.4168 18.3349 14.5389 19.3586 13.8274 19.9812C13.4559 20.3062 13.0879 20.5588 12.8143 20.7298C12.6768 20.8158 12.561 20.8824 12.478 20.9284C12.4364 20.9514 12.4029 20.9693 12.3787 20.982L12.3497 20.9971L12.3407 21.0017L12.3376 21.0032L12.3365 21.0038C12.3365 21.0038 12.3356 21.0042 12.0002 20.3334C11.6648 21.0042 11.6643 21.004 11.6643 21.004L11.6627 21.0032L11.6596 21.0017L11.6507 20.9971L11.6216 20.982C11.5974 20.9693 11.5639 20.9514 11.5223 20.9284C11.4393 20.8824 11.3236 20.8158 11.186 20.7298C10.9124 20.5588 10.5444 20.3062 10.173 19.9812C9.46147 19.3586 8.5835 18.3349 8.5835 17.0001V14.6667C8.5835 14.3541 8.77743 14.0743 9.07015 13.9645L11.7368 12.9645ZM12.0002 20.3334L11.6643 21.004C11.8755 21.1096 12.1244 21.1098 12.3356 21.0042L12.0002 20.3334ZM12.0002 19.4698C12.0065 19.4658 12.0129 19.4619 12.0193 19.4578C12.2457 19.3163 12.5444 19.1106 12.8396 18.8523C13.4615 18.3082 13.9168 17.6653 13.9168 17.0001V15.1865L12.0002 14.4677L10.0835 15.1865V17.0001C10.0835 17.6653 10.5389 18.3082 11.1607 18.8523C11.4559 19.1106 11.7546 19.3163 11.981 19.4578C11.9874 19.4619 11.9938 19.4658 12.0002 19.4698Z" fill="currentColor"/>
</svg>
