<svg viewBox="0 0 24 24" fill="none" xmlns="http://www.w3.org/2000/svg">
<path fill-rule="evenodd" clip-rule="evenodd" d="M9.77483 4.63515C9.55441 4.26849 9.0931 4.15782 8.75378 4.35969L8.74288 4.36618L7.1866 5.25664C6.73064 5.51719 6.57294 6.10882 6.83381 6.56032L6.18441 6.93553L6.83329 6.55943C7.32265 7.4037 7.46222 8.34392 7.01414 9.12147C6.56613 9.89891 5.68303 10.2492 4.70915 10.2492C4.1814 10.2492 3.75 10.6845 3.75 11.2084V12.7916C3.75 13.3155 4.1814 13.7507 4.70915 13.7507C5.68303 13.7507 6.56613 14.1011 7.01414 14.8785C7.46216 15.656 7.32269 16.596 6.83351 17.4402C6.57306 17.8916 6.73041 18.4827 7.1862 18.7431L8.75384 19.6402C9.09315 19.8421 9.5544 19.7315 9.77482 19.3649L9.87117 19.1984C10.3603 18.3545 11.1066 17.765 12.0034 17.765C12.9008 17.765 13.6448 18.3549 14.1296 19.1998C14.1299 19.2003 14.1302 19.2007 14.1304 19.2012L14.2252 19.3648C14.4456 19.7315 14.9069 19.8422 15.2462 19.6403L15.2571 19.6338L16.8134 18.7433C17.2679 18.4836 17.4285 17.9008 17.1654 17.4383C16.6771 16.5946 16.5382 15.6554 16.9859 14.8785C17.4339 14.1011 18.317 13.7507 19.2909 13.7507C19.8186 13.7507 20.25 13.3155 20.25 12.7916V11.2084C20.25 10.6806 19.8147 10.2492 19.2909 10.2492C18.317 10.2492 17.4339 9.89891 16.9859 9.12147C16.5379 8.34409 16.6773 7.40411 17.1664 6.55998C17.427 6.10851 17.2696 5.51736 16.8138 5.25688L15.2462 4.35979C14.9069 4.15792 14.4456 4.26848 14.2252 4.63513L14.1288 4.80156C13.6397 5.64552 12.8934 6.235 11.9966 6.235C11.0992 6.235 10.3553 5.64518 9.87045 4.80031C9.87015 4.7998 9.86986 4.79929 9.86957 4.79878L9.77483 4.63515ZM7.99284 3.06703C9.07291 2.42891 10.4411 2.82126 11.0658 3.8714L11.0704 3.87907L11.1693 4.05001L11.1709 4.05279C11.4957 4.61939 11.8219 4.735 11.9966 4.735C12.1725 4.735 12.5013 4.61806 12.8307 4.05C12.8306 4.05011 12.8308 4.0499 12.8307 4.05L12.9341 3.87137C13.5589 2.82124 14.9271 2.42892 16.0071 3.06702L17.558 3.95451C18.7389 4.62961 19.1396 6.14318 18.465 7.31074L18.4645 7.31163C18.1352 7.87964 18.1984 8.22129 18.2855 8.37252C18.3727 8.52387 18.6366 8.74925 19.2909 8.74925C20.638 8.74925 21.75 9.84709 21.75 11.2084V12.7916C21.75 14.1388 20.6522 15.2507 19.2909 15.2507C18.6366 15.2507 18.3727 15.4761 18.2855 15.6275C18.1984 15.7787 18.1352 16.1203 18.4645 16.6884L18.4668 16.6924C19.1378 17.8666 18.7402 19.3696 17.5584 20.0452C17.5583 20.0453 17.5586 20.0452 17.5584 20.0452L16.0072 20.933C14.9271 21.5711 13.5589 21.1787 12.9342 20.1286L12.9296 20.1209L12.8307 19.95L12.8291 19.9472C12.5043 19.3806 12.1781 19.265 12.0034 19.265C11.8275 19.265 11.4985 19.382 11.1691 19.9503L11.0659 20.1286C10.4411 21.1788 9.07289 21.5711 7.99283 20.933L6.44199 20.0455C6.44185 20.0454 6.44212 20.0456 6.44199 20.0455C5.26108 19.3704 4.86042 17.8568 5.53501 16.6893L5.53553 16.6884C5.86476 16.1203 5.80165 15.7787 5.7145 15.6275C5.62728 15.4761 5.36345 15.2507 4.70915 15.2507C3.34784 15.2507 2.25 14.1388 2.25 12.7916V11.2084C2.25 9.86121 3.34784 8.74925 4.70915 8.74925C5.36345 8.74925 5.62728 8.52387 5.7145 8.37252C5.80165 8.22129 5.86476 7.87964 5.53553 7.31163L5.53501 7.31074C4.86042 6.14318 5.26068 4.62984 6.44158 3.95474L7.99284 3.06703ZM11.9955 10.0513C10.9193 10.0513 10.0469 10.9238 10.0469 12C10.0469 13.0762 10.9193 13.9486 11.9955 13.9486C13.0717 13.9486 13.9442 13.0762 13.9442 12C13.9442 10.9238 13.0717 10.0513 11.9955 10.0513ZM8.54685 12C8.54685 10.0954 10.0909 8.55135 11.9955 8.55135C13.9001 8.55135 15.4442 10.0954 15.4442 12C15.4442 13.9046 13.9001 15.4486 11.9955 15.4486C10.0909 15.4486 8.54685 13.9046 8.54685 12Z" fill="currentColor"/>
</svg>
