<svg viewBox="0 0 24 24" fill="none" xmlns="http://www.w3.org/2000/svg">
<path fill-rule="evenodd" clip-rule="evenodd" d="M2 12C2 6.47715 6.47715 2 12 2C12.5523 2 13 2.44772 13 3C13 3.55228 12.5523 4 12 4C7.58172 4 4 7.58172 4 12C4 16.4183 7.58172 20 12 20C16.4183 20 20 16.4183 20 12C20 11.4477 20.4477 11 21 11C21.5523 11 22 11.4477 22 12C22 17.5228 17.5228 22 12 22C6.47715 22 2 17.5228 2 12Z" fill="currentColor"/>
<path opacity="0.2" fill-rule="evenodd" clip-rule="evenodd" d="M12.002 4.00006C7.58368 4.00006 4.00195 7.58178 4.00195 12.0001C4.00195 16.4183 7.58368 20.0001 12.002 20.0001C16.4202 20.0001 20.002 16.4183 20.002 12.0001C20.002 7.58178 16.4202 4.00006 12.002 4.00006ZM2.00195 12.0001C2.00195 6.47721 6.47911 2.00006 12.002 2.00006C17.5248 2.00006 22.002 6.47721 22.002 12.0001C22.002 17.5229 17.5248 22.0001 12.002 22.0001C6.47911 22.0001 2.00195 17.5229 2.00195 12.0001Z" fill="currentColor"/>
</svg>
