<svg viewBox="0 0 24 24" fill="none" xmlns="http://www.w3.org/2000/svg">
<path fill-rule="evenodd" clip-rule="evenodd" d="M15.7463 3.84053C15.7461 3.84033 15.7465 3.84073 15.7463 3.84053L20.1722 8.24699C22.2751 10.3612 22.2772 13.7782 20.1708 15.8845L15.8925 20.1629L15.891 20.1643C13.7768 22.2672 10.3599 22.2693 8.25348 20.1629L3.8387 15.7481C2.76388 14.6733 2.18757 13.192 2.25538 11.6663L2.2555 11.6636L2.48947 6.78913C2.60627 4.46498 4.46403 2.60662 6.7998 2.50092C6.80019 2.5009 6.80058 2.50088 6.80096 2.50087L11.6684 2.26723C11.6689 2.26721 11.6695 2.26718 11.67 2.26715C13.1902 2.18821 14.6726 2.76722 15.7463 3.84053ZM14.6856 4.90119C13.908 4.12359 12.8375 3.70821 11.7466 3.76519L11.7435 3.76535L6.87064 3.99925L6.8684 3.99935C5.30672 4.06963 4.06612 5.30973 3.98763 6.8636C3.98761 6.86387 3.98764 6.86333 3.98763 6.8636L3.7539 11.7329C3.75388 11.7333 3.75386 11.7337 3.75384 11.7342C3.70508 12.8393 4.1228 13.9109 4.89936 14.6875L9.31414 19.1022C10.8329 20.621 13.3017 20.6233 14.8324 19.1017C14.8327 19.1014 14.8329 19.1011 14.8332 19.1008L19.1101 14.8239C20.6288 13.3053 20.6312 10.8368 19.1099 9.30602C19.1095 9.30562 19.1091 9.30521 19.1087 9.3048L14.6868 4.90236L14.6856 4.90119ZM9.5631 7.87889C8.63171 7.87889 7.87668 8.63393 7.87668 9.56531C7.87668 10.4967 8.63171 11.2517 9.5631 11.2517C10.4945 11.2517 11.2495 10.4967 11.2495 9.56531C11.2495 8.63393 10.4945 7.87889 9.5631 7.87889ZM6.37668 9.56531C6.37668 7.8055 7.80329 6.37889 9.5631 6.37889C11.3229 6.37889 12.7495 7.8055 12.7495 9.56531C12.7495 11.3251 11.3229 12.7517 9.5631 12.7517C7.80329 12.7517 6.37668 11.3251 6.37668 9.56531ZM17.4027 12.446C17.6956 12.7389 17.6956 13.2137 17.4027 13.5066L13.5044 17.4049C13.2115 17.6978 12.7366 17.6978 12.4437 17.4049C12.1509 17.112 12.1509 16.6371 12.4437 16.3442L16.342 12.446C16.6349 12.1531 17.1098 12.1531 17.4027 12.446Z" fill="currentColor"/>
</svg>
