<svg viewBox="0 0 24 24" fill="none" xmlns="http://www.w3.org/2000/svg">
<path fill-rule="evenodd" clip-rule="evenodd" d="M2.95078 2.89279C3.48336 2.39117 4.2259 2.25 5.01 2.25H8C8.7841 2.25 9.52664 2.39117 10.0592 2.89279C10.6033 3.40519 10.76 4.13203 10.76 4.89V19.11C10.76 19.868 10.6033 20.5948 10.0592 21.1072C9.52664 21.6088 8.7841 21.75 8 21.75H5.01C4.2259 21.75 3.48336 21.6088 2.95078 21.1072C2.40674 20.5948 2.25 19.868 2.25 19.11V4.89C2.25 4.13203 2.40674 3.40519 2.95078 2.89279ZM3.97922 3.98471C3.87826 4.07981 3.75 4.29797 3.75 4.89V19.11C3.75 19.702 3.87826 19.9202 3.97922 20.0153C4.09164 20.1212 4.3541 20.25 5.01 20.25H8C8.6559 20.25 8.91836 20.1212 9.03078 20.0153C9.13174 19.9202 9.26 19.702 9.26 19.11V4.89C9.26 4.29797 9.13174 4.07981 9.03078 3.98471C8.91836 3.87883 8.6559 3.75 8 3.75H5.01C4.3541 3.75 4.09164 3.87883 3.97922 3.98471ZM13.9556 2.89179C14.4885 2.39176 15.2294 2.25 16.01 2.25H18.9896C19.7737 2.25 20.5162 2.39117 21.0488 2.89279C21.5929 3.40519 21.7496 4.13203 21.7496 4.89V19.11C21.7496 19.868 21.5929 20.5948 21.0488 21.1072C20.5162 21.6088 19.7737 21.75 18.9896 21.75H16.01C15.2259 21.75 14.4834 21.6088 13.9508 21.1072C13.4067 20.5948 13.25 19.868 13.25 19.11V4.89C13.25 4.12889 13.4107 3.40304 13.9556 2.89179ZM14.9819 3.98571C14.8793 4.08196 14.75 4.30111 14.75 4.89V19.11C14.75 19.702 14.8783 19.9202 14.9792 20.0153C15.0916 20.1212 15.3541 20.25 16.01 20.25H18.9896C19.6455 20.25 19.908 20.1212 20.0204 20.0153C20.1214 19.9202 20.2496 19.702 20.2496 19.11V4.89C20.2496 4.29797 20.1214 4.07981 20.0204 3.98471C19.908 3.87883 19.6455 3.75 18.9896 3.75H16.01C15.3606 3.75 15.0965 3.87824 14.9819 3.98571Z" fill="currentColor"/>
</svg>
