<svg  viewBox="0 0 24 24" fill="none" xmlns="http://www.w3.org/2000/svg">
<path fill-rule="evenodd" clip-rule="evenodd" d="M12.4924 1.19408C12.8049 1.46596 12.8378 1.93969 12.5659 2.25219L11.0976 3.93985C11.3905 3.91477 11.6913 3.90136 12.0001 3.90136C17.2046 3.90136 21.4201 8.11943 21.4201 13.3257C21.4201 18.5319 17.2046 22.75 12.0001 22.75C6.79551 22.75 2.58008 18.5319 2.58008 13.3257C2.58008 11.3913 3.16699 9.58657 4.16594 8.0874C4.39563 7.7427 4.86126 7.64946 5.20596 7.87914C5.55066 8.10883 5.6439 8.57446 5.41421 8.91916C4.57316 10.1814 4.08008 11.6983 4.08008 13.3257C4.08008 17.7042 7.62464 21.25 12.0001 21.25C16.3755 21.25 19.9201 17.7042 19.9201 13.3257C19.9201 8.94715 16.3755 5.40136 12.0001 5.40136C11.6234 5.40136 11.2601 5.4246 10.9095 5.46702L12.9224 6.93712C13.2569 7.18142 13.33 7.65063 13.0857 7.98513C12.8414 8.31963 12.3722 8.39276 12.0377 8.14846L8.66774 5.68724C8.49814 5.56338 8.38825 5.37409 8.36478 5.16539C8.34131 4.9567 8.40641 4.74772 8.54426 4.58928L11.4343 1.26761C11.7061 0.955117 12.1799 0.922196 12.4924 1.19408Z" fill="currentColor"/>
</svg>
