<svg  viewBox="0 0 24 24" fill="none" xmlns="http://www.w3.org/2000/svg">
<path fill-rule="evenodd" clip-rule="evenodd" d="M12 3.75C7.41217 3.75 3.75 7.44426 3.75 12C3.75 12.4142 3.41421 12.75 3 12.75C2.58579 12.75 2.25 12.4142 2.25 12C2.25 6.61974 6.57983 2.25 12 2.25C15.2242 2.25 17.6383 3.597 19.2316 4.92608C19.6179 5.24838 19.9573 5.5706 20.25 5.87405V3.504C20.25 3.08979 20.5858 2.754 21 2.754C21.4142 2.754 21.75 3.08979 21.75 3.504V8.004C21.75 8.41821 21.4142 8.754 21 8.754H17.004C16.5898 8.754 16.254 8.41821 16.254 8.004C16.254 7.58979 16.5898 7.254 17.004 7.254H19.484C19.1652 6.8954 18.7606 6.48658 18.2707 6.07792C16.8647 4.905 14.7788 3.75 12 3.75ZM21 11.25C21.4142 11.25 21.75 11.5858 21.75 12C21.75 17.3822 17.3822 21.75 12 21.75C9.25554 21.75 7.08274 20.3688 5.63263 19.0535C5.30395 18.7554 5.00893 18.4576 4.749 18.1751V20.496C4.749 20.9102 4.41321 21.246 3.999 21.246C3.58479 21.246 3.249 20.9102 3.249 20.496V15.996C3.249 15.5818 3.58479 15.246 3.999 15.246H8.067C8.48121 15.246 8.817 15.5818 8.817 15.996C8.817 16.4102 8.48121 16.746 8.067 16.746H5.48849C5.79622 17.1107 6.18233 17.527 6.64037 17.9425C7.94876 19.1292 9.77646 20.25 12 20.25C16.5538 20.25 20.25 16.5538 20.25 12C20.25 11.5858 20.5858 11.25 21 11.25Z" fill="currentColor"/>
</svg>
