<svg  viewBox="0 0 24 24" fill="none" xmlns="http://www.w3.org/2000/svg">
<path fill-rule="evenodd" clip-rule="evenodd" d="M12 4.48593C12.1989 4.48594 12.3897 4.56496 12.5303 4.70562L15.6988 7.8743C15.9917 8.1672 15.9917 8.64207 15.6988 8.93496C15.4059 9.22784 14.931 9.22783 14.6381 8.93493L12.75 7.04667V16C12.75 16.4142 12.4142 16.75 12 16.75C11.5858 16.75 11.25 16.4142 11.25 16V7.04652L9.36145 8.93496C9.06855 9.22784 8.59367 9.22783 8.30079 8.93493C8.0079 8.64202 8.00792 8.16715 8.30082 7.87427L11.4697 4.70559C11.6103 4.56494 11.8011 4.48593 12 4.48593ZM4.25 20C4.25 19.5858 4.58579 19.25 5 19.25H19.0004C19.4146 19.25 19.7504 19.5858 19.7504 20C19.7504 20.4142 19.4146 20.75 19.0004 20.75H5C4.58579 20.75 4.25 20.4142 4.25 20Z" fill="currentColor"/>
</svg>
