<svg viewBox="0 0 24 24" fill="none" xmlns="http://www.w3.org/2000/svg">
<path fill-rule="evenodd" clip-rule="evenodd" d="M11.8434 3.42993C9.94346 3.42993 8.41462 4.96597 8.41462 6.85873C8.41462 8.70068 9.8527 10.195 11.6687 10.277C11.7806 10.2693 11.8987 10.2689 12.0106 10.2769C13.8247 10.194 15.2637 8.70075 15.2722 6.8572C15.2714 4.96625 13.7346 3.42993 11.8434 3.42993ZM6.91462 6.85873C6.91462 4.13975 9.11283 1.92993 11.8434 1.92993C14.5635 1.92993 16.7722 4.13865 16.7722 6.85873L16.7722 6.86186C16.7611 9.52106 14.665 11.6888 12.0192 11.7777C11.9859 11.7788 11.9525 11.7777 11.9194 11.7744C11.877 11.7702 11.812 11.7695 11.7513 11.775C11.7204 11.7778 11.6893 11.7787 11.6582 11.7777C9.01303 11.6888 6.91462 9.52091 6.91462 6.85873ZM12.0059 12.4593C13.8273 12.4593 15.687 12.9163 17.126 13.8773C18.4207 14.7391 19.1676 15.951 19.1676 17.2598C19.1676 18.5686 18.4208 19.7826 17.1266 20.649L17.1265 20.649C15.6832 21.6148 13.8212 22.0745 11.9989 22.0745C10.1769 22.0745 8.3152 21.6149 6.87198 20.6495C5.57714 19.7878 4.83008 18.5758 4.83008 17.2669C4.83008 15.9582 5.57693 14.7441 6.87109 13.8778L6.87385 13.876C8.32109 12.9164 10.1843 12.4593 12.0059 12.4593ZM7.70415 15.1252C6.72168 15.7834 6.33008 16.5736 6.33008 17.2669C6.33008 17.96 6.72149 18.7478 7.70373 19.4013L7.70538 19.4024C8.85027 20.1684 10.4047 20.5745 11.9989 20.5745C13.5929 20.5745 15.1473 20.1684 16.2922 19.4025C17.2757 18.7441 17.6676 17.9534 17.6676 17.2598C17.6676 16.5667 17.2762 15.7789 16.294 15.1255L16.2929 15.1247C15.153 14.3634 13.6009 13.9593 12.0059 13.9593C10.4118 13.9593 8.8544 14.363 7.70415 15.1252Z" fill="currentColor"/>
</svg>
