<svg viewBox="0 0 24 24" fill="none" xmlns="http://www.w3.org/2000/svg">
<path fill-rule="evenodd" clip-rule="evenodd" d="M14.4143 2.21144C14.6731 1.88799 15.1451 1.83555 15.4685 2.09431C16.9275 3.26146 17.625 5.07506 17.625 6.83997C17.625 8.60488 16.9275 10.4185 15.4685 11.5857C15.1451 11.8444 14.6731 11.792 14.4144 11.4685C14.1556 11.1451 14.208 10.6731 14.5315 10.4144C15.5725 9.58149 16.125 8.23508 16.125 6.83997C16.125 5.44487 15.5725 4.09846 14.5315 3.26561C14.208 3.00685 14.1556 2.53488 14.4143 2.21144ZM9.26334 3.42996C7.36338 3.42996 5.83455 4.966 5.83455 6.85876C5.83455 8.7007 7.27262 10.195 9.08858 10.277C9.20052 10.2693 9.31864 10.2689 9.43052 10.2769C11.2446 10.1941 12.6836 8.70078 12.6921 6.85723C12.6913 4.96628 11.1545 3.42996 9.26334 3.42996ZM4.33455 6.85876C4.33455 4.13978 6.53275 1.92996 9.26334 1.92996C11.9834 1.92996 14.1921 4.13868 14.1921 6.85876L14.1921 6.86188C14.1811 9.52108 12.0849 11.6888 9.43913 11.7777C9.40582 11.7788 9.37247 11.7777 9.3393 11.7744C9.29696 11.7702 9.23197 11.7695 9.17125 11.7751C9.1403 11.7779 9.10921 11.7788 9.07815 11.7777C6.43295 11.6888 4.33455 9.52094 4.33455 6.85876ZM16.4143 12.7315C16.6731 12.408 17.1451 12.3556 17.4685 12.6143C20.3438 14.9146 20.3438 19.5854 17.4685 21.8856C17.1451 22.1444 16.6731 22.0919 16.4144 21.7685C16.1556 21.445 16.2081 20.9731 16.5315 20.7143C18.6562 19.0146 18.6562 15.4854 16.5315 13.7856C16.208 13.5269 16.1556 13.0549 16.4143 12.7315ZM9.42584 12.4593C11.2473 12.4593 13.1069 12.9163 14.5459 13.8774C15.8406 14.7391 16.5876 15.951 16.5876 17.2599C16.5876 18.5686 15.8407 19.7826 14.5466 20.649L14.5464 20.6491C13.1031 21.6148 11.2411 22.0746 9.41879 22.0746C7.59679 22.0746 5.73513 21.615 4.2919 20.6496C2.99706 19.7878 2.25 18.5759 2.25 17.2669C2.25 15.9582 2.99685 14.7442 4.29101 13.8778L4.29377 13.876C5.74102 12.9164 7.60418 12.4593 9.42584 12.4593ZM5.12408 15.1252C4.1416 15.7834 3.75 16.5736 3.75 17.2669C3.75 17.9601 4.14141 18.7478 5.12365 19.4013L5.1253 19.4024C6.27019 20.1684 7.82464 20.5746 9.41879 20.5746C11.0129 20.5746 12.5673 20.1685 13.7121 19.4025C14.6956 18.7441 15.0876 17.9535 15.0876 17.2599C15.0876 16.5668 14.6962 15.779 13.7139 15.1255L13.7128 15.1248C12.573 14.3635 11.0209 13.9593 9.42584 13.9593C7.8317 13.9593 6.27432 14.3631 5.12408 15.1252Z" fill="currentColor"/>
</svg>
