<svg viewBox="0 0 24 24" fill="none" xmlns="http://www.w3.org/2000/svg">
<path fill-rule="evenodd" clip-rule="evenodd" d="M3.93217 3.93217C5.15414 2.7102 6.97603 2.25 9.3 2.25H14.7C17.024 2.25 18.8459 2.7102 20.0678 3.93217C21.2898 5.15414 21.75 6.97603 21.75 9.3V14.7C21.75 17.024 21.2898 18.8459 20.0678 20.0678C18.8459 21.2898 17.024 21.75 14.7 21.75H9.3C6.97603 21.75 5.15414 21.2898 3.93217 20.0678C2.7102 18.8459 2.25 17.024 2.25 14.7V9.3C2.25 6.97603 2.7102 5.15414 3.93217 3.93217ZM4.99283 4.99283C4.1898 5.79586 3.75 7.12397 3.75 9.3V14.7C3.75 16.876 4.1898 18.2041 4.99283 19.0072C5.79586 19.8102 7.12397 20.25 9.3 20.25H14.7C16.876 20.25 18.2041 19.8102 19.0072 19.0072C19.8102 18.2041 20.25 16.876 20.25 14.7V9.3C20.25 7.12397 19.8102 5.79586 19.0072 4.99283C18.2041 4.1898 16.876 3.75 14.7 3.75H9.3C7.12397 3.75 5.79586 4.1898 4.99283 4.99283Z" fill="currentColor"/>
<path fill-rule="evenodd" clip-rule="evenodd" d="M16.9499 10.7234V16.1C16.9499 16.5142 17.2857 16.85 17.6999 16.85C18.1141 16.85 18.4499 16.5142 18.4499 16.1V8.36935C18.4499 7.21163 16.851 6.90597 16.4239 7.98206L15.1999 11.0666L13.9759 7.98207C13.5488 6.90596 11.9499 7.21164 11.9499 8.36935V16.1C11.9499 16.5142 12.2857 16.85 12.6999 16.85C13.1141 16.85 13.4499 16.5142 13.4499 16.1V10.7234L14.5028 13.3766C14.6162 13.6624 14.8925 13.85 15.1999 13.85C15.5073 13.85 15.7836 13.6624 15.897 13.3766L16.9499 10.7234ZM5.4762 7.38414C5.87156 7.26059 6.29222 7.48094 6.41577 7.8763L8.19991 13.5855L9.98405 7.8763C10.1076 7.48094 10.5283 7.26059 10.9236 7.38414C11.319 7.50769 11.5393 7.92835 11.4158 8.32371L8.91577 16.3237C8.81792 16.6368 8.52795 16.85 8.19991 16.85C7.87187 16.85 7.58189 16.6368 7.48405 16.3237L4.98405 8.32371C4.8605 7.92835 5.08084 7.50769 5.4762 7.38414Z" fill="currentColor"/>
</svg>
