<svg viewBox="0 0 24 24" fill="none" xmlns="http://www.w3.org/2000/svg">
<path fill-rule="evenodd" clip-rule="evenodd" d="M12.0007 4.28271C11.3182 4.28271 10.4677 4.75146 9.74019 6.06348L4.28543 15.8748C3.60883 17.0951 3.64709 18.0395 3.99615 18.6341C4.34478 19.2281 5.14896 19.7209 6.54592 19.7209H12.0007C12.0403 19.7209 12.0793 19.7239 12.1172 19.7299H17.4555C18.8471 19.7299 19.6522 19.2375 20.0022 18.6425C20.3523 18.0474 20.392 17.1033 19.7161 15.8842C19.7161 15.8841 19.7162 15.8843 19.7161 15.8842L16.9079 10.8258L14.2615 6.06411C13.534 4.75209 12.6832 4.28271 12.0007 4.28271ZM11.8841 21.2209H6.54592C4.81944 21.2209 3.4093 20.5975 2.70254 19.3934C1.9962 18.1901 2.13797 16.6546 2.97358 15.1475L8.42837 5.33606C8.42825 5.33627 8.42849 5.33585 8.42837 5.33606C9.30305 3.75904 10.5681 2.78271 12.0007 2.78271C13.4333 2.78271 14.698 3.75842 15.5727 5.33543L18.219 10.0971L21.0276 15.1561C21.8638 16.6642 22.0026 18.2002 21.2951 19.403C20.5875 20.606 19.1782 21.2299 17.4555 21.2299H12.0007C11.961 21.2299 11.9221 21.2268 11.8841 21.2209ZM12.0003 8.55025C12.4145 8.55025 12.7503 8.88604 12.7503 9.30025V13.8009C12.7503 14.2151 12.4145 14.5509 12.0003 14.5509C11.5861 14.5509 11.2503 14.2151 11.2503 13.8009V9.30025C11.2503 8.88604 11.5861 8.55025 12.0003 8.55025ZM11.245 16.5013C11.245 16.0871 11.5808 15.7513 11.995 15.7513H12.0031C12.4173 15.7513 12.7531 16.0871 12.7531 16.5013C12.7531 16.9155 12.4173 17.2513 12.0031 17.2513H11.995C11.5808 17.2513 11.245 16.9155 11.245 16.5013Z" fill="currentColor"/>
</svg>
