<svg viewBox="0 0 24 24" fill="none" xmlns="http://www.w3.org/2000/svg">
<path fill-rule="evenodd" clip-rule="evenodd" d="M4.7005 3.31168C5.87193 2.55083 7.41866 2.25 9.30023 2.25H14.7002C16.5818 2.25 18.1285 2.55083 19.3 3.31168C20.502 4.0924 21.2061 5.28884 21.5292 6.84782C21.6132 7.25342 21.3525 7.65036 20.9469 7.7344C20.5413 7.81844 20.1444 7.55777 20.0604 7.15218C19.798 5.88625 19.2728 5.08269 18.4829 4.56964C17.6624 4.03671 16.4546 3.75 14.7002 3.75H9.30023C7.5459 3.75 6.33805 4.03671 5.51754 4.56964C4.72762 5.08269 4.20243 5.88625 3.94012 7.15218C3.85607 7.55777 3.45914 7.81844 3.05354 7.7344C2.64794 7.65036 2.38727 7.25342 2.47132 6.84782C2.79436 5.28884 3.49847 4.0924 4.7005 3.31168ZM17.293 10.1185C17.0719 10.1069 16.8986 10.1365 16.7601 10.1895C16.6183 10.2445 16.5297 10.3131 16.4692 10.3857C16.4257 10.4399 16.3985 10.5022 16.3934 10.6C16.3864 10.7343 16.4178 10.8022 16.4603 10.8545C16.5099 10.9114 16.6445 11.0156 16.9638 11.1093C16.9635 11.1092 16.9641 11.1094 16.9638 11.1093L17.6914 11.3205C18.1651 11.4593 18.6096 11.6813 18.92 12.0472L18.9248 12.0528C19.2353 12.4261 19.3636 12.8757 19.3389 13.3481C19.318 13.7475 19.1827 14.1182 18.9273 14.4322L18.9242 14.436C18.6811 14.7308 18.3695 14.9419 18.015 15.0792L18.013 15.08C17.6497 15.2195 17.2619 15.2699 16.8628 15.249C16.3245 15.2208 15.8069 15.0758 15.4015 14.7293C15.1577 14.5218 14.9639 14.2715 14.8247 13.9832C14.6447 13.6101 14.8011 13.1618 15.1741 12.9817C15.5472 12.8016 15.9955 12.9581 16.1756 13.3311C16.2236 13.4307 16.2882 13.5143 16.3739 13.5871L16.376 13.5889C16.4485 13.6511 16.6064 13.7335 16.9413 13.751C17.1625 13.7626 17.3358 13.7331 17.4743 13.6801C17.616 13.625 17.7047 13.5564 17.7651 13.4838C17.8087 13.4296 17.8358 13.3673 17.8409 13.2696C17.848 13.1353 17.8166 13.0673 17.7741 13.0151C17.7244 12.9582 17.5898 12.854 17.2705 12.7603C17.2702 12.7602 17.2708 12.7604 17.2705 12.7603L16.5447 12.5495L16.5429 12.549C16.0692 12.4102 15.6248 12.1882 15.3143 11.8223L15.3096 11.8167C14.9991 11.4435 14.8707 10.9938 14.8955 10.5215C14.9164 10.1221 15.0517 9.75135 15.3071 9.43735L15.3102 9.43358C15.5532 9.13874 15.8649 8.92761 16.2194 8.79032L16.2214 8.78953C16.5847 8.65005 16.9725 8.59966 17.3715 8.62058C17.9099 8.64879 18.4275 8.7937 18.8329 9.14026C19.0497 9.32476 19.2277 9.54382 19.3627 9.79449C19.5592 10.1592 19.4228 10.614 19.0582 10.8105C18.6935 11.0069 18.2386 10.8706 18.0422 10.5059C17.9966 10.4213 17.9374 10.3477 17.8605 10.2824L17.8584 10.2806C17.7858 10.2185 17.628 10.1361 17.293 10.1185ZM5.03163 8.91435C5.35507 8.65559 5.82704 8.70803 6.0858 9.03148L7.50015 10.7994L8.9145 9.03148C9.17326 8.70803 9.64523 8.65559 9.96867 8.91435C10.2921 9.1731 10.3446 9.64507 10.0858 9.96852L8.46062 12L10.0858 14.0315C10.3446 14.3549 10.2921 14.8269 9.96867 15.0856C9.64523 15.3444 9.17326 15.292 8.9145 14.9685L7.50015 13.2006L6.0858 14.9685C5.82704 15.292 5.35507 15.3444 5.03163 15.0856C4.70818 14.8269 4.65574 14.3549 4.9145 14.0315L6.53968 12L4.9145 9.96852C4.65574 9.64507 4.70818 9.1731 5.03163 8.91435ZM11.5001 8.75C11.9144 8.75 12.2501 9.08578 12.2501 9.5V13.75H14.0001C14.4144 13.75 14.7501 14.0858 14.7501 14.5C14.7501 14.9142 14.4144 15.25 14.0001 15.25H11.5001C11.0859 15.25 10.7501 14.9142 10.7501 14.5V9.5C10.7501 9.08578 11.0859 8.75 11.5001 8.75ZM3.05354 16.2656C3.45914 16.1816 3.85607 16.4422 3.94012 16.8478C4.20243 18.1137 4.72762 18.9173 5.51754 19.4304C6.33805 19.9633 7.5459 20.25 9.30023 20.25H14.7002C16.4546 20.25 17.6624 19.9633 18.4829 19.4304C19.2728 18.9173 19.798 18.1137 20.0604 16.8478C20.1444 16.4422 20.5413 16.1816 20.9469 16.2656C21.3525 16.3496 21.6132 16.7466 21.5292 17.1522C21.2061 18.7112 20.502 19.9076 19.3 20.6883C18.1285 21.4492 16.5818 21.75 14.7002 21.75H9.30023C7.41866 21.75 5.87193 21.4492 4.7005 20.6883C3.49847 19.9076 2.79435 18.7112 2.47132 17.1522C2.38727 16.7466 2.64794 16.3496 3.05354 16.2656Z" fill="currentColor"/>
</svg>
